<?xml version="1.0" encoding="utf-8"?>
<!-- Generator: Adobe Illustrator 21.0.0, SVG Export Plug-In . SVG Version: 6.00 Build 0)  -->
<svg version="1.1" id="图层_1" xmlns="http://www.w3.org/2000/svg" xmlns:xlink="http://www.w3.org/1999/xlink" x="0px" y="0px"
	 viewBox="0 0 45 45" style="enable-background:new 0 0 45 45;" xml:space="preserve">
<style type="text/css">
	.st0{fill:#777F99;}
	.st1{fill:none;stroke:#777F99;stroke-linejoin:bevel;stroke-miterlimit:10;}
	.st2{fill:none;stroke:#FFFFFF;stroke-linejoin:bevel;stroke-miterlimit:10;}
	.st3{fill:#FFFFFF;}
	.st4{fill:#4488EE;}
	.st5{fill:#333333;}
	.st6{fill:none;stroke:#333333;stroke-linecap:round;stroke-linejoin:round;stroke-miterlimit:10;}
	.st7{fill:none;stroke:#4488EE;stroke-miterlimit:10;}
	.st8{fill:none;stroke:#333333;stroke-miterlimit:10;}
	.st9{fill:none;stroke:#777F99;stroke-width:3;stroke-linejoin:bevel;stroke-miterlimit:10;}
	.st10{fill:none;stroke:#777F99;stroke-width:2.6;stroke-linecap:round;stroke-linejoin:round;stroke-miterlimit:10;}
	.st11{fill:none;stroke:#777F99;stroke-width:2.6;stroke-miterlimit:10;}
	.st12{fill:none;stroke:#777F99;stroke-width:4;stroke-linejoin:bevel;stroke-miterlimit:10;}
	.st13{clip-path:url(#SVGID_2_);fill:#777F99;}
</style>
<g>
</g>
<g>
	<path class="st0" d="M-203.5-26c0.6,0,1,0.4,1,1v18c0,0.6-0.4,1-1,1h-14c-0.6,0-1-0.4-1-1v-18c0-0.6,0.4-1,1-1H-203.5 M-203.5-27
		h-14c-1.1,0-2,0.9-2,2v18c0,1.1,0.9,2,2,2h14c1.1,0,2-0.9,2-2v-18C-201.5-26.1-202.4-27-203.5-27L-203.5-27z"/>
</g>
<path class="st0" d="M-203.5,25h-14c-1.1,0-2-0.9-2-2V5c0-1.1,0.9-2,2-2h14c1.1,0,2,0.9,2,2v18C-201.5,24.1-202.4,25-203.5,25z"/>
<g>
</g>
<g>
</g>
<g>
</g>
<g>
</g>
<g>
</g>
<g>
</g>
<g>
</g>
<g>
</g>
<g>
</g>
<g>
</g>
<g>
</g>
<g>
</g>
<g>
</g>
<g>
</g>
<g>
</g>
<g>
</g>
<g>
</g>
<line class="st1" x1="-215.5" y1="-15.5" x2="-205.5" y2="-15.5"/>
<line class="st1" x1="-215.5" y1="-12.5" x2="-205.5" y2="-12.5"/>
<line class="st1" x1="-215.5" y1="-9.5" x2="-210.5" y2="-9.5"/>
<g>
	<path class="st0" d="M-212.5-22v3h-3v-3H-212.5 M-212.5-23h-3c-0.6,0-1,0.4-1,1v3c0,0.6,0.4,1,1,1h3c0.6,0,1-0.4,1-1v-3
		C-211.5-22.6-211.9-23-212.5-23L-212.5-23z"/>
</g>
<g>
	<path class="st0" d="M-205.5-22v3h-3v-3H-205.5 M-205.5-23h-3c-0.6,0-1,0.4-1,1v3c0,0.6,0.4,1,1,1h3c0.6,0,1-0.4,1-1v-3
		C-204.5-22.6-204.9-23-205.5-23L-205.5-23z"/>
</g>
<g>
	<path class="st0" d="M-180.5-25.8l9.1,5.8l-9.1,5.8l-9.1-5.8L-180.5-25.8 M-180.5-27l-11,7l11,7l11-7L-180.5-27L-180.5-27z"/>
</g>
<g>
	<polygon class="st0" points="-180.5,-10 -190.7,-16.5 -191.5,-16 -180.5,-9 -169.5,-16 -170.3,-16.5 	"/>
</g>
<g>
	<polygon class="st0" points="-180.5,-6 -190.7,-12.5 -191.5,-12 -180.5,-5 -169.5,-12 -170.3,-12.5 	"/>
</g>
<line class="st2" x1="-215.5" y1="14.5" x2="-205.5" y2="14.5"/>
<line class="st2" x1="-215.5" y1="17.5" x2="-205.5" y2="17.5"/>
<line class="st2" x1="-215.5" y1="20.5" x2="-210.5" y2="20.5"/>
<g>
	<path class="st3" d="M-212.5,12h-3c-0.6,0-1-0.4-1-1V8c0-0.6,0.4-1,1-1h3c0.6,0,1,0.4,1,1v3C-211.5,11.6-211.9,12-212.5,12z"/>
</g>
<g>
	<path class="st3" d="M-205.5,12h-3c-0.6,0-1-0.4-1-1V8c0-0.6,0.4-1,1-1h3c0.6,0,1,0.4,1,1v3C-204.5,11.6-204.9,12-205.5,12z"/>
</g>
<polygon class="st0" points="-180.5,17 -191.5,10 -180.5,3 -169.5,10 "/>
<g>
	<polygon class="st0" points="-180.5,20 -190.7,13.5 -191.5,14 -180.5,21 -169.5,14 -170.3,13.5 	"/>
</g>
<g>
	<polygon class="st0" points="-180.5,24 -190.7,17.5 -191.5,18 -180.5,25 -169.5,18 -170.3,17.5 	"/>
</g>
<path class="st4" d="M-203.5,55h-14c-1.1,0-2-0.9-2-2V35c0-1.1,0.9-2,2-2h14c1.1,0,2,0.9,2,2v18C-201.5,54.1-202.4,55-203.5,55z"/>
<line class="st2" x1="-215.5" y1="44.5" x2="-205.5" y2="44.5"/>
<line class="st2" x1="-215.5" y1="47.5" x2="-205.5" y2="47.5"/>
<line class="st2" x1="-215.5" y1="50.5" x2="-210.5" y2="50.5"/>
<g>
	<path class="st3" d="M-212.5,42h-3c-0.6,0-1-0.4-1-1v-3c0-0.6,0.4-1,1-1h3c0.6,0,1,0.4,1,1v3C-211.5,41.6-211.9,42-212.5,42z"/>
</g>
<g>
	<path class="st3" d="M-205.5,42h-3c-0.6,0-1-0.4-1-1v-3c0-0.6,0.4-1,1-1h3c0.6,0,1,0.4,1,1v3C-204.5,41.6-204.9,42-205.5,42z"/>
</g>
<polygon class="st4" points="-180.5,47 -191.5,40 -180.5,33 -169.5,40 "/>
<polygon class="st4" points="-180.5,50 -190.7,43.5 -191.5,44 -180.5,51 -169.5,44 -170.3,43.5 "/>
<polygon class="st4" points="-180.5,54 -190.7,47.5 -191.5,48 -180.5,55 -169.5,48 -170.3,47.5 "/>
<g>
	<path class="st5" d="M-150.5-25c2.5,0,4.5,2,4.5,4.5s-2,4.5-4.5,4.5s-4.5-2-4.5-4.5S-153-25-150.5-25 M-150.5-26
		c-3,0-5.5,2.5-5.5,5.5s2.5,5.5,5.5,5.5s5.5-2.5,5.5-5.5S-147.5-26-150.5-26L-150.5-26z"/>
</g>
<path class="st6" d="M-158.5-7.5c0-4.4,3.6-8,8-8s8,3.6,8,8"/>
<g>
	<g>
		<path class="st4" d="M-150.5,5c2.5,0,4.5,2,4.5,4.5s-2,4.5-4.5,4.5s-4.5-2-4.5-4.5S-153,5-150.5,5 M-150.5,4c-3,0-5.5,2.5-5.5,5.5
			s2.5,5.5,5.5,5.5s5.5-2.5,5.5-5.5S-147.5,4-150.5,4L-150.5,4z"/>
	</g>
</g>
<path class="st7" d="M-158.5,22.5c0-4.4,3.6-8,8-8s8,3.6,8,8"/>
<g>
	<g>
		<path class="st5" d="M-122.2-23.5v5.8h-5.8v-5.8H-122.2 M-122.2-24.5h-5.8c-0.6,0-1,0.4-1,1v5.8c0,0.6,0.4,1,1,1h5.8
			c0.6,0,1-0.4,1-1v-5.8C-121.2-24.1-121.7-24.5-122.2-24.5L-122.2-24.5z"/>
	</g>
	<g>
		<path class="st5" d="M-113-23.5v5.8h-5.8v-5.8H-113 M-113-24.5h-5.8c-0.6,0-1,0.4-1,1v5.8c0,0.6,0.4,1,1,1h5.8c0.6,0,1-0.4,1-1
			v-5.8C-112-24.1-112.4-24.5-113-24.5L-113-24.5z"/>
	</g>
	<g>
		<path class="st5" d="M-113-14.3v5.8h-5.8v-5.8H-113 M-113-15.3h-5.8c-0.6,0-1,0.4-1,1v5.8c0,0.6,0.4,1,1,1h5.8c0.6,0,1-0.4,1-1
			v-5.8C-112-14.8-112.4-15.3-113-15.3L-113-15.3z"/>
	</g>
	<g>
		<path class="st5" d="M-122.2-14.3v5.8h-5.8v-5.8H-122.2 M-122.2-15.3h-5.8c-0.6,0-1,0.4-1,1v5.8c0,0.6,0.4,1,1,1h5.8
			c0.6,0,1-0.4,1-1v-5.8C-121.2-14.8-121.7-15.3-122.2-15.3L-122.2-15.3z"/>
	</g>
</g>
<g>
	<g>
		<path class="st4" d="M-122.2,6.5v5.8h-5.8V6.5H-122.2 M-122.2,5.5h-5.8c-0.6,0-1,0.4-1,1v5.8c0,0.6,0.4,1,1,1h5.8c0.6,0,1-0.4,1-1
			V6.5C-121.2,5.9-121.7,5.5-122.2,5.5L-122.2,5.5z"/>
	</g>
	<g>
		<path class="st4" d="M-113,6.5v5.8h-5.8V6.5H-113 M-113,5.5h-5.8c-0.6,0-1,0.4-1,1v5.8c0,0.6,0.4,1,1,1h5.8c0.6,0,1-0.4,1-1V6.5
			C-112,5.9-112.4,5.5-113,5.5L-113,5.5z"/>
	</g>
	<g>
		<path class="st4" d="M-113,15.7v5.8h-5.8v-5.8H-113 M-113,14.7h-5.8c-0.6,0-1,0.4-1,1v5.8c0,0.6,0.4,1,1,1h5.8c0.6,0,1-0.4,1-1
			v-5.8C-112,15.2-112.4,14.7-113,14.7L-113,14.7z"/>
	</g>
	<g>
		<path class="st4" d="M-122.2,15.7v5.8h-5.8v-5.8H-122.2 M-122.2,14.7h-5.8c-0.6,0-1,0.4-1,1v5.8c0,0.6,0.4,1,1,1h5.8
			c0.6,0,1-0.4,1-1v-5.8C-121.2,15.2-121.7,14.7-122.2,14.7L-122.2,14.7z"/>
	</g>
</g>
<polyline class="st8" points="-81.5,-13 -90.5,-7 -99.5,-13 "/>
<polyline class="st8" points="-81.5,-16 -90.5,-10 -99.5,-16 "/>
<g>
	<path class="st5" d="M-90.5-23.8l7.2,4.8l-7.2,4.8l-7.2-4.8L-90.5-23.8 M-90.5-25l-9,6l9,6l9-6L-90.5-25L-90.5-25z"/>
</g>
<polyline class="st7" points="-81.5,17 -90.5,23 -99.5,17 "/>
<polyline class="st7" points="-81.5,14 -90.5,20 -99.5,14 "/>
<g>
	<path class="st4" d="M-90.5,6.2l7.2,4.8l-7.2,4.8l-7.2-4.8L-90.5,6.2 M-90.5,5l-9,6l9,6l9-6L-90.5,5L-90.5,5z"/>
</g>
<g>
	<g>
		<path class="st5" d="M-57.8-7.5c-0.3,0-0.6-0.1-0.9-0.4C-58.9-8.2-59.8-9-60.5-9c-0.7,0-1.6,0.8-1.9,1.1c-0.2,0.2-0.5,0.4-0.8,0.4
			c-0.2,0-0.3,0-0.4-0.1l0,0l-2.2-1.2l0,0c-0.4-0.3-0.6-0.8-0.4-1.3c0,0,0.2-0.5,0.2-0.9c0-1.3-1-2.3-2.3-2.3h-0.1l0,0
			c-0.4,0-0.7-0.3-0.8-0.8c0,0-0.2-1-0.2-1.8c0-0.8,0.2-1.7,0.2-1.8c0.1-0.5,0.4-0.8,0.8-0.8h0.1c1.3,0,2.3-1.1,2.3-2.3
			c0-0.4-0.2-0.9-0.2-0.9c-0.2-0.4,0-1,0.4-1.3l0,0l2.3-1.3l0,0c0.1-0.1,0.3-0.1,0.4-0.1c0.3,0,0.6,0.1,0.8,0.3c0.3,0.3,1.1,1,1.9,1
			c0.7,0,1.6-0.7,1.8-1c0.2-0.2,0.5-0.3,0.8-0.3c0.2,0,0.3,0,0.4,0.1l0,0l2.3,1.3l0,0c0.4,0.3,0.6,0.8,0.4,1.3c0,0-0.2,0.5-0.2,0.9
			c0,1.3,1,2.3,2.3,2.3h0.1c0.4,0,0.7,0.3,0.8,0.8c0,0,0.2,1,0.2,1.8c0,0.8-0.2,1.7-0.2,1.8c-0.1,0.5-0.4,0.8-0.8,0.8h-0.1
			c-1.3,0-2.3,1.1-2.3,2.3c0,0.4,0.2,0.9,0.2,0.9c0.2,0.4,0,1-0.4,1.3l0,0l-2.3,1.3l0,0C-57.5-7.5-57.7-7.5-57.8-7.5L-57.8-7.5z
			 M-57.9-8.6C-57.9-8.6-57.8-8.6-57.9-8.6L-57.9-8.6l2.2-1.2c-0.1-0.1-0.3-0.7-0.3-1.3c0-1.8,1.4-3.3,3.2-3.4
			c0-0.1,0.2-0.9,0.2-1.5c0-0.6-0.1-1.4-0.2-1.5c-1.8-0.1-3.2-1.6-3.2-3.4c0-0.6,0.2-1.2,0.3-1.3l-2.1-1.2c0,0,0,0,0,0
			c0,0-0.1,0-0.1,0c0,0-0.3,0.3-0.8,0.7c-0.6,0.5-1.3,0.7-1.8,0.7c-0.6,0-1.2-0.2-1.8-0.7c-0.4-0.3-0.7-0.6-0.8-0.7c0,0,0,0-0.1,0
			c0,0,0,0,0,0l-2.2,1.2c0.1,0.1,0.3,0.7,0.3,1.3c0,1.8-1.4,3.3-3.2,3.4c0,0.1-0.2,0.9-0.2,1.5c0,0.6,0.1,1.4,0.2,1.5
			c1.8,0.1,3.2,1.6,3.2,3.4c0,0.6-0.2,1.2-0.3,1.3l2.1,1.2c0,0,0,0,0,0c0,0,0.1,0,0.1,0c0,0,0.3-0.4,0.8-0.7
			c0.7-0.5,1.3-0.7,1.9-0.7c0.6,0,1.2,0.3,1.9,0.7C-58.2-9-57.9-8.6-57.9-8.6L-57.9-8.6z M-60.5-12.9c-1.7,0-3.1-1.4-3.1-3.1
			c0-1.7,1.4-3.1,3.1-3.1c1.7,0,3.1,1.4,3.1,3.1C-57.4-14.3-58.8-12.9-60.5-12.9L-60.5-12.9z M-60.5-18.1c-1.1,0-2.1,0.9-2.1,2.1
			c0,1.1,0.9,2.1,2.1,2.1s2.1-0.9,2.1-2.1C-58.5-17.1-59.4-18.1-60.5-18.1L-60.5-18.1z M-60.5-18.1"/>
	</g>
</g>
<g>
	<g>
		<path class="st4" d="M-57.8,22.5c-0.3,0-0.6-0.1-0.9-0.4c-0.3-0.3-1.2-1.1-1.9-1.1c-0.7,0-1.6,0.8-1.9,1.1
			c-0.2,0.2-0.5,0.4-0.8,0.4c-0.2,0-0.3,0-0.4-0.1l0,0l-2.2-1.2l0,0c-0.4-0.3-0.6-0.8-0.4-1.3c0,0,0.2-0.5,0.2-0.9
			c0-1.3-1-2.3-2.3-2.3h-0.1l0,0c-0.4,0-0.7-0.3-0.8-0.8c0,0-0.2-1-0.2-1.8c0-0.8,0.2-1.7,0.2-1.8c0.1-0.5,0.4-0.8,0.8-0.8h0.1
			c1.3,0,2.3-1.1,2.3-2.3c0-0.4-0.2-0.9-0.2-0.9c-0.2-0.4,0-1,0.4-1.3l0,0l2.3-1.3l0,0c0.1-0.1,0.3-0.1,0.4-0.1
			c0.3,0,0.6,0.1,0.8,0.3c0.3,0.3,1.1,1,1.9,1c0.7,0,1.6-0.7,1.8-1c0.2-0.2,0.5-0.3,0.8-0.3c0.2,0,0.3,0,0.4,0.1l0,0l2.3,1.3l0,0
			c0.4,0.3,0.6,0.8,0.4,1.3c0,0-0.2,0.5-0.2,0.9c0,1.3,1,2.3,2.3,2.3h0.1c0.4,0,0.7,0.3,0.8,0.8c0,0,0.2,1,0.2,1.8
			c0,0.8-0.2,1.7-0.2,1.8c-0.1,0.5-0.4,0.8-0.8,0.8h-0.1c-1.3,0-2.3,1.1-2.3,2.3c0,0.4,0.2,0.9,0.2,0.9c0.2,0.4,0,1-0.4,1.3l0,0
			l-2.3,1.3l0,0C-57.5,22.5-57.7,22.5-57.8,22.5L-57.8,22.5z M-57.9,21.4C-57.9,21.4-57.8,21.4-57.9,21.4L-57.9,21.4l2.2-1.2
			c-0.1-0.1-0.3-0.7-0.3-1.3c0-1.8,1.4-3.3,3.2-3.4c0-0.1,0.2-0.9,0.2-1.5c0-0.6-0.1-1.4-0.2-1.5c-1.8-0.1-3.2-1.6-3.2-3.4
			c0-0.6,0.2-1.2,0.3-1.3l-2.1-1.2c0,0,0,0,0,0c0,0-0.1,0-0.1,0c0,0-0.3,0.3-0.8,0.7c-0.6,0.5-1.3,0.7-1.8,0.7
			c-0.6,0-1.2-0.2-1.8-0.7c-0.4-0.3-0.7-0.6-0.8-0.7c0,0,0,0-0.1,0c0,0,0,0,0,0l-2.2,1.2c0.1,0.1,0.3,0.7,0.3,1.3
			c0,1.8-1.4,3.3-3.2,3.4c0,0.1-0.2,0.9-0.2,1.5c0,0.6,0.1,1.4,0.2,1.5c1.8,0.1,3.2,1.6,3.2,3.4c0,0.6-0.2,1.2-0.3,1.3l2.1,1.2
			c0,0,0,0,0,0c0,0,0.1,0,0.1,0c0,0,0.3-0.4,0.8-0.7c0.7-0.5,1.3-0.7,1.9-0.7c0.6,0,1.2,0.3,1.9,0.7C-58.2,21-57.9,21.4-57.9,21.4
			L-57.9,21.4z M-60.5,17.1c-1.7,0-3.1-1.4-3.1-3.1c0-1.7,1.4-3.1,3.1-3.1c1.7,0,3.1,1.4,3.1,3.1C-57.4,15.7-58.8,17.1-60.5,17.1
			L-60.5,17.1z M-60.5,11.9c-1.1,0-2.1,0.9-2.1,2.1c0,1.1,0.9,2.1,2.1,2.1s2.1-0.9,2.1-2.1C-58.5,12.9-59.4,11.9-60.5,11.9
			L-60.5,11.9z M-60.5,11.9"/>
	</g>
</g>
<g>
	<g>
		<path class="st4" d="M-30.5,14.3c-0.5,0-0.8-0.4-0.8-0.8V4.8c0-0.5,0.4-0.8,0.8-0.8c0.5,0,0.8,0.4,0.8,0.8v8.6
			C-29.6,13.9-30,14.3-30.5,14.3L-30.5,14.3z M-30.5,24c-2.4,0-4.7-0.9-6.4-2.6c-2-2-3-4.9-2.5-7.7c0.4-2.8,2.2-5.3,4.7-6.6l0.1,0
			c0.3-0.1,0.6,0,0.8,0.3c0.2,0.3,0.1,0.6-0.1,0.8l0,0h0c0,0-0.1,0-0.1,0.1c-2.6,1.5-4.2,4.2-4.2,6.8c0,4,3.8,7.8,7.8,7.8
			c4,0,7.8-3.8,7.8-7.8c0-2.7-1.7-5.4-4.3-6.9v0L-27,8c-0.2-0.2-0.3-0.5-0.1-0.8c0.2-0.3,0.5-0.4,0.8-0.3h0c0.1,0,0.1,0,0.2,0.1h0
			c2.5,1.4,4.2,3.8,4.6,6.6c0.4,2.8-0.5,5.7-2.5,7.7C-25.8,23-28.1,24-30.5,24L-30.5,24z M-30.5,24"/>
	</g>
</g>
<g>
	<g>
		<path class="st5" d="M-30.5-15.7c-0.5,0-0.8-0.4-0.8-0.8v-8.6c0-0.5,0.4-0.8,0.8-0.8c0.5,0,0.8,0.4,0.8,0.8v8.6
			C-29.6-16.1-30-15.7-30.5-15.7L-30.5-15.7z M-30.5-6c-2.4,0-4.7-0.9-6.4-2.6c-2-2-3-4.9-2.5-7.7c0.4-2.8,2.2-5.3,4.7-6.6l0.1,0
			c0.3-0.1,0.6,0,0.8,0.3c0.2,0.3,0.1,0.6-0.1,0.8l0,0h0c0,0-0.1,0-0.1,0.1c-2.6,1.5-4.2,4.2-4.2,6.8c0,4,3.8,7.8,7.8,7.8
			c4,0,7.8-3.8,7.8-7.8c0-2.7-1.7-5.4-4.3-6.9v0L-27-22c-0.2-0.2-0.3-0.5-0.1-0.8c0.2-0.3,0.5-0.4,0.8-0.3h0c0.1,0,0.1,0,0.2,0.1h0
			c2.5,1.4,4.2,3.8,4.6,6.6c0.4,2.8-0.5,5.7-2.5,7.7C-25.8-7-28.1-6-30.5-6L-30.5-6z M-30.5-6"/>
	</g>
</g>
<line class="st9" x1="24.8" y1="-5.9" x2="40.6" y2="-5.9"/>
<line class="st9" x1="24.8" y1="-11.9" x2="40.6" y2="-11.9"/>
<line class="st9" x1="24.8" y1="-17.9" x2="40.6" y2="-17.9"/>
<path class="st10" d="M5.6-4.9c0-10,8-18.1,18-18.1"/>
<ellipse class="st11" cx="23.6" cy="-34" rx="10.9" ry="11"/>
<g>
	<line class="st12" x1="18.1" y1="12.1" x2="23.1" y2="12.1"/>
	<g>
		<g>
			<defs>
				<rect id="SVGID_1_" x="3.1" y="2.6" width="40" height="40"/>
			</defs>
			<clipPath id="SVGID_2_">
				<use xlink:href="#SVGID_1_"  style="overflow:visible;"/>
			</clipPath>
			<path class="st13" d="M41.7,39.8h-1.8V18c0-1.8-1.4-3.2-3.2-3.2h-8.4V5.9c0-1.8-1.5-3.3-3.3-3.3H9.3C7.5,2.6,6,4,6,5.9v33.9H4.4
				c-0.8,0-1.4,0.6-1.4,1.4c0,0.8,0.6,1.4,1.4,1.4h37.2c0.8,0,1.4-0.6,1.4-1.4C43.1,40.4,42.5,39.8,41.7,39.8L41.7,39.8z M25.4,39.8
				H8.7V6.4c0-0.6,0.5-1.1,1.1-1.1h14.5c0.6,0,1.1,0.5,1.1,1.1V39.8z M37.1,39.8h-8.9V17.5h7.6c0.7,0,1.3,0.6,1.3,1.3V39.8z
				 M37.1,39.8"/>
		</g>
	</g>
	<line class="st12" x1="11.1" y1="29.1" x2="16.1" y2="29.1"/>
	<line class="st12" x1="30.1" y1="33.1" x2="35.1" y2="33.1"/>
	<line class="st12" x1="30.1" y1="25.1" x2="35.1" y2="25.1"/>
	<line class="st12" x1="18.1" y1="29.1" x2="23.1" y2="29.1"/>
	<line class="st12" x1="11.1" y1="12.1" x2="16.1" y2="12.1"/>
	<line class="st12" x1="11.1" y1="21.1" x2="16.1" y2="21.1"/>
	<line class="st12" x1="18.1" y1="21.1" x2="23.1" y2="21.1"/>
</g>
</svg>
