<?xml version="1.0" encoding="utf-8"?>
<!-- Generator: Adobe Illustrator 21.0.0, SVG Export Plug-In . SVG Version: 6.00 Build 0)  -->
<svg version="1.1" id="图层_1" xmlns="http://www.w3.org/2000/svg" xmlns:xlink="http://www.w3.org/1999/xlink" x="0px" y="0px"
	 viewBox="0 0 32 96" style="enable-background:new 0 0 32 96;" xml:space="preserve">
<style type="text/css">
	.st0{clip-path:url(#SVGID_2_);fill:none;stroke:#777F99;stroke-linejoin:bevel;stroke-miterlimit:10;}
	.st1{clip-path:url(#SVGID_4_);fill:none;stroke:#4488EE;stroke-linejoin:bevel;stroke-miterlimit:10;}
	.st2{clip-path:url(#SVGID_6_);fill:#4488EE;stroke:#4488EE;stroke-miterlimit:10;}
</style>
<g>
	<defs>
		<rect id="SVGID_1_" x="4" y="4.7" width="24" height="23.3"/>
	</defs>
	<clipPath id="SVGID_2_">
		<use xlink:href="#SVGID_1_"  style="overflow:visible;"/>
	</clipPath>
	<path class="st0" d="M27,13.1c-1.9,0.4-3.1,0-3.7-1c-0.5-0.9-0.3-2.2,1-3.6c-1.5-1.6-3.5-2.8-5.7-3.3C18,7,17.1,7.8,16,7.8
		S14,7,13.3,5.2c-2.2,0.5-4.2,1.7-5.7,3.3c1.3,1.5,1.5,2.7,1,3.6c-0.5,0.9-1.7,1.4-3.7,1c-0.3,1-0.5,2.1-0.5,3.3s0.2,2.2,0.5,3.3
		c1.9-0.4,3.1,0,3.7,1c0.5,0.9,0.3,2.2-1,3.6c1.5,1.6,3.5,2.8,5.7,3.3c0.6-1.9,1.6-2.7,2.7-2.7s2,0.8,2.7,2.7
		c2.2-0.5,4.2-1.7,5.7-3.3c-1.3-1.5-1.5-2.7-1-3.6c0.5-0.9,1.7-1.4,3.7-1c0.3-1,0.5-2.1,0.5-3.3S27.3,14.1,27,13.1z M16,20.8
		c-2.5,0-4.5-2-4.5-4.5s2-4.5,4.5-4.5s4.5,2,4.5,4.5S18.5,20.8,16,20.8z"/>
</g>
<g>
	<defs>
		<rect id="SVGID_3_" x="4" y="36" width="24" height="23.3"/>
	</defs>
	<clipPath id="SVGID_4_">
		<use xlink:href="#SVGID_3_"  style="overflow:visible;"/>
	</clipPath>
	<path class="st1" d="M27,44.4c-1.9,0.4-3.1,0-3.7-1c-0.5-0.9-0.3-2.2,1-3.6c-1.5-1.6-3.5-2.8-5.7-3.3c-0.6,1.9-1.6,2.7-2.7,2.7
		s-2-0.8-2.7-2.7c-2.2,0.5-4.2,1.7-5.7,3.3c1.3,1.5,1.5,2.7,1,3.6c-0.5,0.9-1.7,1.4-3.7,1c-0.3,1-0.5,2.1-0.5,3.3s0.2,2.2,0.5,3.3
		c1.9-0.4,3.1,0,3.7,1c0.5,0.9,0.3,2.2-1,3.6c1.5,1.6,3.5,2.8,5.7,3.3c0.6-1.9,1.6-2.7,2.7-2.7s2,0.8,2.7,2.7
		c2.2-0.5,4.2-1.7,5.7-3.3c-1.3-1.5-1.5-2.7-1-3.6c0.5-0.9,1.7-1.4,3.7-1c0.3-1,0.5-2.1,0.5-3.3S27.3,45.4,27,44.4z M16,52.2
		c-2.5,0-4.5-2-4.5-4.5s2-4.5,4.5-4.5s4.5,2,4.5,4.5S18.5,52.2,16,52.2z"/>
</g>
<g>
	<defs>
		<rect id="SVGID_5_" x="4" y="68" width="24" height="23.3"/>
	</defs>
	<clipPath id="SVGID_6_">
		<use xlink:href="#SVGID_5_"  style="overflow:visible;"/>
	</clipPath>
	<path class="st2" d="M27,76.4c-1.9,0.4-3.1,0-3.7-1c-0.5-0.9-0.3-2.2,1-3.6c-1.5-1.6-3.5-2.8-5.7-3.3c-0.6,1.9-1.6,2.7-2.7,2.7
		s-2-0.8-2.7-2.7c-2.2,0.5-4.2,1.7-5.7,3.3c1.3,1.5,1.5,2.7,1,3.6c-0.5,0.9-1.7,1.4-3.7,1c-0.3,1-0.5,2.1-0.5,3.3s0.2,2.2,0.5,3.3
		c1.9-0.4,3.1,0,3.7,1c0.5,0.9,0.3,2.2-1,3.6c1.5,1.6,3.5,2.8,5.7,3.3c0.6-1.9,1.6-2.7,2.7-2.7s2,0.8,2.7,2.7
		c2.2-0.5,4.2-1.7,5.7-3.3c-1.3-1.5-1.5-2.7-1-3.6c0.5-0.9,1.7-1.4,3.7-1c0.3-1,0.5-2.1,0.5-3.3S27.3,77.4,27,76.4z M16,84.2
		c-2.5,0-4.5-2-4.5-4.5s2-4.5,4.5-4.5s4.5,2,4.5,4.5S18.5,84.2,16,84.2z"/>
</g>
</svg>
