<?xml version="1.0" encoding="utf-8"?>
<!-- Generator: Adobe Illustrator 21.0.0, SVG Export Plug-In . SVG Version: 6.00 Build 0)  -->
<svg version="1.1" id="图层_1" xmlns="http://www.w3.org/2000/svg" xmlns:xlink="http://www.w3.org/1999/xlink" x="0px" y="0px"
	 viewBox="0 0 30 110" style="enable-background:new 0 0 30 110;" xml:space="preserve">
<style type="text/css">
	.st0{fill:#777F99;}
	.st1{fill:#4488EE;}
	.st2{fill:#36CCB6;}
	.st3{fill:#F4952F;}
	.st4{fill:#3B95E0;}
	.st5{fill:#1A77FF;}
	.st6{fill:none;stroke:#1A77FF;stroke-miterlimit:10;}
	.st7{fill:none;stroke:#777F99;stroke-width:2;stroke-miterlimit:10;}
	.st8{fill:none;stroke:#4488EE;stroke-width:2;stroke-miterlimit:10;}
</style>
<g>
	<path class="st0" d="M-174.5,5h-21c-1.4,0-2.5,1.1-2.5,2.5v15c0,1.4,1.1,2.5,2.5,2.5h21c1.4,0,2.5-1.1,2.5-2.5v-15
		C-172,6.1-173.1,5-174.5,5z M-173,22.5c0,0.8-0.7,1.5-1.5,1.5h-21c-0.8,0-1.5-0.7-1.5-1.5v-15c0-0.8,0.7-1.5,1.5-1.5h21
		c0.8,0,1.5,0.7,1.5,1.5V22.5z"/>
	<path class="st0" d="M-185,12.7l-3.1-0.5l-1.4-2.8h-0.9l-1.4,2.8l-3.1,0.5l-0.3,0.9l2.3,2.2l-0.5,3.1l0.7,0.5l2.8-1.5l2.8,1.5
		l0.7-0.5l-0.5-3.1l2.3-2.2L-185,12.7z M-187.9,15.3l-0.1,0.4l0.4,2.4l-2.1-1.1h-0.5l-2.1,1.1l0.4-2.4l-0.1-0.4l-1.7-1.7l2.4-0.3
		l0.4-0.3l1.1-2.2l1.1,2.2l0.4,0.3l2.4,0.3L-187.9,15.3z"/>
	<rect x="-183" y="10" class="st0" width="4.5" height="1"/>
	<rect x="-183" y="13" class="st0" width="8" height="1"/>
	<rect x="-183" y="16" class="st0" width="8" height="1"/>
	<rect x="-183" y="19" class="st0" width="8" height="1"/>
</g>
<g>
	<path class="st0" d="M-134,8.1V7.5c0-0.7-0.4-1.2-1-1.4V5.5c0-0.8-0.7-1.5-1.5-1.5h-17c-0.8,0-1.5,0.7-1.5,1.5v0.6
		c-0.6,0.2-1,0.8-1,1.4v0.6c-0.6,0.2-1,0.8-1,1.4v14c0,0.8,0.7,1.5,1.5,1.5h21c0.8,0,1.5-0.7,1.5-1.5v-14
		C-133,8.8-133.4,8.3-134,8.1z M-153.5,5h17c0.3,0,0.5,0.2,0.5,0.5V6h-18V5.5C-154,5.2-153.8,5-153.5,5z M-154.5,7h19
		c0.3,0,0.5,0.2,0.5,0.5V8h-20V7.5C-155,7.2-154.8,7-154.5,7z M-134,23.5c0,0.3-0.2,0.5-0.5,0.5h-21c-0.3,0-0.5-0.2-0.5-0.5v-14
		c0-0.3,0.2-0.5,0.5-0.5h21c0.3,0,0.5,0.2,0.5,0.5V23.5z"/>
	<path class="st0" d="M-151.5,15l-0.5,0.5v5l0.5,0.5h3l0.5-0.5v-5l-0.5-0.5H-151.5z M-149,20h-2v-4h2V20z"/>
	<path class="st0" d="M-141.5,13l-0.5,0.5v7l0.5,0.5h3l0.5-0.5v-7l-0.5-0.5H-141.5z M-139,20h-2v-6h2V20z"/>
	<path class="st0" d="M-146.5,11l-0.5,0.5v9l0.5,0.5h3l0.5-0.5v-9l-0.5-0.5H-146.5z M-144,20h-2v-8h2V20z"/>
</g>
<g>
	<rect x="-71" y="26" class="st0" width="13" height="1"/>
	<path class="st0" d="M-53.5,5h-23C-77.3,5-78,5.7-78,6.5v16c0,0.8,0.7,1.5,1.5,1.5h23c0.8,0,1.5-0.7,1.5-1.5v-16
		C-52,5.7-52.7,5-53.5,5z M-53,22.5c0,0.3-0.2,0.5-0.5,0.5h-23c-0.3,0-0.5-0.2-0.5-0.5v-16c0-0.3,0.2-0.5,0.5-0.5h23
		c0.3,0,0.5,0.2,0.5,0.5V22.5z"/>
	<path class="st0" d="M-69,9.5v10l0.7,0.4l9-5v-0.9l-9-5L-69,9.5z M-68,10.3l7.5,4.2l-7.5,4.2V10.3z"/>
</g>
<g>
	<path class="st0" d="M-96.5,4H-99V3.5c0-0.8-0.7-1.5-1.5-1.5h-9c-0.8,0-1.5,0.7-1.5,1.5V4h-2.5c-1.4,0-2.5,1.1-2.5,2.5v19
		c0,1.4,1.1,2.5,2.5,2.5h17c1.4,0,2.5-1.1,2.5-2.5v-19C-94,5.1-95.1,4-96.5,4z M-110,3.5c0-0.3,0.2-0.5,0.5-0.5h9
		c0.3,0,0.5,0.2,0.5,0.5v1V5h-10V4.5V3.5z M-95,25.5c0,0.8-0.7,1.5-1.5,1.5h-17c-0.8,0-1.5-0.7-1.5-1.5v-19c0-0.8,0.7-1.5,1.5-1.5
		h2.5v0.5l0.5,0.5h11l0.5-0.5V5h2.5c0.8,0,1.5,0.7,1.5,1.5V25.5z"/>
	<path class="st0" d="M-105,17v-6.5l-0.5-0.5c-3.6,0.3-6.5,3.3-6.5,7c0,3.9,3.1,7,7,7c3.6,0,6.7-2.8,7-6.5l-0.5-0.5H-105z M-105,23
		c-3.3,0-6-2.7-6-6c0-2.9,2.2-5.4,5-5.9v6.4l0.5,0.5h6.4C-99.6,20.8-102.1,23-105,23z"/>
	<path class="st0" d="M-103.5,9l-0.5,0.5v6l0.5,0.5h6l0.5-0.5C-97.3,12.1-100.1,9.3-103.5,9z M-103,15v-4.9c2.5,0.4,4.5,2.4,4.9,4.9
		H-103z"/>
</g>
<path class="st0" d="M15,1C7.3,1,1,7.3,1,15s6.3,14,14,14s14-6.3,14-14S22.7,1,15,1z M6.3,24.6c0.1-0.1,0.3-0.2,0.4-0.3
	c0.8-0.5,1.6-0.8,2.5-1.2c0.7-0.3,1.5-0.6,2.2-1c0.5-0.3,1.1-0.6,1.2-1.4c0.3-1.4,0.3-2.3,0.3-2.6l-0.2-0.4
	c-0.2-0.2-0.4-0.4-0.5-0.7c-0.3-0.5-0.5-1.1-0.6-1.7L11.2,15c-0.2,0-0.3-0.3-0.4-0.4c-0.1-0.3-0.2-0.5-0.2-0.9
	c0-0.2,0.1-0.4,0.3-0.6l0.2-0.5c-0.2-1-0.5-2.1-0.4-3.3c0-0.7,0.2-1.4,0.5-1.9c0.2-0.5,0.5-0.9,1-1.2c0.8-0.5,1.8-0.8,3.1-0.8
	c0.7,0,1.3,0.1,1.7,0.4C17,6,17.1,6.1,17.2,6.3l0.3,0.2c0.5,0.1,1,0.3,1.3,0.6c0.6,0.5,0.8,1.3,0.8,1.8c0.1,1.1,0,2.3-0.5,3.8
	l0.2,0.6c0.2,0.1,0.3,0.4,0.2,0.6c0,0.5-0.2,0.8-0.3,1C19.2,14.9,19.1,15,19,15l-0.4,0.4c-0.1,0.6-0.3,1.2-0.6,1.8
	c-0.1,0.2-0.3,0.5-0.5,0.6l-0.2,0.4c0,0.3,0,1.2,0.3,2.6c0.1,0.7,0.7,1.1,1.2,1.4l0,0c0.7,0.4,1.4,0.7,2.2,1
	c0.9,0.3,1.7,0.7,2.5,1.2c0.1,0.1,0.2,0.1,0.3,0.2C21.5,26.7,18.4,28,15,28C11.6,28,8.6,26.7,6.3,24.6z M24.5,23.8
	c-0.2-0.1-0.3-0.2-0.5-0.3c-0.8-0.6-1.8-0.9-2.7-1.3c-0.7-0.3-1.4-0.5-2-0.9c-0.5-0.3-0.7-0.5-0.7-0.7c-0.2-0.9-0.3-1.7-0.3-2.2
	c0.2-0.2,0.4-0.5,0.5-0.8c0.3-0.6,0.6-1.2,0.7-1.8c0.2-0.1,0.4-0.3,0.6-0.5c0.3-0.4,0.4-0.9,0.5-1.5c0.1-0.4-0.1-0.9-0.4-1.3
	c0.4-1.5,0.6-2.7,0.5-3.9C20.6,8,20.3,7,19.5,6.3c-0.4-0.4-1-0.7-1.6-0.8c-0.1-0.2-0.3-0.3-0.6-0.5c-0.6-0.3-1.3-0.5-2.2-0.5
	c-1.6,0-2.8,0.4-3.7,1c-0.6,0.4-1,0.9-1.3,1.6C9.8,7.7,9.6,8.5,9.5,9.4c0,1.2,0.2,2.4,0.4,3.3c-0.3,0.3-0.4,0.7-0.4,1.2
	c0,0.5,0.1,0.9,0.3,1.2c0.2,0.4,0.4,0.7,0.8,0.9c0.1,0.6,0.3,1.1,0.6,1.7c0.2,0.3,0.3,0.6,0.6,0.8c0,0.5-0.1,1.3-0.3,2.2
	c-0.1,0.3-0.3,0.4-0.7,0.7c-0.6,0.4-1.3,0.6-2,0.9c-0.9,0.4-1.8,0.7-2.7,1.3c-0.2,0.1-0.4,0.3-0.6,0.4C3.4,21.6,2,18.4,2,15
	C2,7.8,7.8,2,15,2s13,5.8,13,13C28,18.4,26.7,21.5,24.5,23.8z"/>
<path class="st0" d="M15,41C7.3,41,1,47.3,1,55s6.3,14,14,14s14-6.3,14-14S22.7,41,15,41z M15,68c-3.7,0-7.1-1.6-9.4-4.1
	c0.2-0.1,0.4-0.3,0.6-0.4c0.8-0.6,1.8-0.9,2.7-1.3c0.7-0.3,1.4-0.5,2-0.9c0.5-0.3,0.7-0.4,0.7-0.7c0.2-0.9,0.3-1.7,0.3-2.2
	c-0.3-0.3-0.5-0.6-0.6-0.8c-0.3-0.6-0.5-1.1-0.6-1.7c-0.3-0.2-0.6-0.5-0.8-0.9c-0.2-0.3-0.2-0.7-0.3-1.2c0-0.5,0.1-0.9,0.4-1.2
	c-0.2-0.9-0.5-2.1-0.4-3.3c0-0.9,0.2-1.6,0.5-2.3c0.3-0.6,0.7-1.1,1.3-1.6c0.9-0.6,2.1-1,3.7-1c0.9,0,1.7,0.2,2.2,0.5
	c0.2,0.1,0.4,0.3,0.6,0.5c0.7,0.1,1.2,0.4,1.6,0.8c0.8,0.7,1.1,1.8,1.2,2.5c0.1,1.2,0,2.4-0.5,3.9c0.3,0.3,0.4,0.8,0.4,1.3
	c-0.1,0.6-0.2,1.1-0.5,1.5c-0.2,0.2-0.4,0.4-0.6,0.5c-0.1,0.6-0.3,1.2-0.7,1.8c-0.1,0.3-0.3,0.5-0.5,0.8c0,0.5,0.1,1.3,0.3,2.2
	c0.1,0.3,0.3,0.4,0.7,0.7c0.6,0.4,1.3,0.6,2,0.9c0.9,0.4,1.8,0.7,2.7,1.3c0.2,0.1,0.3,0.2,0.5,0.3C22.1,66.4,18.8,68,15,68z"/>
<path class="st0" d="M-188,153h4l-7-9l-7,9h4c0,1.7,0,0.3,0,4c0,6,9,9,9,9s-3-4-3-9C-188,153.7-188,154.3-188,153z"/>
<path class="st0" d="M-182,157h-4l7,9l7-9h-4c0-1.7,0-0.3,0-4c0-6-9-9-9-9s3,4,3,9C-182,156.3-182,155.7-182,157z"/>
<path class="st1" d="M-188,193h4l-7-9l-7,9h4c0,1.7,0,0.3,0,4c0,6,9,9,9,9s-3-4-3-9C-188,193.7-188,194.3-188,193z"/>
<path class="st1" d="M-182,197h-4l7,9l7-9h-4c0-1.7,0-0.3,0-4c0-6-9-9-9-9s3,4,3,9C-182,196.3-182,195.7-182,197z"/>
<path class="st2" d="M-138,154h-10c-1.1,0-2-0.9-2-2v-5h14v5C-136,153.1-136.9,154-138,154z"/>
<path class="st2" d="M-146,144L-146,144c-0.6,0-1-0.4-1-1v-2c0-0.6,0.4-1,1-1l0,0c0.6,0,1,0.4,1,1v2C-145,143.6-145.4,144-146,144z"
	/>
<path class="st2" d="M-140,144L-140,144c-0.6,0-1-0.4-1-1v-2c0-0.6,0.4-1,1-1l0,0c0.6,0,1,0.4,1,1v2C-139,143.6-139.4,144-140,144z"
	/>
<path class="st2" d="M-138,141v2c0,1.1-0.9,2-2,2l0,0c-1.1,0-2-0.9-2-2v-2h-2v2c0,1.1-0.9,2-2,2l0,0c-1.1,0-2-0.9-2-2v-2h-1
	c-0.6,0-1,0.4-1,1v4h14v-4c0-0.6-0.4-1-1-1H-138z"/>
<path class="st3" d="M-138,170h-10c-1.1,0-2,0.9-2,2v10c0,1.1,0.9,2,2,2h10c1.1,0,2-0.9,2-2v-10C-136,170.9-136.9,170-138,170z
	 M-142,181h-5v-2h5V181z M-139,178h-8v-2h8V178z M-139,175h-8v-2h8V175z"/>
<g>
	<polygon class="st4" points="-144.2,208 -142.3,208 -141.8,206 -143.7,206 	"/>
	<path class="st4" d="M-138,200h-10c-1.1,0-2,0.9-2,2v10c0,1.1,0.9,2,2,2h10c1.1,0,2-0.9,2-2v-10C-136,200.9-136.9,200-138,200z
		 M-139,206h-0.7l-0.5,2h0.2c0.6,0,1,0.4,1,1s-0.4,1-1,1h-0.7l-0.3,1.2c-0.1,0.5-0.5,0.8-1,0.8c-0.1,0-0.2,0-0.2,0
		c-0.5-0.1-0.9-0.7-0.7-1.2l0.2-0.8h-1.9l-0.3,1.2c-0.1,0.5-0.5,0.8-1,0.8c-0.1,0-0.2,0-0.2,0c-0.5-0.1-0.9-0.7-0.7-1.2l0.2-0.8
		h-0.2c-0.6,0-1-0.4-1-1s0.4-1,1-1h0.7l0.5-2h-0.2c-0.6,0-1-0.4-1-1s0.4-1,1-1h0.7l0.3-1.2c0.1-0.5,0.7-0.9,1.2-0.7
		c0.5,0.1,0.9,0.7,0.7,1.2l-0.2,0.8h1.9l0.3-1.2c0.1-0.5,0.7-0.9,1.2-0.7c0.5,0.1,0.9,0.7,0.7,1.2l-0.2,0.8h0.2c0.6,0,1,0.4,1,1
		S-138.4,206-139,206z"/>
</g>
<polygon class="st5" points="-94,150 -94.7,149.2 -101,154.8 -101,142 -103,142 -103,154.8 -109.3,149.2 -110,150 -110,151.3 
	-102.7,157.8 -101.3,157.8 -94,151.3 "/>
<line class="st6" x1="-110" y1="187.5" x2="-94" y2="187.5"/>
<g>
	<polygon class="st5" points="-99,174 -106,181 -108,186 -103,184 -96,177 	"/>
	
		<rect x="-97.3" y="172.1" transform="matrix(0.7071 -0.7071 0.7071 0.7071 -151.4043 -17.0224)" class="st5" width="2.1" height="4.2"/>
</g>
<path class="st7" d="M-46,148h4c1.7,0,3,1.3,3,3v31c0,1.7-1.3,3-3,3h-26c-1.7,0-3-1.3-3-3v-31c0-1.7,1.3-3,3-3h4"/>
<path class="st7" d="M-46,151h-18v-5c0-1.1,0.9-2,2-2h14c1.1,0,2,0.9,2,2V151z"/>
<line class="st7" x1="-45" y1="163" x2="-65" y2="163"/>
<line class="st7" x1="-55" y1="158" x2="-65" y2="158"/>
<line class="st7" x1="-45" y1="168" x2="-65" y2="168"/>
<line class="st7" x1="-45" y1="173" x2="-65" y2="173"/>
<line class="st7" x1="-45" y1="178" x2="-65" y2="178"/>
<path class="st8" d="M-46,208h4c1.7,0,3,1.3,3,3v31c0,1.7-1.3,3-3,3h-26c-1.7,0-3-1.3-3-3v-31c0-1.7,1.3-3,3-3h4"/>
<path class="st8" d="M-46,211h-18v-5c0-1.1,0.9-2,2-2h14c1.1,0,2,0.9,2,2V211z"/>
<line class="st8" x1="-45" y1="223" x2="-65" y2="223"/>
<line class="st8" x1="-55" y1="218" x2="-65" y2="218"/>
<line class="st8" x1="-45" y1="228" x2="-65" y2="228"/>
<line class="st8" x1="-45" y1="233" x2="-65" y2="233"/>
<line class="st8" x1="-45" y1="238" x2="-65" y2="238"/>
<path class="st0" d="M-174.5,45h-21c-1.4,0-2.5,1.1-2.5,2.5v15c0,1.4,1.1,2.5,2.5,2.5h21c1.4,0,2.5-1.1,2.5-2.5v-15
	C-172,46.1-173.1,45-174.5,45z M-183,57v-1h8v1H-183z M-175,59v1h-8v-1H-175z M-183,54v-1h8v1H-183z M-183,51v-1h4.5v1H-183z
	 M-186.5,58.9l-0.7,0.5L-190,58l-2.8,1.5l-0.7-0.5l0.5-3.1l-2.3-2.2l0.3-0.9l3.1-0.5l1.4-2.8h0.9l1.4,2.8l3.1,0.5l0.3,0.9l-2.3,2.2
	L-186.5,58.9z"/>
<path class="st0" d="M-134,48.1v-0.6c0-0.7-0.4-1.2-1-1.4v-0.6c0-0.8-0.7-1.5-1.5-1.5h-17c-0.8,0-1.5,0.7-1.5,1.5v0.6
	c-0.6,0.2-1,0.8-1,1.4v0.6c-0.6,0.2-1,0.8-1,1.4v14c0,0.8,0.7,1.5,1.5,1.5h21c0.8,0,1.5-0.7,1.5-1.5v-14
	C-133,48.8-133.4,48.3-134,48.1z M-138,53.5v7l-0.5,0.5h-3l-0.5-0.5v-7l0.5-0.5h3L-138,53.5z M-143,51.5v9l-0.5,0.5h-3l-0.5-0.5v-9
	l0.5-0.5h3L-143,51.5z M-148,55.5v5l-0.5,0.5h-3l-0.5-0.5v-5l0.5-0.5h3L-148,55.5z M-153.5,45h17c0.3,0,0.5,0.2,0.5,0.5V46h-18v-0.5
	C-154,45.2-153.8,45-153.5,45z M-154.5,47h19c0.3,0,0.5,0.2,0.5,0.5V48h-20v-0.5C-155,47.2-154.8,47-154.5,47z"/>
<path class="st0" d="M-96.5,44H-99v-0.5c0-0.8-0.7-1.5-1.5-1.5h-9c-0.8,0-1.5,0.7-1.5,1.5V44h-2.5c-1.4,0-2.5,1.1-2.5,2.5v19
	c0,1.4,1.1,2.5,2.5,2.5h17c1.4,0,2.5-1.1,2.5-2.5v-19C-94,45.1-95.1,44-96.5,44z M-105.5,50l0.5,0.5V57h6.5l0.5,0.5
	c-0.3,3.6-3.3,6.5-7,6.5c-3.9,0-7-3.1-7-7C-112,53.4-109.2,50.3-105.5,50z M-103.5,56l-0.5-0.5v-6l0.5-0.5c3.4,0.3,6.2,3,6.4,6.4
	l-0.5,0.5H-103.5z M-110,43.5c0-0.3,0.2-0.5,0.5-0.5h9c0.3,0,0.5,0.2,0.5,0.5v1V45h-10v-0.5V43.5z"/>
<g>
	<rect x="-71" y="66" class="st0" width="13" height="1"/>
	<path class="st0" d="M-53.5,45h-23c-0.8,0-1.5,0.7-1.5,1.5v16c0,0.8,0.7,1.5,1.5,1.5h23c0.8,0,1.5-0.7,1.5-1.5v-16
		C-52,45.7-52.7,45-53.5,45z M-59.3,54.1v0.9l-9,5l-0.7-0.4v-10l0.7-0.4L-59.3,54.1z"/>
</g>
<path class="st1" d="M-174.5,85h-21c-1.4,0-2.5,1.1-2.5,2.5v15c0,1.4,1.1,2.5,2.5,2.5h21c1.4,0,2.5-1.1,2.5-2.5v-15
	C-172,86.1-173.1,85-174.5,85z M-183,97v-1h8v1H-183z M-175,99v1h-8v-1H-175z M-183,94v-1h8v1H-183z M-183,91v-1h4.5v1H-183z
	 M-186.5,98.9l-0.7,0.5L-190,98l-2.8,1.5l-0.7-0.5l0.5-3.1l-2.3-2.2l0.3-0.9l3.1-0.5l1.4-2.8h0.9l1.4,2.8l3.1,0.5l0.3,0.9l-2.3,2.2
	L-186.5,98.9z"/>
<path class="st1" d="M-134,88.1v-0.6c0-0.7-0.4-1.2-1-1.4v-0.6c0-0.8-0.7-1.5-1.5-1.5h-17c-0.8,0-1.5,0.7-1.5,1.5v0.6
	c-0.6,0.2-1,0.8-1,1.4v0.6c-0.6,0.2-1,0.8-1,1.4v14c0,0.8,0.7,1.5,1.5,1.5h21c0.8,0,1.5-0.7,1.5-1.5v-14
	C-133,88.8-133.4,88.3-134,88.1z M-138,93.5v7l-0.5,0.5h-3l-0.5-0.5v-7l0.5-0.5h3L-138,93.5z M-143,91.5v9l-0.5,0.5h-3l-0.5-0.5v-9
	l0.5-0.5h3L-143,91.5z M-148,95.5v5l-0.5,0.5h-3l-0.5-0.5v-5l0.5-0.5h3L-148,95.5z M-153.5,85h17c0.3,0,0.5,0.2,0.5,0.5V86h-18v-0.5
	C-154,85.2-153.8,85-153.5,85z M-154.5,87h19c0.3,0,0.5,0.2,0.5,0.5V88h-20v-0.5C-155,87.2-154.8,87-154.5,87z"/>
<path class="st1" d="M-96.5,84H-99v-0.5c0-0.8-0.7-1.5-1.5-1.5h-9c-0.8,0-1.5,0.7-1.5,1.5V84h-2.5c-1.4,0-2.5,1.1-2.5,2.5v19
	c0,1.4,1.1,2.5,2.5,2.5h17c1.4,0,2.5-1.1,2.5-2.5v-19C-94,85.1-95.1,84-96.5,84z M-105.5,90l0.5,0.5V97h6.5l0.5,0.5
	c-0.3,3.6-3.3,6.5-7,6.5c-3.9,0-7-3.1-7-7C-112,93.4-109.2,90.3-105.5,90z M-103.5,96l-0.5-0.5v-6l0.5-0.5c3.4,0.3,6.2,3,6.4,6.4
	l-0.5,0.5H-103.5z M-110,83.5c0-0.3,0.2-0.5,0.5-0.5h9c0.3,0,0.5,0.2,0.5,0.5v1V85h-10v-0.5V83.5z"/>
<g>
	<rect x="-71" y="106" class="st1" width="13" height="1"/>
	<path class="st1" d="M-53.5,85h-23c-0.8,0-1.5,0.7-1.5,1.5v16c0,0.8,0.7,1.5,1.5,1.5h23c0.8,0,1.5-0.7,1.5-1.5v-16
		C-52,85.7-52.7,85-53.5,85z M-59.3,94.1v0.9l-9,5l-0.7-0.4v-10l0.7-0.4L-59.3,94.1z"/>
</g>
<path class="st1" d="M15,81C7.3,81,1,87.3,1,95s6.3,14,14,14s14-6.3,14-14S22.7,81,15,81z M15,108c-3.7,0-7.1-1.6-9.4-4.1
	c0.2-0.1,0.4-0.3,0.6-0.4c0.8-0.6,1.8-0.9,2.7-1.3c0.7-0.3,1.4-0.5,2-0.9c0.5-0.3,0.7-0.4,0.7-0.7c0.2-0.9,0.3-1.7,0.3-2.2
	c-0.3-0.3-0.5-0.6-0.6-0.8c-0.3-0.6-0.5-1.1-0.6-1.7c-0.3-0.2-0.6-0.5-0.8-0.9c-0.2-0.3-0.2-0.7-0.3-1.2c0-0.5,0.1-0.9,0.4-1.2
	c-0.2-0.9-0.5-2.1-0.4-3.3c0-0.9,0.2-1.6,0.5-2.3c0.3-0.6,0.7-1.1,1.3-1.6c0.9-0.6,2.1-1,3.7-1c0.9,0,1.7,0.2,2.2,0.5
	c0.2,0.1,0.4,0.3,0.6,0.5c0.7,0.1,1.2,0.4,1.6,0.8c0.8,0.7,1.1,1.8,1.2,2.5c0.1,1.2,0,2.4-0.5,3.9c0.3,0.3,0.4,0.8,0.4,1.3
	c-0.1,0.6-0.2,1.1-0.5,1.5c-0.2,0.2-0.4,0.4-0.6,0.5c-0.1,0.6-0.3,1.2-0.7,1.8c-0.1,0.3-0.3,0.5-0.5,0.8c0,0.5,0.1,1.3,0.3,2.2
	c0.1,0.3,0.3,0.4,0.7,0.7c0.6,0.4,1.3,0.6,2,0.9c0.9,0.4,1.8,0.7,2.7,1.3c0.2,0.1,0.3,0.2,0.5,0.3C22.1,106.4,18.8,108,15,108z"/>
</svg>
