<?xml version="1.0" encoding="utf-8"?>
<!-- Generator: Adobe Illustrator 21.0.0, SVG Export Plug-In . SVG Version: 6.00 Build 0)  -->
<svg version="1.1" id="图层_1" xmlns="http://www.w3.org/2000/svg" xmlns:xlink="http://www.w3.org/1999/xlink" x="0px" y="0px"
	 viewBox="0 0 150 110" style="enable-background:new 0 0 150 110;" xml:space="preserve">
<style type="text/css">
	.st0{fill:#777F99;}
	.st1{fill:#4488EE;}
	.st2{fill:#36CCB6;}
	.st3{fill:#F4952F;}
	.st4{fill:#3B95E0;}
	.st5{fill:#1A77FF;}
	.st6{fill:none;stroke:#1A77FF;stroke-miterlimit:10;}
	.st7{fill:none;stroke:#777F99;stroke-width:2;stroke-miterlimit:10;}
	.st8{fill:none;stroke:#4488EE;stroke-width:2;stroke-miterlimit:10;}
</style>
<g>
	<path class="st0" d="M25.5,5h-21C3.1,5,2,6.1,2,7.5v15C2,23.9,3.1,25,4.5,25h21c1.4,0,2.5-1.1,2.5-2.5v-15C28,6.1,26.9,5,25.5,5z
		 M27,22.5c0,0.8-0.7,1.5-1.5,1.5h-21C3.7,24,3,23.3,3,22.5v-15C3,6.7,3.7,6,4.5,6h21C26.3,6,27,6.7,27,7.5V22.5z"/>
	<path class="st0" d="M15,12.7l-3.1-0.5l-1.4-2.8H9.6l-1.4,2.8L5,12.7l-0.3,0.9L7,15.8l-0.5,3.1l0.7,0.5L10,18l2.8,1.5l0.7-0.5
		L13,15.8l2.3-2.2L15,12.7z M12.1,15.3L12,15.7l0.4,2.4L10.2,17H9.8l-2.1,1.1L8,15.7l-0.1-0.4l-1.7-1.7l2.4-0.3L8.9,13l1.1-2.2
		l1.1,2.2l0.4,0.3l2.4,0.3L12.1,15.3z"/>
	<rect x="17" y="10" class="st0" width="4.5" height="1"/>
	<rect x="17" y="13" class="st0" width="8" height="1"/>
	<rect x="17" y="16" class="st0" width="8" height="1"/>
	<rect x="17" y="19" class="st0" width="8" height="1"/>
</g>
<g>
	<path class="st0" d="M66,8.1V7.5c0-0.7-0.4-1.2-1-1.4V5.5C65,4.7,64.3,4,63.5,4h-17C45.7,4,45,4.7,45,5.5v0.6c-0.6,0.2-1,0.8-1,1.4
		v0.6c-0.6,0.2-1,0.8-1,1.4v14c0,0.8,0.7,1.5,1.5,1.5h21c0.8,0,1.5-0.7,1.5-1.5v-14C67,8.8,66.6,8.3,66,8.1z M46.5,5h17
		C63.8,5,64,5.2,64,5.5V6H46V5.5C46,5.2,46.2,5,46.5,5z M45.5,7h19C64.8,7,65,7.2,65,7.5V8H45V7.5C45,7.2,45.2,7,45.5,7z M66,23.5
		c0,0.3-0.2,0.5-0.5,0.5h-21c-0.3,0-0.5-0.2-0.5-0.5v-14C44,9.2,44.2,9,44.5,9h21C65.8,9,66,9.2,66,9.5V23.5z"/>
	<path class="st0" d="M48.5,15L48,15.5v5l0.5,0.5h3l0.5-0.5v-5L51.5,15H48.5z M51,20h-2v-4h2V20z"/>
	<path class="st0" d="M58.5,13L58,13.5v7l0.5,0.5h3l0.5-0.5v-7L61.5,13H58.5z M61,20h-2v-6h2V20z"/>
	<path class="st0" d="M53.5,11L53,11.5v9l0.5,0.5h3l0.5-0.5v-9L56.5,11H53.5z M56,20h-2v-8h2V20z"/>
</g>
<g>
	<rect x="129" y="26" class="st0" width="13" height="1"/>
	<path class="st0" d="M146.5,5h-23c-0.8,0-1.5,0.7-1.5,1.5v16c0,0.8,0.7,1.5,1.5,1.5h23c0.8,0,1.5-0.7,1.5-1.5v-16
		C148,5.7,147.3,5,146.5,5z M147,22.5c0,0.3-0.2,0.5-0.5,0.5h-23c-0.3,0-0.5-0.2-0.5-0.5v-16c0-0.3,0.2-0.5,0.5-0.5h23
		c0.3,0,0.5,0.2,0.5,0.5V22.5z"/>
	<path class="st0" d="M131,9.5v10l0.7,0.4l9-5v-0.9l-9-5L131,9.5z M132,10.3l7.5,4.2l-7.5,4.2V10.3z"/>
</g>
<g>
	<path class="st0" d="M103.5,4H101V3.5c0-0.8-0.7-1.5-1.5-1.5h-9C89.7,2,89,2.7,89,3.5V4h-2.5C85.1,4,84,5.1,84,6.5v19
		c0,1.4,1.1,2.5,2.5,2.5h17c1.4,0,2.5-1.1,2.5-2.5v-19C106,5.1,104.9,4,103.5,4z M90,3.5C90,3.2,90.2,3,90.5,3h9
		c0.3,0,0.5,0.2,0.5,0.5v1V5H90V4.5V3.5z M105,25.5c0,0.8-0.7,1.5-1.5,1.5h-17c-0.8,0-1.5-0.7-1.5-1.5v-19C85,5.7,85.7,5,86.5,5H89
		v0.5L89.5,6h11l0.5-0.5V5h2.5c0.8,0,1.5,0.7,1.5,1.5V25.5z"/>
	<path class="st0" d="M95,17v-6.5L94.5,10c-3.6,0.3-6.5,3.3-6.5,7c0,3.9,3.1,7,7,7c3.6,0,6.7-2.8,7-6.5l-0.5-0.5H95z M95,23
		c-3.3,0-6-2.7-6-6c0-2.9,2.2-5.4,5-5.9v6.4l0.5,0.5h6.4C100.4,20.8,97.9,23,95,23z"/>
	<path class="st0" d="M96.5,9L96,9.5v6l0.5,0.5h6l0.5-0.5C102.7,12.1,99.9,9.3,96.5,9z M97,15v-4.9c2.5,0.4,4.5,2.4,4.9,4.9H97z"/>
</g>
<path class="st0" d="M215,1c-7.7,0-14,6.3-14,14s6.3,14,14,14s14-6.3,14-14S222.7,1,215,1z M206.3,24.6c0.1-0.1,0.3-0.2,0.4-0.3
	c0.8-0.5,1.6-0.8,2.5-1.2c0.7-0.3,1.5-0.6,2.2-1c0.5-0.3,1.1-0.6,1.2-1.4c0.3-1.4,0.3-2.3,0.3-2.6l-0.2-0.4
	c-0.2-0.2-0.4-0.4-0.5-0.7c-0.3-0.5-0.5-1.1-0.6-1.7l-0.4-0.4c-0.2,0-0.3-0.3-0.4-0.4c-0.1-0.3-0.2-0.5-0.2-0.9
	c0-0.2,0.1-0.4,0.3-0.6l0.2-0.5c-0.2-1-0.5-2.1-0.4-3.3c0-0.7,0.2-1.4,0.5-1.9c0.2-0.5,0.5-0.9,1-1.2c0.8-0.5,1.8-0.8,3.1-0.8
	c0.7,0,1.3,0.1,1.7,0.4c0.2,0.1,0.3,0.2,0.4,0.4l0.3,0.2c0.5,0.1,1,0.3,1.3,0.6c0.6,0.5,0.8,1.3,0.8,1.8c0.1,1.1,0,2.3-0.5,3.8
	l0.2,0.6c0.2,0.1,0.3,0.4,0.2,0.6c0,0.5-0.2,0.8-0.3,1c-0.1,0.1-0.2,0.2-0.3,0.2l-0.4,0.4c-0.1,0.6-0.3,1.2-0.6,1.8
	c-0.1,0.2-0.3,0.5-0.5,0.6l-0.2,0.4c0,0.3,0,1.2,0.3,2.6c0.1,0.7,0.7,1.1,1.2,1.4l0,0c0.7,0.4,1.4,0.7,2.2,1
	c0.9,0.3,1.7,0.7,2.5,1.2c0.1,0.1,0.2,0.1,0.3,0.2c-2.3,2.1-5.4,3.5-8.8,3.5C211.6,28,208.6,26.7,206.3,24.6z M224.5,23.8
	c-0.2-0.1-0.3-0.2-0.5-0.3c-0.8-0.6-1.8-0.9-2.7-1.3c-0.7-0.3-1.4-0.5-2-0.9c-0.5-0.3-0.7-0.5-0.7-0.7c-0.2-0.9-0.3-1.7-0.3-2.2
	c0.2-0.2,0.4-0.5,0.5-0.8c0.3-0.6,0.6-1.2,0.7-1.8c0.2-0.1,0.4-0.3,0.6-0.5c0.3-0.4,0.4-0.9,0.5-1.5c0.1-0.4-0.1-0.9-0.4-1.3
	c0.4-1.5,0.6-2.7,0.5-3.9c-0.1-0.7-0.3-1.8-1.2-2.5c-0.4-0.4-1-0.7-1.6-0.8c-0.1-0.2-0.3-0.3-0.6-0.5c-0.6-0.3-1.3-0.5-2.2-0.5
	c-1.6,0-2.8,0.4-3.7,1c-0.6,0.4-1,0.9-1.3,1.6c-0.3,0.7-0.5,1.4-0.5,2.3c0,1.2,0.2,2.4,0.4,3.3c-0.3,0.3-0.4,0.7-0.4,1.2
	c0,0.5,0.1,0.9,0.3,1.2c0.2,0.4,0.4,0.7,0.8,0.9c0.1,0.6,0.3,1.1,0.6,1.7c0.2,0.3,0.3,0.6,0.6,0.8c0,0.5-0.1,1.3-0.3,2.2
	c-0.1,0.3-0.3,0.4-0.7,0.7c-0.6,0.4-1.3,0.6-2,0.9c-0.9,0.4-1.8,0.7-2.7,1.3c-0.2,0.1-0.4,0.3-0.6,0.4c-2.2-2.3-3.6-5.5-3.6-8.9
	c0-7.2,5.8-13,13-13s13,5.8,13,13C228,18.4,226.7,21.5,224.5,23.8z"/>
<path class="st0" d="M215,41c-7.7,0-14,6.3-14,14s6.3,14,14,14s14-6.3,14-14S222.7,41,215,41z M215,68c-3.7,0-7.1-1.6-9.4-4.1
	c0.2-0.1,0.4-0.3,0.6-0.4c0.8-0.6,1.8-0.9,2.7-1.3c0.7-0.3,1.4-0.5,2-0.9c0.5-0.3,0.7-0.4,0.7-0.7c0.2-0.9,0.3-1.7,0.3-2.2
	c-0.3-0.3-0.5-0.6-0.6-0.8c-0.3-0.6-0.5-1.1-0.6-1.7c-0.3-0.2-0.6-0.5-0.8-0.9c-0.2-0.3-0.2-0.7-0.3-1.2c0-0.5,0.1-0.9,0.4-1.2
	c-0.2-0.9-0.5-2.1-0.4-3.3c0-0.9,0.2-1.6,0.5-2.3c0.3-0.6,0.7-1.1,1.3-1.6c0.9-0.6,2.1-1,3.7-1c0.9,0,1.7,0.2,2.2,0.5
	c0.2,0.1,0.4,0.3,0.6,0.5c0.7,0.1,1.2,0.4,1.6,0.8c0.8,0.7,1.1,1.8,1.2,2.5c0.1,1.2,0,2.4-0.5,3.9c0.3,0.3,0.4,0.8,0.4,1.3
	c-0.1,0.6-0.2,1.1-0.5,1.5c-0.2,0.2-0.4,0.4-0.6,0.5c-0.1,0.6-0.3,1.2-0.7,1.8c-0.1,0.3-0.3,0.5-0.5,0.8c0,0.5,0.1,1.3,0.3,2.2
	c0.1,0.3,0.3,0.4,0.7,0.7c0.6,0.4,1.3,0.6,2,0.9c0.9,0.4,1.8,0.7,2.7,1.3c0.2,0.1,0.3,0.2,0.5,0.3C222.1,66.4,218.8,68,215,68z"/>
<path class="st0" d="M12,153h4l-7-9l-7,9h4c0,1.7,0,0.3,0,4c0,6,9,9,9,9s-3-4-3-9C12,153.7,12,154.3,12,153z"/>
<path class="st0" d="M18,157h-4l7,9l7-9h-4c0-1.7,0-0.3,0-4c0-6-9-9-9-9s3,4,3,9C18,156.3,18,155.7,18,157z"/>
<path class="st1" d="M12,193h4l-7-9l-7,9h4c0,1.7,0,0.3,0,4c0,6,9,9,9,9s-3-4-3-9C12,193.7,12,194.3,12,193z"/>
<path class="st1" d="M18,197h-4l7,9l7-9h-4c0-1.7,0-0.3,0-4c0-6-9-9-9-9s3,4,3,9C18,196.3,18,195.7,18,197z"/>
<path class="st2" d="M62,154H52c-1.1,0-2-0.9-2-2v-5h14v5C64,153.1,63.1,154,62,154z"/>
<path class="st2" d="M54,144L54,144c-0.5,0-1-0.4-1-1v-2c0-0.6,0.5-1,1-1l0,0c0.5,0,1,0.4,1,1v2C55,143.6,54.5,144,54,144z"/>
<path class="st2" d="M60,144L60,144c-0.5,0-1-0.4-1-1v-2c0-0.6,0.5-1,1-1l0,0c0.5,0,1,0.4,1,1v2C61,143.6,60.5,144,60,144z"/>
<path class="st2" d="M62,141v2c0,1.1-0.9,2-2,2h0c-1.1,0-2-0.9-2-2v-2h-2v2c0,1.1-0.9,2-2,2h0c-1.1,0-2-0.9-2-2v-2h-1
	c-0.6,0-1,0.4-1,1v4h14v-4c0-0.6-0.4-1-1-1H62z"/>
<path class="st3" d="M62,170H52c-1.1,0-2,0.9-2,2v10c0,1.1,0.9,2,2,2h10c1.1,0,2-0.9,2-2v-10C64,170.9,63.1,170,62,170z M58,181h-5
	v-2h5V181z M61,178h-8v-2h8V178z M61,175h-8v-2h8V175z"/>
<g>
	<polygon class="st4" points="55.8,208 57.7,208 58.2,206 56.3,206 	"/>
	<path class="st4" d="M62,200H52c-1.1,0-2,0.9-2,2v10c0,1.1,0.9,2,2,2h10c1.1,0,2-0.9,2-2v-10C64,200.9,63.1,200,62,200z M61,206
		h-0.7l-0.5,2H60c0.6,0,1,0.4,1,1s-0.4,1-1,1h-0.7l-0.3,1.2c-0.1,0.5-0.5,0.8-1,0.8c-0.1,0-0.2,0-0.2,0c-0.5-0.1-0.9-0.7-0.7-1.2
		l0.2-0.8h-1.9l-0.3,1.2c-0.1,0.5-0.5,0.8-1,0.8c-0.1,0-0.2,0-0.2,0c-0.5-0.1-0.9-0.7-0.7-1.2l0.2-0.8H53c-0.6,0-1-0.4-1-1
		s0.4-1,1-1h0.7l0.5-2H54c-0.6,0-1-0.4-1-1s0.4-1,1-1h0.7l0.3-1.2c0.1-0.5,0.7-0.9,1.2-0.7c0.5,0.1,0.9,0.7,0.7,1.2l-0.2,0.8h1.9
		l0.3-1.2c0.1-0.5,0.7-0.9,1.2-0.7c0.5,0.1,0.9,0.7,0.7,1.2l-0.2,0.8H61c0.6,0,1,0.4,1,1S61.6,206,61,206z"/>
</g>
<polygon class="st5" points="106,150 105.3,149.2 99,154.8 99,142 97,142 97,154.8 90.7,149.2 90,150 90,151.3 97.3,157.8 
	98.7,157.8 106,151.3 "/>
<line class="st6" x1="90" y1="187.5" x2="106" y2="187.5"/>
<g>
	<polygon class="st5" points="101,174 94,181 92,186 97,184 104,177 	"/>
	
		<rect x="102.7" y="172.1" transform="matrix(0.7071 -0.7071 0.7071 0.7071 -92.8257 124.399)" class="st5" width="2.1" height="4.2"/>
</g>
<path class="st7" d="M154,148h4c1.7,0,3,1.3,3,3v31c0,1.7-1.3,3-3,3h-26c-1.7,0-3-1.3-3-3v-31c0-1.7,1.3-3,3-3h4"/>
<path class="st7" d="M154,151h-18v-5c0-1.1,0.9-2,2-2h14c1.1,0,2,0.9,2,2V151z"/>
<line class="st7" x1="155" y1="163" x2="135" y2="163"/>
<line class="st7" x1="145" y1="158" x2="135" y2="158"/>
<line class="st7" x1="155" y1="168" x2="135" y2="168"/>
<line class="st7" x1="155" y1="173" x2="135" y2="173"/>
<line class="st7" x1="155" y1="178" x2="135" y2="178"/>
<path class="st8" d="M154,208h4c1.7,0,3,1.3,3,3v31c0,1.7-1.3,3-3,3h-26c-1.7,0-3-1.3-3-3v-31c0-1.7,1.3-3,3-3h4"/>
<path class="st8" d="M154,211h-18v-5c0-1.1,0.9-2,2-2h14c1.1,0,2,0.9,2,2V211z"/>
<line class="st8" x1="155" y1="223" x2="135" y2="223"/>
<line class="st8" x1="145" y1="218" x2="135" y2="218"/>
<line class="st8" x1="155" y1="228" x2="135" y2="228"/>
<line class="st8" x1="155" y1="233" x2="135" y2="233"/>
<line class="st8" x1="155" y1="238" x2="135" y2="238"/>
<path class="st0" d="M25.5,45h-21C3.1,45,2,46.1,2,47.5v15C2,63.9,3.1,65,4.5,65h21c1.4,0,2.5-1.1,2.5-2.5v-15
	C28,46.1,26.9,45,25.5,45z M17,57v-1h8v1H17z M25,59v1h-8v-1H25z M17,54v-1h8v1H17z M17,51v-1h4.5v1H17z M13.5,58.9l-0.7,0.5L10,58
	l-2.8,1.5l-0.7-0.5L7,55.8l-2.3-2.2L5,52.7l3.1-0.5l1.4-2.8h0.9l1.4,2.8l3.1,0.5l0.3,0.9L13,55.8L13.5,58.9z"/>
<path class="st0" d="M66,48.1v-0.6c0-0.7-0.4-1.2-1-1.4v-0.6c0-0.8-0.7-1.5-1.5-1.5h-17c-0.8,0-1.5,0.7-1.5,1.5v0.6
	c-0.6,0.2-1,0.8-1,1.4v0.6c-0.6,0.2-1,0.8-1,1.4v14c0,0.8,0.7,1.5,1.5,1.5h21c0.8,0,1.5-0.7,1.5-1.5v-14C67,48.8,66.6,48.3,66,48.1z
	 M62,53.5v7L61.5,61h-3L58,60.5v-7l0.5-0.5h3L62,53.5z M57,51.5v9L56.5,61h-3L53,60.5v-9l0.5-0.5h3L57,51.5z M52,55.5v5L51.5,61h-3
	L48,60.5v-5l0.5-0.5h3L52,55.5z M46.5,45h17c0.3,0,0.5,0.2,0.5,0.5V46H46v-0.5C46,45.2,46.2,45,46.5,45z M45.5,47h19
	c0.3,0,0.5,0.2,0.5,0.5V48H45v-0.5C45,47.2,45.2,47,45.5,47z"/>
<path class="st0" d="M103.5,44H101v-0.5c0-0.8-0.7-1.5-1.5-1.5h-9c-0.8,0-1.5,0.7-1.5,1.5V44h-2.5c-1.4,0-2.5,1.1-2.5,2.5v19
	c0,1.4,1.1,2.5,2.5,2.5h17c1.4,0,2.5-1.1,2.5-2.5v-19C106,45.1,104.9,44,103.5,44z M94.5,50l0.5,0.5V57h6.5l0.5,0.5
	c-0.3,3.6-3.3,6.5-7,6.5c-3.9,0-7-3.1-7-7C88,53.4,90.8,50.3,94.5,50z M96.5,56L96,55.5v-6l0.5-0.5c3.4,0.3,6.2,3,6.4,6.4l-0.5,0.5
	H96.5z M90,43.5c0-0.3,0.2-0.5,0.5-0.5h9c0.3,0,0.5,0.2,0.5,0.5v1V45H90v-0.5V43.5z"/>
<g>
	<rect x="129" y="66" class="st0" width="13" height="1"/>
	<path class="st0" d="M146.5,45h-23c-0.8,0-1.5,0.7-1.5,1.5v16c0,0.8,0.7,1.5,1.5,1.5h23c0.8,0,1.5-0.7,1.5-1.5v-16
		C148,45.7,147.3,45,146.5,45z M140.7,54.1v0.9l-9,5l-0.7-0.4v-10l0.7-0.4L140.7,54.1z"/>
</g>
<path class="st1" d="M25.5,85h-21C3.1,85,2,86.1,2,87.5v15c0,1.4,1.1,2.5,2.5,2.5h21c1.4,0,2.5-1.1,2.5-2.5v-15
	C28,86.1,26.9,85,25.5,85z M17,97v-1h8v1H17z M25,99v1h-8v-1H25z M17,94v-1h8v1H17z M17,91v-1h4.5v1H17z M13.5,98.9l-0.7,0.5L10,98
	l-2.8,1.5l-0.7-0.5L7,95.8l-2.3-2.2L5,92.7l3.1-0.5l1.4-2.8h0.9l1.4,2.8l3.1,0.5l0.3,0.9L13,95.8L13.5,98.9z"/>
<path class="st1" d="M66,88.1v-0.6c0-0.7-0.4-1.2-1-1.4v-0.6c0-0.8-0.7-1.5-1.5-1.5h-17c-0.8,0-1.5,0.7-1.5,1.5v0.6
	c-0.6,0.2-1,0.8-1,1.4v0.6c-0.6,0.2-1,0.8-1,1.4v14c0,0.8,0.7,1.5,1.5,1.5h21c0.8,0,1.5-0.7,1.5-1.5v-14C67,88.8,66.6,88.3,66,88.1z
	 M62,93.5v7l-0.5,0.5h-3l-0.5-0.5v-7l0.5-0.5h3L62,93.5z M57,91.5v9l-0.5,0.5h-3l-0.5-0.5v-9l0.5-0.5h3L57,91.5z M52,95.5v5
	l-0.5,0.5h-3l-0.5-0.5v-5l0.5-0.5h3L52,95.5z M46.5,85h17c0.3,0,0.5,0.2,0.5,0.5V86H46v-0.5C46,85.2,46.2,85,46.5,85z M45.5,87h19
	c0.3,0,0.5,0.2,0.5,0.5V88H45v-0.5C45,87.2,45.2,87,45.5,87z"/>
<path class="st1" d="M103.5,84H101v-0.5c0-0.8-0.7-1.5-1.5-1.5h-9c-0.8,0-1.5,0.7-1.5,1.5V84h-2.5c-1.4,0-2.5,1.1-2.5,2.5v19
	c0,1.4,1.1,2.5,2.5,2.5h17c1.4,0,2.5-1.1,2.5-2.5v-19C106,85.1,104.9,84,103.5,84z M94.5,90l0.5,0.5V97h6.5l0.5,0.5
	c-0.3,3.6-3.3,6.5-7,6.5c-3.9,0-7-3.1-7-7C88,93.4,90.8,90.3,94.5,90z M96.5,96L96,95.5v-6l0.5-0.5c3.4,0.3,6.2,3,6.4,6.4l-0.5,0.5
	H96.5z M90,83.5c0-0.3,0.2-0.5,0.5-0.5h9c0.3,0,0.5,0.2,0.5,0.5v1V85H90v-0.5V83.5z"/>
<g>
	<rect x="129" y="106" class="st1" width="13" height="1"/>
	<path class="st1" d="M146.5,85h-23c-0.8,0-1.5,0.7-1.5,1.5v16c0,0.8,0.7,1.5,1.5,1.5h23c0.8,0,1.5-0.7,1.5-1.5v-16
		C148,85.7,147.3,85,146.5,85z M140.7,94.1v0.9l-9,5l-0.7-0.4v-10l0.7-0.4L140.7,94.1z"/>
</g>
<path class="st1" d="M215,81c-7.7,0-14,6.3-14,14s6.3,14,14,14s14-6.3,14-14S222.7,81,215,81z M215,108c-3.7,0-7.1-1.6-9.4-4.1
	c0.2-0.1,0.4-0.3,0.6-0.4c0.8-0.6,1.8-0.9,2.7-1.3c0.7-0.3,1.4-0.5,2-0.9c0.5-0.3,0.7-0.4,0.7-0.7c0.2-0.9,0.3-1.7,0.3-2.2
	c-0.3-0.3-0.5-0.6-0.6-0.8c-0.3-0.6-0.5-1.1-0.6-1.7c-0.3-0.2-0.6-0.5-0.8-0.9c-0.2-0.3-0.2-0.7-0.3-1.2c0-0.5,0.1-0.9,0.4-1.2
	c-0.2-0.9-0.5-2.1-0.4-3.3c0-0.9,0.2-1.6,0.5-2.3c0.3-0.6,0.7-1.1,1.3-1.6c0.9-0.6,2.1-1,3.7-1c0.9,0,1.7,0.2,2.2,0.5
	c0.2,0.1,0.4,0.3,0.6,0.5c0.7,0.1,1.2,0.4,1.6,0.8c0.8,0.7,1.1,1.8,1.2,2.5c0.1,1.2,0,2.4-0.5,3.9c0.3,0.3,0.4,0.8,0.4,1.3
	c-0.1,0.6-0.2,1.1-0.5,1.5c-0.2,0.2-0.4,0.4-0.6,0.5c-0.1,0.6-0.3,1.2-0.7,1.8c-0.1,0.3-0.3,0.5-0.5,0.8c0,0.5,0.1,1.3,0.3,2.2
	c0.1,0.3,0.3,0.4,0.7,0.7c0.6,0.4,1.3,0.6,2,0.9c0.9,0.4,1.8,0.7,2.7,1.3c0.2,0.1,0.3,0.2,0.5,0.3C222.1,106.4,218.8,108,215,108z"
	/>
</svg>
