<?xml version="1.0" encoding="utf-8"?>
<!-- Generator: Adobe Illustrator 21.0.0, SVG Export Plug-In . SVG Version: 6.00 Build 0)  -->
<svg version="1.1" xmlns="http://www.w3.org/2000/svg" xmlns:xlink="http://www.w3.org/1999/xlink" x="0px" y="0px"
	 viewBox="0 0 18 18" style="enable-background:new 0 0 18 18;" xml:space="preserve">
<style type="text/css">
	.st0{display:none;}
	.st1{display:inline;}
	.st2{fill-rule:evenodd;clip-rule:evenodd;fill:#FFFFFF;}
	.st3{fill-rule:evenodd;clip-rule:evenodd;fill:none;stroke:#FFFFFF;stroke-linecap:round;stroke-miterlimit:10;}
</style>
<g id="BG" class="st0">
	<defs>
		<rect id="SVGID_1_" width="18" height="18"/>
	</defs>
	<use xlink:href="#SVGID_1_"  style="display:inline;overflow:visible;fill:#1177EE;"/>
	<clipPath id="SVGID_2_" class="st1">
		<use xlink:href="#SVGID_1_"  style="overflow:visible;"/>
	</clipPath>
</g>
<g id="Line" class="st0">
</g>
<g id="icon">
	<g>
		<path class="st2" d="M17.4,12.4L14,11c-0.4-0.2-0.8-0.1-1.1,0.2l-1.4,1.3c-0.3,0.3-0.8,0.3-1.2,0.1c-2.1-1.2-3.8-2.9-5-4.9
			C5.2,7.3,5.3,6.8,5.6,6.5L7,4.9C7.3,4.7,7.4,4.3,7.3,4L6.5,0.8C6.4,0.3,6,0,5.5,0h-4C0.6,0,0,0.7,0,1.5C0.4,9.6,8.5,17.7,16.6,18
			c0.4,0,0.7-0.1,1-0.4c0.3-0.3,0.4-0.6,0.4-1v-3.3C18,13,17.8,12.6,17.4,12.4L17.4,12.4L17.4,12.4z"/>
	</g>
	<path class="st3" d="M17.4,7.5c-0.7-3.4-3.4-6.1-6.9-6.9"/>
	<path class="st3" d="M15,7.9c-0.6-2.4-2.5-4.3-4.9-4.9"/>
	<path class="st3" d="M12.5,8.4c-0.4-1.4-1.5-2.5-2.9-2.9"/>
</g>
</svg>
