<?xml version="1.0" encoding="utf-8"?>
<!-- Generator: Adobe Illustrator 19.0.0, SVG Export Plug-In . SVG Version: 6.00 Build 0)  -->
<svg version="1.1" id="隔离模式" xmlns="http://www.w3.org/2000/svg" xmlns:xlink="http://www.w3.org/1999/xlink" x="0px"
	 y="0px" viewBox="0 0 20 20" style="enable-background:new 0 0 20 20;" xml:space="preserve">
<style type="text/css">
	.st0{opacity:0.65;}
	.st1{opacity:0.35;}
	.st2{opacity:0.6;}
	.st3{opacity:0.3;}
	.st4{opacity:0.55;}
	.st5{opacity:0.25;}
	.st6{opacity:0.5;}
	.st7{opacity:0.2;}
	.st8{opacity:0.45;}
	.st9{opacity:0.15;}
	.st10{opacity:0.4;}
	.st11{opacity:0.1;}
</style>
<path class="st0" d="M10,5C9.4,5,9,4.6,9,4V1c0-0.6,0.4-1,1-1s1,0.4,1,1v3C11,4.6,10.6,5,10,5z"/>
<path class="st1" d="M10,20c-0.6,0-1-0.4-1-1v-3c0-0.6,0.4-1,1-1s1,0.4,1,1v3C11,19.6,10.6,20,10,20z"/>
<path class="st2" d="M7,5.8c-0.3,0-0.7-0.2-0.9-0.5L4.6,2.7C4.4,2.2,4.5,1.6,5,1.3c0.5-0.3,1.1-0.1,1.4,0.4l1.5,2.6
	C8.1,4.8,8,5.4,7.5,5.7C7.3,5.8,7.2,5.8,7,5.8z"/>
<path class="st3" d="M14.5,18.8c-0.3,0-0.7-0.2-0.9-0.5l-1.5-2.6c-0.3-0.5-0.1-1.1,0.4-1.4c0.5-0.3,1.1-0.1,1.4,0.4l1.5,2.6
	c0.3,0.5,0.1,1.1-0.4,1.4C14.8,18.8,14.7,18.8,14.5,18.8z"/>
<path class="st4" d="M4.8,8C4.6,8,4.5,8,4.3,7.9L1.7,6.4C1.2,6.1,1.1,5.5,1.3,5s0.9-0.6,1.4-0.4l2.6,1.5C5.8,6.4,5.9,7,5.7,7.5
	C5.5,7.8,5.1,8,4.8,8z"/>
<path class="st5" d="M17.8,15.5c-0.2,0-0.3,0-0.5-0.1l-2.6-1.5c-0.5-0.3-0.6-0.9-0.4-1.4c0.3-0.5,0.9-0.6,1.4-0.4l2.6,1.5
	c0.5,0.3,0.6,0.9,0.4,1.4C18.5,15.3,18.1,15.5,17.8,15.5z"/>
<path class="st6" d="M4,11H1c-0.6,0-1-0.4-1-1s0.4-1,1-1h3c0.6,0,1,0.4,1,1S4.6,11,4,11z"/>
<path class="st7" d="M19,11h-3c-0.6,0-1-0.4-1-1s0.4-1,1-1h3c0.6,0,1,0.4,1,1S19.6,11,19,11z"/>
<path class="st8" d="M2.2,15.5c-0.3,0-0.7-0.2-0.9-0.5c-0.3-0.5-0.1-1.1,0.4-1.4l2.6-1.5c0.5-0.3,1.1-0.1,1.4,0.4s0.1,1.1-0.4,1.4
	l-2.6,1.5C2.5,15.5,2.4,15.5,2.2,15.5z"/>
<path class="st9" d="M15.2,8c-0.3,0-0.7-0.2-0.9-0.5c-0.3-0.5-0.1-1.1,0.4-1.4l2.6-1.5c0.5-0.3,1.1-0.1,1.4,0.4
	c0.3,0.5,0.1,1.1-0.4,1.4l-2.6,1.5C15.5,8,15.4,8,15.2,8z"/>
<path class="st10" d="M5.5,18.8c-0.2,0-0.3,0-0.5-0.1c-0.5-0.3-0.6-0.9-0.4-1.4l1.5-2.6c0.3-0.5,0.9-0.6,1.4-0.4
	c0.5,0.3,0.6,0.9,0.4,1.4l-1.5,2.6C6.2,18.6,5.8,18.8,5.5,18.8z"/>
<path class="st11" d="M13,5.8c-0.2,0-0.3,0-0.5-0.1c-0.5-0.3-0.6-0.9-0.4-1.4l1.5-2.6c0.3-0.5,0.9-0.6,1.4-0.4
	c0.5,0.3,0.6,0.9,0.4,1.4l-1.5,2.6C13.7,5.6,13.3,5.8,13,5.8z"/>
</svg>
