<?xml version="1.0" encoding="utf-8"?>
<!-- Generator: Adobe Illustrator 19.0.0, SVG Export Plug-In . SVG Version: 6.00 Build 0)  -->
<svg version="1.1" id="隔离模式" xmlns="http://www.w3.org/2000/svg" xmlns:xlink="http://www.w3.org/1999/xlink" x="0px"
	 y="0px" viewBox="0 0 20 20" style="enable-background:new 0 0 20 20;" xml:space="preserve">
<style type="text/css">
	.st0{opacity:0.65;}
</style>
<path class="st0" d="M16.7,6.3l-6-6c-0.1-0.1-0.2-0.2-0.3-0.2C10.1,0,9.9,0,9.6,0.1C9.5,0.1,9.4,0.2,9.3,0.3l-6,6
	c-0.4,0.4-0.4,1,0,1.4C3.5,7.9,3.7,8,4,8s0.5-0.1,0.7-0.3L9,3.4V19c0,0.6,0.4,1,1,1s1-0.4,1-1V3.4l4.3,4.3C15.5,7.9,15.7,8,16,8
	s0.5-0.1,0.7-0.3C17.1,7.3,17.1,6.7,16.7,6.3z"/>
</svg>
