<?xml version="1.0" encoding="utf-8"?>
<!-- Generator: Adobe Illustrator 19.0.0, SVG Export Plug-In . SVG Version: 6.00 Build 0)  -->
<svg version="1.1" id="隔离模式" xmlns="http://www.w3.org/2000/svg" xmlns:xlink="http://www.w3.org/1999/xlink" x="0px"
	 y="0px" viewBox="0 0 20 20" style="enable-background:new 0 0 20 20;" xml:space="preserve">
<style type="text/css">
	.st0{opacity:0.65;}
</style>
<g>
	<path class="st0" d="M10.7,5.3c-0.1-0.1-0.2-0.2-0.3-0.2C10.1,5,9.9,5,9.6,5.1C9.5,5.1,9.4,5.2,9.3,5.3l-6,6c-0.4,0.4-0.4,1,0,1.4
		C3.5,12.9,3.7,13,4,13s0.5-0.1,0.7-0.3L9,8.4V19c0,0.6,0.4,1,1,1s1-0.4,1-1V8.4l4.3,4.3c0.2,0.2,0.5,0.3,0.7,0.3s0.5-0.1,0.7-0.3
		c0.4-0.4,0.4-1,0-1.4L10.7,5.3z"/>
	<path class="st0" d="M4,3h12c0.6,0,1-0.4,1-1s-0.4-1-1-1H4C3.4,1,3,1.4,3,2S3.4,3,4,3z"/>
</g>
</svg>
