<?xml version="1.0" encoding="utf-8"?>
<!-- Generator: Adobe Illustrator 21.0.0, SVG Export Plug-In . SVG Version: 6.00 Build 0)  -->
<svg version="1.1" id="图层_1" xmlns="http://www.w3.org/2000/svg" xmlns:xlink="http://www.w3.org/1999/xlink" x="0px" y="0px"
	 viewBox="0 0 48 48" style="enable-background:new 0 0 48 48;" xml:space="preserve">
<style type="text/css">
	.st0{fill:#9FD3FF;}
</style>
<path class="st0" d="M33,34.3c2.4,0,4.5-1.9,4.5-4.5V10.5C37.5,8.1,35.6,6,33,6H7.4C5,6,2.9,8,2.9,10.5v19.3c0,2.4,2,4.5,4.5,4.5H9
	v7.5c0,0.6,0.5,1.2,1,1.5h0.5c0.5,0,0.9-0.2,1.2-0.6l6.1-8.4H33z"/>
<path class="st0" d="M40.5,11.9c-0.9,0-1.5,0.6-1.5,1.5s0.8,1.5,1.5,1.5s1.5,0.6,1.5,1.5v16.3c0,0.9-0.8,1.2-1.5,1.2H39
	c-0.9,0-1.5,0.6-1.5,1.5v0.2c0,0.1-0.2,0.3-0.2,0.4v2.9l-3.4-2.7C33.8,36,33.5,36,33.2,36h-7.7c-0.9,0-1.5,0.6-1.5,1.5
	c0,0.9,0.6,1.5,1.5,1.5h7.2l5.4,4.2c0.3,0.2,0.6,0.3,0.9,0.3c0.2,0,0.4,0,0.6-0.1c0.5-0.3,0.9-0.8,0.9-1.4v-5.1
	c2.6,0,4.5-1.8,4.5-4.2V16.3C45,13.9,42.9,11.8,40.5,11.9z"/>
</svg>
