<?xml version="1.0" encoding="utf-8"?>
<!-- Generator: Adobe Illustrator 21.0.0, SVG Export Plug-In . SVG Version: 6.00 Build 0)  -->
<svg version="1.1" id="图层_1" xmlns="http://www.w3.org/2000/svg" xmlns:xlink="http://www.w3.org/1999/xlink" x="0px" y="0px"
	 viewBox="0 0 48 48" style="enable-background:new 0 0 48 48;" xml:space="preserve">
<style type="text/css">
	.st0{fill:#9FD3FF;}
</style>
<path class="st0" d="M44.4,19.8L26.8,5.4c-1.5-1.2-4-1.2-5.5,0L3.6,20c-0.6,0.3-0.8,1-0.5,1.6c0.2,0.6,0.8,0.9,1.3,0.9H6v17.1
	c0,2.2,1.6,3.9,3.9,3.9h9.6c0.9,0,1.5-0.6,1.5-1.5v-6.9c0-1,1.7-2.1,3-2.1s3.2,1.1,3.2,2.1V42c0,0.9,0.6,1.5,1.5,1.5h9.8
	c2.3,0,3.8-1.5,3.8-3.9V22.5h1.5c0.6,0,1.2-0.5,1.3-1C45.2,20.9,45,20.3,44.4,19.8z"/>
</svg>
