<?xml version="1.0" encoding="utf-8"?>
<!-- Generator: Adobe Illustrator 21.0.0, SVG Export Plug-In . SVG Version: 6.00 Build 0)  -->
<svg version="1.1" id="图层_1" xmlns="http://www.w3.org/2000/svg" xmlns:xlink="http://www.w3.org/1999/xlink" x="0px" y="0px"
	 viewBox="0 0 48 48" style="enable-background:new 0 0 48 48;" xml:space="preserve">
<style type="text/css">
	.st0{fill:#9FD3FF;}
</style>
<path class="st0" d="M7.5,35.8c-0.9,0-1.5,0.8-1.5,1.5s0.8,1.5,1.5,1.5c0.1,0,6.5,0,10.3,4.3c0.3,0.3,0.8,0.5,1.1,0.5
	c0.3,0,0.8-0.2,1-0.5c0.6-0.6,0.6-1.5,0.1-2.1C15.3,35.7,7.8,35.7,7.5,35.8z M40.5,35.7c-0.3,0-7.7,0-12.6,5.4
	c-0.6,0.6-0.6,1.5,0.1,2.1c0.3,0.3,0.6,0.5,1.1,0.5c0.4,0,0.8-0.2,1.1-0.5c4.1-4.3,10.2-4.5,10.4-4.5c0.8,0,1.5-0.6,1.5-1.5
	C42,36.4,41.4,35.8,40.5,35.7z"/>
<path class="st0" d="M39,27.8c3.3-5.5,3.9-12.6,1.8-17.7c-0.3-0.6-0.8-0.9-1.4-0.9c-3.1,0-6,0.5-8.5,1.6c-1.8-3.3-3.8-5.7-5.9-7.3
	c0,0-0.1,0-0.1-0.1C24.5,3.1,24,3,23.6,3.1h-0.1c-0.1,0-0.3,0.1-0.5,0.3c-2.3,1.7-4.2,4.1-6,7.2C14.4,9.6,11.5,9,8.5,9
	c-0.6,0.1-1,0.5-1.3,1C5.1,15.2,5.8,22.2,9,27.8c2.9,4.7,7,7.7,12.2,8.3h1.3v7.5c0,0.9,0.6,1.5,1.5,1.5s1.5-0.6,1.5-1.5V36h1.3
	C31.9,35.4,36.3,32.4,39,27.8z"/>
</svg>
