<?xml version="1.0" encoding="utf-8"?>
<!-- Generator: Adobe Illustrator 21.0.0, SVG Export Plug-In . SVG Version: 6.00 Build 0)  -->
<svg version="1.1" id="图层_1" xmlns="http://www.w3.org/2000/svg" xmlns:xlink="http://www.w3.org/1999/xlink" x="0px" y="0px"
	 viewBox="0 0 48 48" style="enable-background:new 0 0 48 48;" xml:space="preserve">
<style type="text/css">
	.st0{fill:#9FD3FF;}
</style>
<path class="st0" d="M29.1,28.7c3.2-1.8,5.4-5.3,5.4-9.2C34.5,13.7,29.8,9,24,9s-10.5,4.7-10.5,10.5c0,3.9,2.1,7.3,5.4,9.2
	c-4.2,1.6-7.4,5.4-8.4,9.9c-0.2,0.4,0,0.9,0.3,1.2c0.3,0.3,0.8,0.6,1.2,0.6h24c0.4,0,0.9-0.2,1.2-0.6c0.3-0.3,0.3-0.8,0.3-1.2
	C36.4,34.1,33.3,30.3,29.1,28.7z M46.5,29.6c-0.6-3-2.6-5.4-5.6-6.8c1.7-1.5,2.6-3.6,2.6-6c0-4.4-3.3-7.8-7.5-7.8
	c-0.9,0-1.5,0.6-1.5,1.5S35.1,12,36,12c2.6,0,4.5,2.1,4.5,4.8c0,2.4-1.3,4.2-3.4,4.6c-0.8,0.1-1.4,1-1.1,1.8c0,0.8,0.4,1.4,1.2,1.4
	c3.3,0.6,5.6,2.6,6.2,5.4c0.2,0.8,0.8,1.2,1.5,1.2h0.3C46.1,31.2,46.7,30.4,46.5,29.6z M11.9,23.4c0.3-0.9-0.3-1.7-1.1-2
	c-1.9-0.5-3.3-2.3-3.3-4.7c0.1-2.7,2-4.8,4.5-4.8c0.9,0,1.5-0.6,1.5-1.5S12.8,9,12,9c-4.2,0-7.4,3.3-7.4,7.8c0,2.4,0.9,4.5,2.4,6
	c-2.8,1.4-4.9,3.8-5.6,6.8c-0.1,0.8,0.3,1.6,1.2,1.8H3c0.8,0,1.4-0.4,1.5-1.2c0.6-2.9,2.9-4.8,6.1-5.4
	C11.4,24.8,11.9,24.2,11.9,23.4z"/>
</svg>
