<?xml version="1.0" encoding="utf-8"?>
<!-- Generator: Adobe Illustrator 21.0.0, SVG Export Plug-In . SVG Version: 6.00 Build 0)  -->
<svg version="1.1" xmlns="http://www.w3.org/2000/svg" xmlns:xlink="http://www.w3.org/1999/xlink" x="0px" y="0px"
	 viewBox="0 0 32 32" style="enable-background:new 0 0 32 32;" xml:space="preserve">
<style type="text/css">
	.st0{display:none;}
	.st1{display:inline;fill:#375289;}
	.st2{fill:#FFFFFF;}
</style>
<g id="图层_2" class="st0">
	<rect class="st1" width="32" height="32"/>
</g>
<g id="图层_1">
	<g>
		<g>
			<path class="st2" d="M14.1,1v4.7L10.3,7v3.5l3.8-1.1V14l-3.8,1.2V30l-3.4-0.9V16.2l-3.7,1.1v-4.8l3.7-1.1V8L3.2,9.2V4.4L14.1,1
				 M14.8,0.1l-0.9,0.3L3,3.8L2.5,3.9v0.5v4.7v1l0.9-0.3L6.2,9v2l-3.2,1l-0.5,0.2v0.5v4.8v1l0.9-0.3l2.8-0.9v12v0.5l0.5,0.1l3.4,0.9
				L11,31V30V15.7l3.3-1l0.5-0.2V14V9.4V8.4l-0.9,0.3L11,9.5V7.5l3.3-1l0.5-0.2V5.8V1V0.1L14.8,0.1z"/>
		</g>
		<g>
			<path class="st2" d="M6.2,17.2V29l-3-0.8V18.1L6.2,17.2 M6.9,16.2L6,16.5l-3,1l-0.5,0.2v0.5v10.1v0.5L3,28.8l3,0.8l0.9,0.2V29
				V17.2V16.2L6.9,16.2z"/>
		</g>
		<g>
			<path class="st2" d="M14.1,14.8V31L11,30.2V15.7L14.1,14.8 M14.8,13.8l-0.9,0.3L10.8,15l-0.5,0.2v0.5v14.5v0.5l0.5,0.1l3.1,0.8
				l0.9,0.2V31V14.8V13.8L14.8,13.8z"/>
		</g>
		<g>
			<path class="st2" d="M17.9,1l4.7,1.4v5.3l-4.7-1.4V1 M17.1,0V1v5.3v0.5l0.5,0.1l4.7,1.4l0.9,0.3V7.6V2.4V1.9l-0.5-0.2l-4.7-1.4
				L17.1,0L17.1,0z"/>
		</g>
		<g>
			<path class="st2" d="M24.7,3l4.1,1.2v5.3l-4.1-1.2V3 M24,2.1V3v5.3v0.5L24.5,9l4.1,1.2l0.9,0.3V9.5V4.2V3.7L29,3.5l-4.1-1.2
				L24,2.1L24,2.1z"/>
		</g>
		<g>
			<path class="st2" d="M17.9,7.1l11,3.2V19l-3.7-1.1v8.2l1.8-0.3v-5.1l1.9,0.5v7L22,30V17l-4.1-1.2V7.1 M17.1,6.1v0.9v8.7v0.5
				l0.5,0.1l3.6,1V30v0.9l0.9-0.2l6.9-1.8l0.5-0.1v-0.5v-7v-0.5L29,20.5L27.2,20l-0.9-0.2v0.9v4.5l-0.4,0.1v-6.4l2.8,0.8l0.9,0.3V19
				v-8.7V9.8L29,9.6l-11-3.2L17.1,6.1L17.1,6.1z"/>
		</g>
		<g>
			<path class="st2" d="M21.7,11.3l3.7,1.1v2.3l-3.7-1.1V11.3 M21,10.3v1v2.3v0.5l0.5,0.2l3.7,1.1l0.9,0.3v-1v-2.3v-0.5l-0.5-0.2
				l-3.7-1.1L21,10.3L21,10.3z"/>
		</g>
		<g>
			<path class="st2" d="M17.9,16.6l3.4,1v12.6L17.9,31V16.6 M17.1,15.6v0.9V31v0.9l0.9-0.2l3.4-0.9l0.5-0.1v-0.6V17.5V17l-0.5-0.1
				l-3.4-1L17.1,15.6L17.1,15.6z"/>
		</g>
	</g>
</g>
</svg>
