<?xml version="1.0" encoding="utf-8"?>
<!-- Generator: Adobe Illustrator 21.0.0, SVG Export Plug-In . SVG Version: 6.00 Build 0)  -->
<svg version="1.1" id="图层_1" xmlns="http://www.w3.org/2000/svg" xmlns:xlink="http://www.w3.org/1999/xlink" x="0px" y="0px"
	 viewBox="0 0 32 32" style="enable-background:new 0 0 32 32;" xml:space="preserve">
<style type="text/css">
	.st0{fill:#FFFFFF;}
</style>
<g>
	<path class="st0" d="M16.1,10.2l0.9,3l0.2,0.5l0.5,0l3.2,0l-2.6,1.8l-0.4,0.3l0.2,0.5l1,3l-2.5-1.9l-0.4-0.3l-0.4,0.3l-2.5,1.9l1-3
		l0.2-0.5l-0.4-0.3l-2.6-1.8l3.2,0l0.5,0l0.2-0.5L16.1,10.2 M16.1,7.8L14.5,13l-5.4-0.1l4.4,3.1l-1.7,5.2l4.4-3.3l4.4,3.3l0,0
		l-1.7-5.2l4.4-3.1L17.7,13L16.1,7.8L16.1,7.8z"/>
</g>
<g>
	<path class="st0" d="M7,1c0.8,0.7,2.4,1.8,4.7,1.8c2.2,0,3.6-1,4.3-1.7c0.7,0.7,2.1,1.7,4.4,1.7c2,0,3.4-1,4.1-1.8l1.9,2
		c-0.6,1.5-2,6.4,1.6,11.4c1.3,1.8,1.6,3.7,1.1,5.7c-0.6,2.2-2.3,4.1-4.5,5.1c-4.8,2-7.2,4.4-8.3,5.5c-1.1-1.3-3.7-3.8-8.7-5.6
		c-3-1.1-4.1-3.5-4.5-4.9c-0.6-2.2-0.3-4.6,0.9-6.1c3.2-4,1.6-9.5,1-11.1L7,1 M24.5,0c0,0-1.5,2.1-4.1,2.1C17.3,2.1,16,0,16,0
		s-1.4,2.1-4.3,2.1S7,0,7,0L4.3,2.9c0,0,2.7,6.5-0.7,10.9c-2.6,3.3-1.6,10.1,3.9,12.1c6.6,2.4,8.9,6.1,8.9,6.1s2.1-3.3,8.6-6.1
		c4.1-1.8,7.1-7.1,3.7-11.8c-4-5.7-1.3-11.2-1.3-11.2L24.5,0L24.5,0z"/>
</g>
<g>
	<path class="st0" d="M8.8,4.2c0.7,0.6,2,1.4,3.7,1.4c1.7,0,2.8-0.7,3.4-1.3c0.6,0.6,1.7,1.3,3.5,1.3c1.6,0,2.7-0.8,3.3-1.3l0.8,0.9
		c-0.3,1.3-1,5.7,1.9,9.7c1,1.4,1.3,2.9,0.9,4.4c-0.5,1.7-1.8,3.2-3.5,4c-3.7,1.6-5.6,3.3-6.5,4.3c-0.9-1.1-3-3-6.9-4.4
		c-2.3-0.8-3.2-2.7-3.5-3.8c-0.5-1.7-0.2-3.6,0.7-4.8c2.5-3.2,1.7-8.2,1.4-9.6L8.8,4.2 M22.8,3.2c0,0-1.2,1.7-3.3,1.7
		C17,4.9,16,3.2,16,3.2s-1.1,1.6-3.5,1.6c-2.4,0-3.8-1.6-3.8-1.6L7.3,4.9c0,0,1.5,5.8-1.2,9.3c-2.1,2.6-1.3,8.1,3.1,9.7
		c5.3,1.9,7.1,4.9,7.1,4.9s1.7-2.6,6.8-4.8c3.3-1.4,5.6-5.6,3-9.5c-3.2-4.6-1.6-9.5-1.6-9.5L22.8,3.2L22.8,3.2z"/>
</g>
</svg>
