<?xml version="1.0" encoding="utf-8"?>
<!-- Generator: Adobe Illustrator 21.0.0, SVG Export Plug-In . SVG Version: 6.00 Build 0)  -->
<svg version="1.1" xmlns="http://www.w3.org/2000/svg" xmlns:xlink="http://www.w3.org/1999/xlink" x="0px" y="0px"
	 viewBox="0 0 32 32" style="enable-background:new 0 0 32 32;" xml:space="preserve">
<style type="text/css">
	.st0{display:none;}
	.st1{display:inline;}
	.st2{fill:#294C7F;}
	.st3{fill:#FFFFFF;}
</style>
<g id="图层_2" class="st0">
	<g class="st1">
		<rect y="0" class="st2" width="32" height="32"/>
	</g>
</g>
<g id="图层_1">
	<g>
		<path class="st3" d="M21.8,22.6L21.8,22.6l0,8.4c0,0.1-0.1,0.2-0.2,0.3c-0.1,0-0.1,0-0.2,0c-0.1,0-0.2,0-0.3-0.1l0,0l0,0l-4.8-3
			l-0.4-0.2l-0.4,0.2l-4.8,3l0,0l0,0c-0.1,0.1-0.2,0.1-0.3,0.1c-0.1,0-0.1,0-0.2,0c-0.1-0.1-0.2-0.2-0.2-0.3v-8.2c0,0,0,0,0.1,0
			c0.3,0.2,0.6,0.3,0.9,0.5c0.1,0,0.2,0.1,0.3,0.1l0.1,0c0.7,0.2,1.4,0.3,2.1,0.3c0.8,0,1.6-0.1,2.3-0.4c0.8,0.3,1.7,0.5,2.6,0.5
			c0.7,0,1.5-0.1,2.2-0.4c0.1,0,0.2-0.1,0.3-0.1l0.1,0C21,23.1,21.5,22.9,21.8,22.6 M22.6,20.9c-0.3,0.4-0.7,0.8-1.1,1.1
			c-0.3,0.2-0.7,0.5-1.1,0.6c-0.1,0-0.2,0.1-0.3,0.1c-0.6,0.2-1.3,0.3-1.9,0.3c-0.9,0-1.8-0.2-2.6-0.6C14.8,22.8,14,23,13.2,23
			c-0.6,0-1.2-0.1-1.8-0.3c-0.1,0-0.2-0.1-0.3-0.1c-0.3-0.1-0.6-0.3-0.8-0.4c-0.4-0.2-0.8-0.5-1.1-0.9V31c0,0.4,0.3,0.8,0.7,0.9
			C9.9,32,10,32,10.2,32c0,0,0,0,0,0c0.3,0,0.6-0.1,0.8-0.3l4.8-3l4.8,3c0.2,0.2,0.5,0.3,0.8,0.3c0.1,0,0.3,0,0.4-0.1
			c0.4-0.2,0.7-0.5,0.7-0.9V20.9L22.6,20.9z"/>
	</g>
	<g>
		<path class="st3" d="M13.1,0.7c0.1,0,0.2,0,0.3,0l0.1,0l0,0c0.1,0,0.2,0,0.4,0.1c0,0,0.1,0,0.1,0c0.1,0,0.2,0.1,0.3,0.1l0.1,0l0,0
			c0.1,0.1,0.3,0.1,0.4,0.2l0,0l0,0l0,0c0.1,0.1,0.2,0.1,0.3,0.2l0.1,0.1c0.1,0.1,0.2,0.2,0.3,0.3L16,2.6l0.6-0.7
			c0.1-0.1,0.2-0.2,0.3-0.3c0,0,0,0,0.1-0.1c0.1-0.1,0.2-0.2,0.3-0.2c0,0,0.1,0,0.1,0c0.1-0.1,0.2-0.1,0.4-0.2l0,0l0,0l0.1,0l0,0
			C17.9,1,18,1,18.2,1l0.1,0l0,0c0.1,0,0.3-0.1,0.4-0.1l0.1,0l0,0c0.1,0,0.1,0,0.2,0c0.1,0,0.1,0,0.2,0l0.1,0l0,0
			c0.1,0,0.3,0,0.4,0.1l0.1,0l0,0c0.2,0,0.3,0.1,0.4,0.1c1.2,0.5,1.9,1.8,1.8,3.2l-0.1,0.9l0.9-0.1c0,0,0.1,0,0.1,0
			c0.1,0,0.2,0,0.2,0c0.1,0,0.1,0,0.2,0c0.1,0,0.2,0,0.3,0c0.1,0,0.1,0,0.2,0c0.1,0,0.2,0.1,0.2,0.1l0.1,0c0,0,0.1,0,0.1,0.1
			c0.1,0,0.1,0.1,0.2,0.1l0.1,0l0,0c0,0,0.1,0,0.1,0.1c0.1,0,0.1,0.1,0.2,0.2l0.1,0c0,0,0.1,0,0.1,0.1C25,5.9,25,5.9,25.1,6L25.1,6
			l0.1,0.1c0,0,0,0,0.1,0.1c0.1,0.1,0.1,0.1,0.1,0.2l0,0l0.1,0.1l0,0c0.1,0.1,0.2,0.3,0.2,0.4c0.5,1.3,0.1,2.7-1,3.5L24.1,11
			l0.6,0.6c1,0.9,1.4,2.3,0.8,3.5c-0.1,0.1-0.1,0.3-0.2,0.4c0,0,0,0,0,0.1l-0.1,0.1c-0.1,0.1-0.1,0.2-0.2,0.2c0,0,0,0-0.1,0.1
			l-0.1,0.1c-0.1,0.1-0.1,0.1-0.2,0.2c0,0-0.1,0.1-0.2,0.1c-0.1,0.1-0.1,0.1-0.2,0.1c-0.1,0-0.1,0.1-0.2,0.1c-0.1,0-0.2,0.1-0.2,0.1
			c0,0-0.1,0-0.2,0.1l0,0c-0.1,0-0.2,0.1-0.3,0.1c-0.1,0-0.1,0-0.2,0c-0.1,0-0.2,0-0.3,0c-0.1,0-0.1,0-0.2,0l-0.1,0l-0.1,0l-0.1,0
			c-0.1,0-0.1,0-0.2,0l-0.8-0.1l0.1,0.8c0.1,0.9-0.2,1.7-0.8,2.3c-0.3,0.3-0.7,0.6-1.1,0.8c-0.1,0.1-0.3,0.1-0.4,0.1l-0.1,0
			c-0.1,0-0.3,0-0.4,0.1l-0.1,0l-0.1,0c-0.1,0-0.3,0-0.4,0l0,0l0,0c-0.1,0-0.2,0-0.4-0.1c0,0-0.1,0-0.1,0c-0.1,0-0.2-0.1-0.3-0.1
			l-0.1,0l0,0c-0.1-0.1-0.2-0.1-0.4-0.2l-0.1,0c-0.1-0.1-0.2-0.1-0.3-0.2l-0.1-0.1c-0.1-0.1-0.2-0.2-0.3-0.3l-0.5-0.7l-0.6,0.6
			c-0.1,0.1-0.2,0.2-0.3,0.3l-0.1,0.1c-0.1,0.1-0.2,0.2-0.3,0.2l0,0c-0.1,0.1-0.2,0.1-0.4,0.2l-0.1,0c-0.1,0-0.2,0.1-0.3,0.1l-0.1,0
			l0,0c-0.1,0-0.3,0.1-0.4,0.1l-0.1,0c-0.1,0-0.1,0-0.2,0c-0.1,0-0.1,0-0.2,0c0,0-0.1,0-0.1,0c0,0,0,0,0,0c-0.1,0-0.3,0-0.4-0.1
			l-0.1,0c-0.2,0-0.3-0.1-0.4-0.1c-0.2-0.1-0.4-0.2-0.6-0.4c-0.5-0.4-0.9-0.9-1.1-1.6c-0.1-0.4-0.2-0.8-0.1-1.2l0.1-0.8L9,16.6
			c-0.1,0-0.1,0-0.2,0c0,0-0.1,0-0.1,0l-0.1,0c-0.1,0-0.1,0-0.2,0c-0.1,0-0.2,0-0.3,0c0,0-0.1,0-0.1,0l0,0l0,0l0,0
			c-0.1,0-0.2-0.1-0.3-0.1c-0.1,0-0.1,0-0.2-0.1c-0.1,0-0.2-0.1-0.2-0.1l-0.1,0c0,0-0.1,0-0.1-0.1c-0.1,0-0.1-0.1-0.2-0.2l-0.1-0.1
			c0,0-0.1,0-0.1-0.1c-0.1-0.1-0.1-0.1-0.2-0.2l0,0l-0.1-0.1c0,0,0,0-0.1-0.1c-0.1-0.1-0.1-0.2-0.2-0.3c0,0,0-0.1-0.1-0.1
			C6,15,5.9,14.8,5.9,14.7c-0.5-1.3-0.1-2.7,1-3.5l0.7-0.5l-0.6-0.6c-1-0.9-1.4-2.3-0.8-3.5c0.1-0.1,0.1-0.3,0.2-0.4l0,0l0,0
			c0,0,0-0.1,0.1-0.1c0.1-0.1,0.1-0.2,0.2-0.3c0,0,0,0,0.1-0.1l0.1,0c0.1-0.1,0.1-0.1,0.2-0.2c0,0,0.1-0.1,0.2-0.1
			c0.1-0.1,0.1-0.1,0.2-0.2c0.1,0,0.1-0.1,0.2-0.1C7.6,5.1,7.6,5,7.7,5c0.1,0,0.1,0,0.2-0.1c0.1,0,0.2-0.1,0.3-0.1
			c0.1,0,0.1,0,0.2,0c0.1,0,0.2,0,0.3,0l0.1,0c0,0,0.1,0,0.1,0l0.1,0c0.1,0,0.2,0,0.3,0l0.9,0.1L10,4C9.9,2.6,10.7,1.4,12,0.9
			c0.1-0.1,0.3-0.1,0.4-0.1l0.1,0c0.1,0,0.3,0,0.4,0l0,0L13.1,0.7L13.1,0.7 M12.5,8c-0.1,0.1-0.2,0.3-0.3,0.4l-0.1,0.1
			c-0.1,0.2-0.2,0.4-0.3,0.5c-0.7,1.5-0.4,3.3,0.7,4.6c0.4,0.5,1,0.9,1.6,1.2c0.1,0.1,0.3,0.1,0.4,0.2c0,0,0.1,0,0.2,0
			c0.1,0,0.2,0.1,0.3,0.1c0.1,0,0.1,0,0.2,0c0.1,0,0.2,0,0.2,0c0,0,0.1,0,0.2,0c0.1,0,0.2,0,0.2,0l0,0h0c0,0,0.1,0,0.1,0
			c0.2,0,0.3,0,0.5,0l0.1,0c0.2,0,0.4-0.1,0.5-0.1c0,0,0.1,0,0.1,0c0.2,0,0.3-0.1,0.5-0.2l0.1,0l0.1,0l0,0c0.2-0.1,0.3-0.2,0.5-0.3
			l0,0l0,0c0.1-0.1,0.3-0.2,0.4-0.3l0,0l0,0l0.1-0.1c0.2-0.1,0.3-0.3,0.4-0.4l0,0l0,0l0,0c0.1-0.1,0.2-0.2,0.3-0.4
			c0,0,0.1-0.1,0.1-0.1c0.1-0.2,0.2-0.4,0.3-0.5c0.5-1.1,0.5-2.3,0.1-3.3c-0.4-1.1-1.2-1.9-2.3-2.4c-0.1-0.1-0.3-0.1-0.4-0.2
			c0,0-0.1,0-0.2,0c-0.1,0-0.2-0.1-0.3-0.1c-0.1,0-0.1,0-0.2,0l-0.1,0l0,0c-0.1,0-0.1,0-0.2,0c-0.1,0-0.1,0-0.2,0
			c-0.1,0-0.1,0-0.2,0c0,0,0,0,0,0l0,0h0c0,0-0.1,0-0.1,0c-0.2,0-0.3,0-0.5,0l-0.1,0c-0.2,0-0.4,0.1-0.5,0.1c0,0-0.1,0-0.1,0
			c-0.2,0-0.3,0.1-0.4,0.2c-0.1,0-0.1,0-0.1,0.1c-0.2,0.1-0.3,0.2-0.5,0.3l0,0l0,0c-0.1,0.1-0.3,0.2-0.4,0.3c0,0-0.1,0.1-0.1,0.1
			C12.8,7.7,12.6,7.9,12.5,8L12.5,8 M13.1,0C13,0,13,0,13.1,0c-0.1,0-0.2,0-0.2,0c-0.2,0-0.4,0-0.5,0.1c0,0,0,0-0.1,0
			c-0.2,0-0.4,0.1-0.6,0.2c-1.6,0.6-2.5,2.2-2.4,3.8c-0.1,0-0.3,0-0.4,0c0,0-0.1,0-0.1,0c-0.1,0-0.2,0-0.2,0c-0.1,0-0.2,0-0.3,0
			c-0.1,0-0.2,0-0.2,0c-0.1,0-0.2,0.1-0.3,0.1c-0.1,0-0.2,0.1-0.2,0.1c-0.1,0-0.2,0.1-0.3,0.1C7.1,4.5,7,4.5,7,4.6
			C6.9,4.6,6.8,4.7,6.7,4.8c-0.1,0-0.1,0.1-0.2,0.1C6.4,5,6.3,5,6.2,5.1C6.2,5.2,6.1,5.2,6.1,5.3C6,5.4,5.9,5.5,5.8,5.6
			c0,0.1-0.1,0.1-0.1,0.2C5.6,5.9,5.5,6.1,5.4,6.3c-0.7,1.6-0.2,3.3,1,4.4c-1.3,1-1.8,2.7-1.2,4.3c0.1,0.2,0.2,0.4,0.3,0.5
			c0,0.1,0.1,0.1,0.1,0.2c0.1,0.1,0.1,0.2,0.2,0.3c0,0.1,0.1,0.1,0.2,0.2c0.1,0.1,0.2,0.2,0.2,0.2c0.1,0.1,0.1,0.1,0.2,0.1
			c0.1,0.1,0.2,0.1,0.3,0.2c0.1,0,0.1,0.1,0.2,0.1C7,16.9,7.1,17,7.2,17c0.1,0,0.2,0.1,0.2,0.1c0.1,0,0.2,0.1,0.3,0.1
			c0,0,0.1,0,0.1,0c0.1,0,0.1,0,0.2,0c0.1,0,0.2,0,0.3,0.1c0.1,0,0.2,0,0.3,0c0.1,0,0.1,0,0.2,0c0.1,0,0.2,0,0.3,0
			c-0.1,0.5,0,1,0.1,1.5c0.2,0.8,0.7,1.5,1.3,2c0.2,0.2,0.5,0.3,0.7,0.4c0.2,0.1,0.3,0.1,0.5,0.2c0,0,0.1,0,0.1,0
			c0.2,0,0.3,0.1,0.5,0.1c0,0,0.1,0,0.1,0c0.1,0,0.2,0,0.2,0c0.1,0,0.2,0,0.2,0c0,0,0.1,0,0.1,0c0.2,0,0.3,0,0.5-0.1
			c0,0,0.1,0,0.1,0c0.1,0,0.3-0.1,0.4-0.1c0,0,0.1,0,0.1,0c0.2-0.1,0.3-0.1,0.5-0.2c0,0,0,0,0.1,0c0.1-0.1,0.3-0.2,0.4-0.3
			c0,0,0.1-0.1,0.1-0.1c0.1-0.1,0.3-0.2,0.4-0.4c0.1,0.1,0.2,0.3,0.4,0.4c0,0,0.1,0.1,0.1,0.1c0.1,0.1,0.2,0.2,0.3,0.3
			c0,0,0.1,0.1,0.1,0.1c0.1,0.1,0.3,0.2,0.5,0.3c0,0,0.1,0,0.1,0c0.1,0.1,0.3,0.1,0.4,0.2c0,0,0.1,0,0.1,0c0.1,0,0.3,0.1,0.4,0.1
			c0,0,0,0,0.1,0c0.2,0,0.3,0,0.5,0c0,0,0.1,0,0.1,0c0,0,0.1,0,0.1,0c0.2,0,0.4,0,0.5-0.1c0,0,0,0,0.1,0c0.2,0,0.4-0.1,0.6-0.2
			c0.5-0.2,1-0.5,1.4-0.9c0.7-0.8,1.1-1.8,1-2.9c0.1,0,0.2,0,0.3,0c0.1,0,0.1,0,0.2,0c0,0,0,0,0,0c0.1,0,0.2,0,0.2,0
			c0.1,0,0.2,0,0.3,0c0.1,0,0.2,0,0.2,0c0.1,0,0.2-0.1,0.3-0.1c0,0,0,0,0.1,0c0.1,0,0.1,0,0.2-0.1c0.1,0,0.2-0.1,0.3-0.1
			c0.1,0,0.1-0.1,0.2-0.1c0.1-0.1,0.2-0.1,0.3-0.2c0.1,0,0.1-0.1,0.2-0.1c0.1-0.1,0.2-0.2,0.3-0.2c0.1-0.1,0.1-0.1,0.2-0.2
			c0.1-0.1,0.2-0.2,0.2-0.3c0-0.1,0.1-0.1,0.1-0.2c0.1-0.2,0.2-0.3,0.3-0.5c0.7-1.6,0.2-3.3-1-4.4c1.3-1,1.8-2.7,1.2-4.3
			c-0.1-0.2-0.2-0.4-0.3-0.5c0-0.1-0.1-0.1-0.1-0.2c-0.1-0.1-0.1-0.2-0.2-0.3c0-0.1-0.1-0.1-0.2-0.2c-0.1-0.1-0.2-0.2-0.2-0.2
			c-0.1-0.1-0.1-0.1-0.2-0.1C25.1,5.1,25,5,24.9,5c-0.1,0-0.1-0.1-0.2-0.1c-0.1-0.1-0.2-0.1-0.3-0.1c-0.1,0-0.2-0.1-0.2-0.1
			c-0.1,0-0.2-0.1-0.3-0.1c-0.1,0-0.2,0-0.3-0.1c-0.1,0-0.2,0-0.3-0.1c-0.1,0-0.2,0-0.3,0c-0.1,0-0.2,0-0.3,0c-0.1,0-0.1,0-0.2,0
			c0.2-1.6-0.6-3.2-2.2-3.9c-0.2-0.1-0.4-0.1-0.5-0.2c0,0-0.1,0-0.1,0c-0.2,0-0.3-0.1-0.5-0.1c0,0-0.1,0-0.1,0c-0.1,0-0.2,0-0.2,0
			c-0.1,0-0.1,0-0.2,0c0,0-0.1,0-0.1,0c-0.2,0-0.3,0-0.5,0.1c0,0-0.1,0-0.1,0c-0.1,0-0.3,0.1-0.4,0.1c0,0-0.1,0-0.1,0
			c-0.2,0.1-0.3,0.1-0.5,0.2c0,0,0,0-0.1,0c-0.1,0.1-0.3,0.2-0.4,0.3c0,0-0.1,0.1-0.1,0.1c-0.1,0.1-0.3,0.2-0.4,0.4
			c-0.1-0.1-0.2-0.3-0.4-0.4c0,0-0.1-0.1-0.1-0.1c-0.1-0.1-0.2-0.2-0.3-0.3c0,0-0.1-0.1-0.1-0.1c-0.1-0.1-0.3-0.2-0.5-0.3
			c0,0-0.1,0-0.1,0c-0.1-0.1-0.3-0.1-0.4-0.2c0,0-0.1,0-0.1,0c-0.1,0-0.3-0.1-0.4-0.1c0,0-0.1,0-0.1,0C13.4,0,13.2,0,13.1,0L13.1,0z
			 M15.8,14.5c-0.1,0-0.1,0-0.2,0c-0.1,0-0.1,0-0.2,0c-0.1,0-0.1,0-0.2,0c0,0-0.1,0-0.1,0c-0.1,0-0.2,0-0.2-0.1c0,0-0.1,0-0.1,0
			c-0.1,0-0.2-0.1-0.4-0.1c-0.5-0.2-1-0.6-1.3-1c-0.9-1-1.1-2.5-0.6-3.8c0.1-0.2,0.1-0.3,0.2-0.4c0,0,0-0.1,0.1-0.1
			c0.1-0.1,0.2-0.2,0.3-0.4c0,0,0,0,0,0c0.1-0.1,0.2-0.2,0.3-0.3c0,0,0.1-0.1,0.1-0.1c0.1-0.1,0.2-0.2,0.3-0.2c0,0,0,0,0,0
			c0.1-0.1,0.3-0.2,0.4-0.2c0,0,0.1,0,0.1,0c0.1-0.1,0.2-0.1,0.4-0.1c0,0,0,0,0.1,0c0.1,0,0.3-0.1,0.4-0.1c0,0,0.1,0,0.1,0
			c0.1,0,0.3,0,0.4,0c0,0,0,0,0.1,0c0,0,0,0,0,0c0.1,0,0.1,0,0.2,0c0.1,0,0.1,0,0.2,0c0.1,0,0.1,0,0.2,0c0.1,0,0.1,0,0.2,0
			c0.1,0,0.1,0,0.2,0.1c0,0,0.1,0,0.1,0c0.1,0,0.2,0.1,0.4,0.1c1.8,0.8,2.7,3,1.9,4.8c-0.1,0.2-0.1,0.3-0.2,0.4c0,0,0,0.1-0.1,0.1
			c-0.1,0.1-0.2,0.2-0.3,0.4c0,0,0,0,0,0c0,0,0,0,0,0c-0.1,0.1-0.2,0.2-0.3,0.3c0,0-0.1,0.1-0.1,0.1c-0.1,0.1-0.2,0.2-0.3,0.3
			c0,0,0,0,0,0c-0.1,0.1-0.3,0.2-0.4,0.2c0,0-0.1,0-0.1,0c-0.1,0.1-0.2,0.1-0.4,0.1c0,0,0,0-0.1,0c-0.1,0-0.3,0.1-0.4,0.1
			c0,0-0.1,0-0.1,0C16.1,14.5,16,14.5,15.8,14.5C15.8,14.5,15.8,14.5,15.8,14.5L15.8,14.5L15.8,14.5z"/>
	</g>
</g>
</svg>
