<?xml version="1.0" encoding="utf-8"?>
<!-- Generator: Adobe Illustrator 21.0.0, SVG Export Plug-In . SVG Version: 6.00 Build 0)  -->
<svg version="1.1" xmlns="http://www.w3.org/2000/svg" xmlns:xlink="http://www.w3.org/1999/xlink" x="0px" y="0px"
	 viewBox="0 0 32 32" style="enable-background:new 0 0 32 32;" xml:space="preserve">
<style type="text/css">
	.st0{display:none;}
	.st1{display:inline;fill:#215893;}
	.st2{fill:none;stroke:#FFFFFF;stroke-width:0.7087;stroke-miterlimit:10;}
</style>
<g id="图层_2" class="st0">
	<rect class="st1" width="32" height="32"/>
</g>
<g id="图层_1">
	<path class="st2" d="M29.3,30.1H2.7c-0.8,0-1.5-0.7-1.5-1.5V8.1c0-0.8,0.7-1.5,1.5-1.5h26.5c0.8,0,1.5,0.7,1.5,1.5v20.5
		C30.8,29.5,30.1,30.1,29.3,30.1z"/>
	<path class="st2" d="M22.4,6.6H9.6V2.2c0-0.8,0.7-1.5,1.5-1.5h9.8c0.8,0,1.5,0.7,1.5,1.5V6.6z"/>
	<line class="st2" x1="1.2" y1="14.6" x2="30.8" y2="14.6"/>
	<path class="st2" d="M16,20.1L16,20.1c-1.9,0-3.4-1.5-3.4-3.4v-2.1h6.8v2.1C19.4,18.6,17.9,20.1,16,20.1z"/>
</g>
</svg>
