<?xml version="1.0" encoding="utf-8"?>
<!-- Generator: Adobe Illustrator 21.1.0, SVG Export Plug-In . SVG Version: 6.00 Build 0)  -->
<svg version="1.1" id="图层_3" xmlns="http://www.w3.org/2000/svg" xmlns:xlink="http://www.w3.org/1999/xlink" x="0px" y="0px"
	 viewBox="0 0 207 55" style="enable-background:new 0 0 207 55;" xml:space="preserve">
<style type="text/css">
	.st0{fill:#0066FF;}
	.st1{fill:#0066CC;}
	.st2{fill:#33EECC;}
	.st3{fill:url(#SVGID_1_);}
</style>
<g>
	<g>
		<path class="st0" d="M15.7,48V20.5h12.5c6.9,0,12.5,5.6,12.5,12.5v2.5c0,6.9-5.6,12.5-12.5,12.5H15.7z"/>
		<g>
			<path class="st1" d="M15.7,38V23h20v2.5c0,6.9-5.6,12.5-12.5,12.5H15.7z"/>
		</g>
		<g>
			<path class="st2" d="M10.7,35.5V8h12.5c6.9,0,12.5,5.6,12.5,12.5V23c0,6.9-5.6,12.5-12.5,12.5H10.7z"/>
		</g>
		<linearGradient id="SVGID_1_" gradientUnits="userSpaceOnUse" x1="15.6579" y1="34.25" x2="40.6579" y2="34.25">
			<stop  offset="0" style="stop-color:#0066FF;stop-opacity:0"/>
			<stop  offset="1" style="stop-color:#0066FF"/>
		</linearGradient>
		<path class="st3" d="M15.7,48V20.5h12.5c6.9,0,12.5,5.6,12.5,12.5v2.5c0,6.9-5.6,12.5-12.5,12.5H15.7z"/>
	</g>
	<path class="st0" d="M64.2,29.5c-0.7-0.9-1.5-1.5-2.4-1.9c2-0.4,3.4-1.1,4.4-2.2c1-1,1.4-2.4,1.4-4.1c0-0.8-0.1-1.6-0.4-2.4
		c-0.3-0.7-0.7-1.4-1.3-2s-1.2-1-1.9-1.3c-0.6-0.3-1.3-0.4-2-0.5c-0.7-0.1-1.6-0.1-2.7-0.1H49V36c0,1.3,1,2.3,2.3,2.3h2.3V28.1h1.6
		c0.8,0,1.5,0.1,2,0.3c0.5,0.2,1.1,0.6,1.6,1.2c0.5,0.6,1.1,1.5,1.8,2.6l2.8,4.9c0.5,1,1.7,1.3,2.7,0.8l2.6-1.3c0,0-2-3.6-2.6-4.5
		C65.6,31.3,64.9,30.4,64.2,29.5z M60.6,24.5c-0.8,0.2-1.7,0.3-2.8,0.3h-4.1v-6.3h4.3c1.6,0,2.7,0.1,3.2,0.3c0.6,0.2,1,0.6,1.3,1.1
		c0.3,0.5,0.5,1,0.5,1.7c0,0.8-0.2,1.4-0.6,1.9C62,24,61.4,24.3,60.6,24.5z"/>
	<path class="st0" d="M83.7,19.7h-2.7V28c0,2.2-0.1,3.6-0.4,4.3c-0.3,0.7-0.8,1.3-1.5,1.8c-0.7,0.5-1.4,0.7-2.2,0.7
		c-0.8,0-1.4-0.2-1.9-0.6c-0.5-0.4-0.8-1-1-1.7c-0.2-0.7-0.3-1.6-0.3-2.7v-8.1c0-1-0.8-1.9-1.9-1.9h-2.7v11.8c0,1.8,0.3,3.2,0.9,4.2
		c0.5,0.8,1.2,1.4,2,1.9c0.9,0.5,1.9,0.7,3,0.7c0.9,0,1.7-0.1,2.4-0.3c0.7-0.2,1.4-0.6,2-1c0.6-0.5,1.2-1,1.7-1.7v1.3
		c0,1.1,0.9,1.9,1.9,1.9h2.4V21.6C85.6,20.5,84.8,19.7,83.7,19.7z"/>
	<path class="st0" d="M103.2,22.7c-0.5-1-1.2-1.7-2.1-2.2c-0.9-0.5-2-0.8-3.2-0.8c-1.2,0-2.3,0.2-3.3,0.7c-1,0.5-1.8,1.3-2.6,2.3
		v-1.2c0-1-0.8-1.9-1.9-1.9h-2.4v16.7c0,1.1,0.9,1.9,1.9,1.9h2.7v-8.5c0-1.9,0.1-3.1,0.3-3.8c0.3-0.8,0.8-1.5,1.5-2
		c0.7-0.5,1.4-0.7,2.2-0.7c1.2,0,2.2,0.6,2.6,1.4c0.4,0.8,0.5,1.7,0.5,3.2v8.5c0,1.1,0.9,1.9,1.9,1.9h2.6V27c0-1,0-1.8-0.1-2.5
		C103.7,23.9,103.5,23.3,103.2,22.7z"/>
	<path class="st0" d="M120.3,19.7h-2.7V28c0,2.2-0.1,3.6-0.4,4.3c-0.3,0.7-0.8,1.3-1.5,1.8c-0.7,0.5-1.4,0.7-2.2,0.7
		c-0.8,0-1.4-0.2-1.9-0.6c-0.5-0.4-0.8-1-1-1.7c-0.2-0.7-0.3-1.6-0.3-2.7v-8.1c0-1-0.8-1.9-1.9-1.9h-2.7v11.8c0,1.8,0.3,3.2,0.9,4.2
		c0.5,0.8,1.2,1.4,2,1.9c0.9,0.5,1.9,0.7,3,0.7c0.9,0,1.7-0.1,2.4-0.3c0.7-0.2,1.4-0.6,2-1c0.6-0.5,1.2-1,1.7-1.7v1.3
		c0,1.1,0.9,1.9,1.9,1.9h2.4V21.6C122.2,20.5,121.3,19.7,120.3,19.7z"/>
	<path class="st0" d="M138.2,20.8c-1.2-0.7-2.5-1.1-3.9-1.1c-1.2,0-2.2,0.2-3.1,0.7c-0.9,0.5-1.8,1.3-2.7,2.3v-1.2
		c0-1-0.8-1.9-1.9-1.9h-2.4v24c0,1.1,0.9,1.9,1.9,1.9h2.4V35.2c0.8,1,1.6,1.8,2.5,2.3c0.9,0.5,2,0.8,3.3,0.8c1.1,0,2.1-0.2,3-0.6
		c0.9-0.4,1.8-1,2.5-1.8c0.7-0.8,1.2-1.8,1.6-3c0.4-1.2,0.6-2.5,0.6-3.9c0-1.9-0.3-3.6-1-5C140.3,22.6,139.4,21.5,138.2,20.8z
		 M136.8,32.1c-0.4,0.9-0.9,1.5-1.6,2c-0.6,0.4-1.4,0.7-2.1,0.7c-1.3,0-2.3-0.5-3.2-1.5c-0.9-1-1.3-2.4-1.3-4.2
		c0-1.9,0.4-3.4,1.3-4.4c0.9-1,1.9-1.5,3.2-1.5c0.8,0,1.5,0.2,2.2,0.7c0.7,0.5,1.2,1.1,1.5,2c0.4,0.9,0.6,1.9,0.6,3.1
		C137.4,30.2,137.2,31.2,136.8,32.1z"/>
	<path class="st0" d="M171.2,34.1V20c0-0.9-0.8-1.7-1.7-1.7h-3.9V16c0-0.9-0.8-1.7-1.7-1.7h-3.1v4h-5.5v14c0,0.9,0.8,1.7,1.7,1.7
		h3.9v3.4c0,0.9,0.8,1.7,1.7,1.7h3.1v-5.1H171.2z M160.9,32.1h-0.7c-0.3,0-0.5-0.2-0.5-0.5V20.3h0.7c0.3,0,0.5,0.2,0.5,0.5V32.1z
		 M165.7,31.6V20.3h0.7c0.3,0,0.5,0.2,0.5,0.5v11.2h-0.7C165.9,32.1,165.7,31.8,165.7,31.6z"/>
	<path class="st0" d="M154.1,23.7l-0.6-6.7c-0.1-1.1-1.1-2-2.2-2h-2.8l0.8,8.7H154.1z"/>
	<path class="st0" d="M152.8,37.9l1-10.5c0.1-0.9-0.6-1.7-1.5-1.7h-3.1l-1,10.5c-0.1,0.9,0.6,1.7,1.5,1.7H152.8z"/>
	<g>
		<path class="st0" d="M197.3,16.7v-1c0-0.4-0.3-0.8-0.8-0.8h-22.9v1.8h9.3v1h-9.1V23c0,0.9,0.7,1.6,1.6,1.6h3.1v-5.1h4
			c0.3,0,0.5,0.2,0.5,0.5V23c0,0.9,0.7,1.6,1.6,1.6h3.6v-5.1h4c0.3,0,0.5,0.2,0.5,0.5V23c0,0.9,0.7,1.6,1.6,1.6h3.1v-5.3
			c0-0.9-0.7-1.6-1.6-1.6h-7.5v-1H197.3z"/>
		<path class="st0" d="M181.4,19.8h-2.5l0.3,1.5c0.1,0.3,0.3,0.5,0.6,0.5h2.5l-0.3-1.5C182,20,181.7,19.8,181.4,19.8z"/>
		<path class="st0" d="M179.8,24.3h2.5l-0.3-1.5c-0.1-0.3-0.3-0.5-0.6-0.5h-2.5l0.3,1.5C179.3,24.1,179.5,24.3,179.8,24.3z"/>
		<path class="st0" d="M177,27.8h4.5l-0.6-1.9c-0.1-0.4-0.5-0.7-0.9-0.7h-4.5l0.6,1.9C176.2,27.5,176.6,27.8,177,27.8z"/>
		<path class="st0" d="M190.4,27.8h4.3l0.6-1.7c0.1-0.4-0.2-0.9-0.6-0.9h-4.3l-0.6,1.7C189.6,27.3,189.9,27.8,190.4,27.8z"/>
		<path class="st0" d="M191.3,19.8H189l-0.2,1.3c-0.1,0.4,0.2,0.8,0.6,0.8h2.2l0.2-1.3C192,20.2,191.7,19.8,191.3,19.8z"/>
		<path class="st0" d="M191.7,24.3l0.2-1.3c0.1-0.4-0.2-0.8-0.6-0.8H189l-0.2,1.3c-0.1,0.4,0.2,0.8,0.6,0.8H191.7z"/>
		<path class="st0" d="M186.7,25.1h-3.8v3.1h-8.5v8.4c0,0.9,0.7,1.6,1.6,1.6h3.6v-2.8H191c0.2,0,0.4,0.2,0.4,0.4v0.6h-2.8v0.9
			c0,0.5,0.4,0.8,0.8,0.8h7.2v-8.4c0-0.9-0.7-1.6-1.6-1.6h-6.9v-1.7C188.1,25.7,187.5,25.1,186.7,25.1z M179.6,33.3v-0.6H191
			c0.2,0,0.4,0.2,0.4,0.4v0.6H180C179.8,33.7,179.6,33.5,179.6,33.3z M191.4,30.3V31H180c-0.2,0-0.4-0.2-0.4-0.4V30H191
			C191.2,30,191.4,30.1,191.4,30.3z"/>
	</g>
</g>
</svg>
