<?xml version="1.0" encoding="utf-8"?>
<!-- Generator: Adobe Illustrator 21.0.0, SVG Export Plug-In . SVG Version: 6.00 Build 0)  -->
<svg version="1.1" xmlns="http://www.w3.org/2000/svg" xmlns:xlink="http://www.w3.org/1999/xlink" x="0px" y="0px"
	 viewBox="0 0 32 28.8" style="enable-background:new 0 0 32 28.8;" xml:space="preserve">
<style type="text/css">
	.st0{display:none;}
	.st1{display:inline;fill:#285272;}
	.st2{fill:none;stroke:#FFFFFF;stroke-width:0.7087;stroke-miterlimit:10;}
	.st3{fill:none;stroke:#FFFFFF;stroke-width:0.7087;stroke-linejoin:round;stroke-miterlimit:10;}
</style>
<g id="图层_2" class="st0">
	<rect class="st1" width="32" height="28.8"/>
</g>
<g id="图层_1">
	<path class="st2" d="M28.2,11.2 M16.9,13.2c2.7,0.5,5.5,0.2,8.2-1.2c2.9-1.5,4.9-4,5.9-6.8c-2.9-0.8-6.1-0.5-9,1
		c-2.8,1.5-4.8,3.9-5.9,6.7H16c-1-2.8-3-5.2-5.9-6.7c-2.9-1.5-6.1-1.8-9-1c1,2.8,3,5.3,5.9,6.8c2.6,1.4,5.5,1.7,8.2,1.2"/>
	<path class="st3" d="M29.1,11c0.3,1.1,0.4,2.2,0.4,3.4c0,7.5-6.1,13.5-13.5,13.5S2.5,21.9,2.5,14.4c0-1.2,0.2-2.4,0.5-3.6"/>
	<path class="st3" d="M7.4,3.9C9.8,2,12.8,0.9,16,0.9c3.1,0,6,1.1,8.3,2.9"/>
	<line class="st2" x1="16" y1="12.9" x2="16" y2="26"/>
</g>
</svg>
