<?xml version="1.0" encoding="utf-8"?>
<!-- Generator: Adobe Illustrator 21.0.0, SVG Export Plug-In . SVG Version: 6.00 Build 0)  -->
<svg version="1.1" xmlns="http://www.w3.org/2000/svg" xmlns:xlink="http://www.w3.org/1999/xlink" x="0px" y="0px"
	 viewBox="0 0 32 32" style="enable-background:new 0 0 32 32;" xml:space="preserve">
<style type="text/css">
	.st0{display:none;}
	.st1{display:inline;fill:#226C99;}
	.st2{fill:none;stroke:#FFFFFF;stroke-width:0.7087;stroke-miterlimit:10;}
	.st3{fill:none;stroke:#FFFFFF;stroke-width:0.7087;stroke-linecap:round;stroke-miterlimit:10;}
</style>
<g id="图层_2" class="st0">
	<rect class="st1" width="32" height="32"/>
</g>
<g id="图层_1">
	<path class="st2" d="M29.1,25.5H2.9c-0.8,0-1.5-0.7-1.5-1.5V3.3c0-0.8,0.7-1.5,1.5-1.5h26.2c0.8,0,1.5,0.7,1.5,1.5V24
		C30.6,24.8,29.9,25.5,29.1,25.5z"/>
	<g>
		<path class="st2" d="M10.1,30.1H7.6c-0.8,0-1.5-0.7-1.5-1.5v-3.1h5.4v3.1C11.6,29.4,10.9,30.1,10.1,30.1z"/>
		<path class="st2" d="M24.4,30.1h-2.4c-0.8,0-1.5-0.7-1.5-1.5v-3.1h5.4v3.1C25.9,29.4,25.2,30.1,24.4,30.1z"/>
	</g>
	<line class="st2" x1="1.4" y1="12.3" x2="30.6" y2="12.3"/>
	<line class="st3" x1="10.6" y1="7.7" x2="15" y2="12.3"/>
	<line class="st3" x1="14.8" y1="7.7" x2="19.2" y2="12.3"/>
	<circle class="st3" cx="8.8" cy="19" r="2.7"/>
	<circle class="st3" cx="23.2" cy="19" r="2.7"/>
</g>
</svg>
