<?xml version="1.0" encoding="utf-8"?>
<!-- Generator: Adobe Illustrator 21.0.0, SVG Export Plug-In . SVG Version: 6.00 Build 0)  -->
<svg version="1.1" id="图层_1" xmlns="http://www.w3.org/2000/svg" xmlns:xlink="http://www.w3.org/1999/xlink" x="0px" y="0px"
	 viewBox="0 0 32 32" style="enable-background:new 0 0 32 32;" xml:space="preserve">
<style type="text/css">
	.st0{fill:#FFFFFF;}
</style>
<path class="st0" d="M6.9,18.4H5v2.4c0,1.1,0.9,2,1.9,2H15v1.6h-2.9c-0.5,0-1,0.4-1,1c0,0.6,0.4,1,1,1h7.7c0.5,0,1-0.4,1-1
	c0-0.6-0.4-1-1-1H17v-1.6h8.1c1.1,0,1.9-0.9,1.9-2v-2.4H6.9z M25.1,5H6.9C5.9,5,5,5.9,5,7v9.4h22V7C27,5.9,26.1,5,25.1,5"/>
</svg>
