<?xml version="1.0" encoding="utf-8"?>
<!-- Generator: Adobe Illustrator 19.0.0, SVG Export Plug-In . SVG Version: 6.00 Build 0)  -->
<svg version="1.1" id="图层_1" xmlns="http://www.w3.org/2000/svg" xmlns:xlink="http://www.w3.org/1999/xlink" x="0px" y="0px"
	 viewBox="0 0 36 31" style="enable-background:new 0 0 36 31;" xml:space="preserve">
<style type="text/css">
	.st0{clip-path:url(#SVGID_2_);fill:url(#SVGID_3_);}
</style>
<g>
	<defs>
		<path id="SVGID_1_" d="M16,25v5h-4v1h12v-1h-4v-5H16z M18,6c2.4,0,4.4,1.7,4.9,4c0,0,0.1,0,0.1,0c2.3,0,4.2,2,4,4.4
			c-0.2,2.1-2.1,3.6-4.2,3.6H20c-0.6,0-1-0.4-1-1v-2.4c0-0.3,0.3-0.5,0.6-0.4l1.6,0.4c0.5,0.1,0.9-0.5,0.5-0.9l-2.9-2.9
			c-0.4-0.4-1-0.4-1.4,0l-2.9,2.9c-0.4,0.4,0,1,0.5,0.9l1.6-0.4c0.3-0.1,0.6,0.1,0.6,0.4V17c0,0.6-0.4,1-1,1h-2.8
			c-2.1,0-4-1.5-4.2-3.6C8.8,12,10.7,10,13,10c0,0,0.1,0,0.1,0C13.6,7.7,15.6,6,18,6 M1,0C0.4,0,0,0.4,0,1v22c0,0.6,0.4,1,1,1h34
			c0.6,0,1-0.4,1-1V1c0-0.6-0.4-1-1-1H1z"/>
	</defs>
	<clipPath id="SVGID_2_">
		<use xlink:href="#SVGID_1_"  style="overflow:visible;"/>
	</clipPath>
	
		<linearGradient id="SVGID_3_" gradientUnits="userSpaceOnUse" x1="0" y1="31" x2="1" y2="31" gradientTransform="matrix(0 31 31 0 -943 0)">
		<stop  offset="0" style="stop-color:#FFFFFF"/>
		<stop  offset="1" style="stop-color:#D7E7FF"/>
	</linearGradient>
	<rect class="st0" width="36" height="31"/>
</g>
</svg>
