<?xml version="1.0" encoding="utf-8"?>
<!-- Generator: Adobe Illustrator 19.0.0, SVG Export Plug-In . SVG Version: 6.00 Build 0)  -->
<svg version="1.1" id="隔离模式" xmlns="http://www.w3.org/2000/svg" xmlns:xlink="http://www.w3.org/1999/xlink" x="0px"
	 y="0px" viewBox="0 0 200 100" style="enable-background:new 0 0 200 100;" xml:space="preserve">
<style type="text/css">
	.st0{fill:#1177EE;}
</style>
<g>
	<path class="st0" d="M68.6,45.8c-14,0-23.1-8.3-21.4-16.8c0,0,1.6-5.2,6.8-5.1c0,0-2.4-3.1,0.1-9.4c0,0-3,5.7-7.6,5.6
		c0,0,2.6,3.8,0.6,7.4c-2,3.6-3.4,19.8,19.2,23.1c22.6,3.3,38.4-12.8,38.4-12.8H92C92,37.8,82.5,45.8,68.6,45.8z"/>
	<path class="st0" d="M103.8,15.3h9.8c0,0-5.6-15.3-26.7-15.3c-19,0-29.7,12.2-29.7,12.2S91.4-10.5,103.8,15.3z"/>
	<path class="st0" d="M103.4,21.4c0-4-3.4-4.9-3.4-4.9H82.1l-5.5,17.4h-14l17.8-17.4H57.7l0,2.3l11.4,0l1.4,0l-19,17.8h31.7
		l5.2-17.8h3.3c1,0,4.2,0.2,4.2,3.1c0,2.9-5.3,4.5-5.3,4.5l-3.1,0.1v0.8l3.8,9.3h8.3l-4.4-8.9C100.7,27.7,103.4,25.4,103.4,21.4z"/>
	<path class="st0" d="M144.4,16.5h-13.9l-6.1,20.1h16.9c0,0,12.7-3.4,12.7-12C154,15.9,144.4,16.5,144.4,16.5z M139.6,33.9l-0.3,0.2
		l-0.4,0.1h-6.2l4.3-15.4h4.8c0.8,0,5,1.6,5,6.2C146.7,29.6,139.6,33.9,139.6,33.9z"/>
	<path class="st0" d="M127.2,21.1c0-3.8-2-4.7-7.2-4.7c-5.2,0.1-13.5,0-13.5,0l-5.6,20.1h7.6l2.6-8.5l10.9-0.3
		C122,27.8,127.2,25,127.2,21.1z M117.1,25.7l-0.1,0l-0.2,0h-5l2-7h3.4c0,0,3.2,0.3,3.2,2.7S117.1,25.7,117.1,25.7z"/>
</g>
<g>
	<path d="M9.4,67c0.4-0.1,0.6-0.2,0.6-0.4c0-0.2-0.2-0.3-0.5-0.3l-2.2-0.1v3.5H0v10.6h2v-1.4h5.3v5.4h2.1v-5.4h5.3v1.4h2V69.7H9.4
		V67z M7.3,76.9H2v-5.1h5.3V76.9z M14.7,71.8v5.1H9.4v-5.1H14.7z"/>
	<polygon points="34.4,79.1 31.5,79.1 31.5,77 33.9,77 33.9,75.1 31.5,75.1 31.5,73.1 34.1,73.1 34.1,71.2 27.1,71.2 27.1,73.1 
		29.6,73.1 29.6,75.1 27.4,75.1 27.4,77 29.6,77 29.6,79.1 26.8,79.1 26.8,81 34.4,81 	"/>
	<path d="M23.5,73.4c-1.3-1.1-2.3-1.8-3.1-2.3l-1.2,1.5c1.5,1.1,2.5,1.9,2.9,2.4L23.5,73.4z"/>
	<path d="M22.9,70.4l1.4-1.5c-0.6-0.6-1.6-1.5-2.8-2.5l-1.3,1.4C21.1,68.5,22,69.4,22.9,70.4z"/>
	<path d="M37.2,67.3H29v1.9h6.3V82c0.3,0.5-0.7,0.6-2.9,0.3c0.6,0.7,0.9,1.3,1,2c2.9,0.2,4.2-0.3,3.9-1.5V67.3z"/>
	<path d="M26,70.1l-2-0.1v14.2h2V70.7c0.3-0.1,0.4-0.2,0.4-0.3C26.4,70.2,26.3,70.1,26,70.1z"/>
	<path d="M27.3,70.6l1.3-1.3c-1.2-1.3-2.2-2.2-3-2.9l-1.3,1.2C25.3,68.3,26.3,69.3,27.3,70.6z"/>
	<path d="M21.9,76c-0.6,3.1-1.3,5.6-2.2,7.4l2.1,0.8c0.3,0.1,0.4,0.1,0.5-0.1c0.1-0.3,0-0.5-0.3-0.6c0.5-1.4,1.1-3.5,1.7-6.3
		C23.2,77,22.6,76.6,21.9,76z"/>
	<path d="M42,84.3h2v-0.7h9.7v0.7h2v-7.7H42V84.3z M44,78.3h9.7v1.1H44V78.3z M44,81h9.7v1.1H44V81z"/>
	<path d="M42.5,70.2l-1.6,0.9c0.7,0.9,1.3,1.8,1.6,2.5l1.7-0.9C43.8,71.9,43.2,71,42.5,70.2z"/>
	<path d="M52.2,69.9h5.1v-1.7h-4.2c0.1-0.1,0.1-0.2,0.2-0.4c0.1-0.3,0.2-0.4,0.2-0.6c0.4,0.1,0.6,0.1,0.6-0.2c0.1-0.3,0-0.4-0.3-0.5
		l-1.8-0.5c-0.2,0.6-0.4,1.3-0.9,2.1h-4.4c-0.5-0.9-0.8-1.6-1-2l-1.8,0.6c0.3,0.5,0.6,0.9,0.7,1.3h-4.3v1.7h5.1v3.9h-5.9v1.7h18.7
		v-1.7h-6V69.9z M50.1,73.8h-2.6v-3.9h2.6V73.8z"/>
	<path d="M54.8,70.1C54.5,71.1,54,72,53.3,73c0.7,0.2,1.3,0.4,1.7,0.7c0.4-0.6,0.8-1.4,1.3-2.3c0.3,0.1,0.5,0,0.6-0.2
		c0.1-0.2,0-0.4-0.3-0.5L54.8,70.1z"/>
	<path d="M68.2,81.8c-2,0.1-3.2-0.7-3.9-2.3v-7.4h-4.6v1.9h2.5v5.9c-0.4,0.4-1,1-1.7,1.7c-0.5,0.5-0.9,0.9-1.1,1l1.7,1.7
		c0.2,0.2,0.3,0.2,0.5,0c0.2-0.2,0.1-0.3-0.2-0.6c0.2-0.3,0.9-1,2-2.1c0.8,1.4,2.2,2.1,4,2.1H78c0.1-0.7,0.3-1.5,0.6-2.1
		c-1.8,0.2-3.9,0.2-6.1,0.2H68.2z"/>
	<path d="M64.9,78.8c0.6,0.6,1.1,1.2,1.4,1.8c2.6-1.5,4.3-3.2,5.2-5.1c2.2,1.9,3.9,3.5,5.1,4.9l1.3-1.9c-1.8-1.8-3.8-3.5-5.8-5
		c0.2-0.5,0.3-1.1,0.3-1.7H78v-2h-5.3V67c0.4-0.1,0.6-0.3,0.6-0.5c0-0.2-0.2-0.3-0.5-0.3l-2.2-0.1v3.7h-4.9v2h4.8
		C70.1,74.8,68.3,77.1,64.9,78.8z"/>
	<path d="M64.9,70c-0.7-1.5-1.5-2.8-2.1-3.7l-1.8,0.9c0.9,1.3,1.6,2.6,2.1,3.9L64.9,70z"/>
	<path d="M82.3,69.5l1.7-0.9c-0.3-0.6-0.7-1.3-1.3-1.9l-1.7,0.9c0.1,0.1,0.2,0.3,0.3,0.5C81.8,68.5,82,69,82.3,69.5z"/>
	<path d="M89,69.1c0.4-0.7,0.6-1.1,0.6-1.3c0.3,0,0.5-0.1,0.5-0.2c0.1-0.2,0-0.3-0.2-0.5h-0.1l-1.5-0.5c-0.2,0.6-0.5,1.3-1.1,2.1
		c0.5,0.1,1.1,0.3,1.7,0.6C88.9,69.4,89,69.3,89,69.1z"/>
	<path d="M90.1,81.1l-2.2-0.8c0.5-0.6,1-1.7,1.7-3.3l-1-0.7h-3.6c0.1-0.1,0.1-0.2,0.2-0.3c0.1-0.2,0.1-0.3,0.1-0.3
		c0.4,0.1,0.6,0,0.6-0.2c0-0.2,0-0.3-0.1-0.3h0.9v-3c0.6,1.1,1.3,1.9,2.2,2.5c0.2-0.4,0.6-0.9,1-1.6c0.1-0.1,0.1-0.2,0.2-0.2
		c-1-0.3-1.8-0.8-2.5-1.6h2.9v-1.6h-3.9V67c0.3-0.1,0.5-0.2,0.5-0.4c0.1-0.2-0.1-0.2-0.4-0.2l-1.9-0.1v3.5h-4.4v1.6h3.1
		c-0.8,0.9-2,1.6-3.6,2.1c0.7,0.6,1.2,1.1,1.4,1.7c1.4-0.8,2.6-1.8,3.4-3v2.8l-1.4-0.3c-0.2,0.5-0.3,1.1-0.6,1.7H80V78h2.1
		c-0.4,0.8-0.8,1.6-1.2,2.4c1.2,0.3,2.3,0.6,3.3,0.9c-1,0.6-2.5,1-4.5,1.3c0.7,0.7,1.2,1.4,1.3,1.9c2.4-0.6,4.2-1.4,5.5-2.4
		c0.8,0.3,1.6,0.5,2.5,0.8L90.1,81.1z M86.1,79.8c-0.3-0.1-0.6-0.2-1.1-0.3c-0.5-0.2-0.9-0.3-1.2-0.3c0.2-0.3,0.3-0.7,0.5-1.2h3
		C87,78.7,86.6,79.3,86.1,79.8z"/>
	<path d="M95.6,79.8c1.1-2.1,1.8-4.8,2-8.2h1.1v-1.7h-5.4c0.3-1.2,0.5-2.2,0.6-2.8c0.4-0.1,0.6-0.2,0.6-0.3
		c-0.1-0.2-0.2-0.3-0.5-0.3l-2-0.2c-0.4,3.3-1.4,6.4-3,9.2c0.7,0.3,1.3,0.7,1.7,1.3c0.2-0.4,0.4-0.8,0.6-1.3
		c0.5,1.7,1.1,3.2,1.7,4.5C92.3,81,90.8,82,88.9,83c0.8,0.5,1.3,1,1.6,1.4c1.6-0.8,2.9-1.7,3.9-2.8c0.8,0.8,1.8,1.8,3,2.8
		c0.4-0.8,0.9-1.4,1.5-1.8C97.5,81.9,96.4,80.9,95.6,79.8z M94.4,77.9c-0.7-1.6-1.3-3.5-1.8-5.6c0.1-0.2,0.2-0.4,0.2-0.6h2.8
		C95.4,74.4,95.1,76.5,94.4,77.9z"/>
	<path d="M104.7,76.9c0.6-0.2,1.1-0.3,1.7-0.6c-0.1-0.7-0.1-1.3,0.1-2c-0.6,0.2-1.2,0.4-1.7,0.6v-3.2h1.8V70h-1.8v-3
		c0.3-0.1,0.5-0.2,0.5-0.3c0-0.2-0.1-0.3-0.4-0.3l-2.1-0.1V70h-2.2v1.8h2.2v3.9c-0.2,0.1-0.6,0.2-1,0.3c-0.7,0.2-1.2,0.3-1.5,0.4
		l0.6,1.8c0.1,0.3,0.2,0.4,0.4,0.4c0.3-0.1,0.3-0.2,0.2-0.6c0.2-0.1,0.4-0.1,0.6-0.2c0.3-0.1,0.5-0.1,0.6-0.2v3.8
		c0.2,0.7-0.6,1-2.4,0.8c0.4,0.6,0.7,1.3,0.8,2.1c2.6,0.2,3.8-0.7,3.6-2.6V76.9z"/>
	<path d="M114.8,73c0.3,0,0.5-0.1,0.5-0.3c0-0.2-0.1-0.3-0.4-0.3l-2-0.1v1.7h-4v-0.2v-1.7h9.6v-5.3h-11.6V74c0.1,4-0.6,7.1-1.9,9.4
		c0.6,0.1,1.2,0.4,1.8,0.9c1.2-2.2,1.9-5,2-8.5h4v1.7h-3.5v6.6h1.9v-0.6h5.1v0.6h1.9v-6.6h-3.6v-1.7h4.2v-1.8h-4.2V73z M108.9,68.6
		h7.7v1.8h-7.7V68.6z M116.4,79.4v2.8h-5.1v-2.8H116.4z"/>
	<path d="M137.3,76.6l1.5-1.7c-2-1.7-3.7-3.2-5.4-4.3l-1.4,1.7C134.1,73.8,135.9,75.2,137.3,76.6z"/>
	<path d="M139,68.5h-8.1V67c0.4-0.1,0.6-0.3,0.6-0.5c0-0.2-0.2-0.3-0.5-0.3l-2.2-0.1v2.4h-8v1.9H139V68.5z"/>
	<path d="M122.4,77c2.1-1.5,3.8-3.1,5-4.7c0.3,0.2,0.5,0.1,0.6-0.1c0.1-0.2,0-0.3-0.3-0.5l-1.7-1c-1.4,1.8-3.2,3.3-5.2,4.6
		C121.5,75.9,122,76.5,122.4,77z"/>
	<path d="M134.5,75.3c0.4,0.1,0.7,0,0.7-0.2c0.1-0.2-0.1-0.4-0.5-0.6l-1.9-0.6c-0.6,1.7-1.6,3.2-3,4.5c-1.1-1-2-2.4-2.9-4.2l-1.8,1
		c0.9,1.7,2,3.2,3,4.4c-1.9,1.2-4.5,2.1-7.7,2.7c0.6,0.5,1.1,1.1,1.5,2c3.3-0.8,6-1.8,7.9-3.2c2.1,1.4,4.9,2.4,8.6,3.1
		c0.3-0.8,0.6-1.5,1-2c-3.3-0.4-5.9-1.2-8-2.5C132.8,78.5,133.8,77,134.5,75.3z"/>
	<path d="M146.3,76.1c0.2-0.2,0.3-0.4,0.5-0.6c0.3,0.1,0.5,0,0.6-0.2c0.1-0.3-0.1-0.4-0.4-0.5l-0.9-0.2h11.5v-7.4h-14.2v7.4h1.7
		c-0.9,1.6-2.4,2.9-4.3,4c0.6,0.4,1.1,0.9,1.4,1.5c0.9-0.6,1.8-1.3,2.6-2.1h2.8c-1.5,1.7-3.6,3.1-6.3,4.2c0.5,0.3,1,0.8,1.5,1.6
		c3.3-1.7,5.6-3.6,7.1-5.8h2.6c-1.3,2.3-3.4,3.9-6.3,5c0.6,0.4,1.1,0.9,1.5,1.6c3.3-1.5,5.6-3.7,7-6.6h1.7c0,0.3,0,1-0.1,2.1
		c0,0.8,0,1.3,0,1.5c-0.1,0.9-1.3,1.2-3.6,0.9c0.5,0.7,0.7,1.4,0.8,2.1c3.5,0.2,5.2-0.8,5-3.2c0.1-2.5,0.1-4.2,0.1-5.1H146.3z
		 M145.4,68.9h10.1v1h-10.1V68.9z M145.4,71.6h10.1v1.1h-10.1V71.6z"/>
	<polygon points="171.3,69 178.7,69 178.7,67 162.1,67 162.1,69 169.2,69 169.2,77.2 161.1,77.2 161.1,79.1 169.2,79.1 169.2,84.3 
		171.3,84.3 171.3,79.1 179.7,79.1 179.7,77.2 171.3,77.2 	"/>
	<path d="M165.2,70.2l-1.9,0.9c1.1,1.6,1.9,3.4,2.5,5.2l1.9-0.9C167,73.6,166.2,71.8,165.2,70.2z"/>
	<path d="M175.1,70.1c-0.5,1.7-1.3,3.6-2.5,5.7c0.7,0.1,1.4,0.3,2.1,0.7c0.9-1.8,1.6-3.6,2.1-5.1c0.2,0.1,0.4,0.1,0.5-0.1
		c0.2-0.2,0.1-0.4-0.3-0.6L175.1,70.1z"/>
	<path d="M194.8,68.1l-1.4,1.3c0.8,0.8,1.6,1.6,2.3,2.5c-3.1,0.1-6.1,0.2-9.1,0.2c1-1.1,2.2-2.6,3.5-4.4c0.3,0.1,0.5,0.1,0.6-0.2
		c0.1-0.2,0-0.4-0.3-0.5l-2-0.8c-1.3,2.1-2.7,4-4.4,5.9c-0.8-0.1-1.5-0.1-2.1-0.1l0.2,2.2c0.1,0.4,0.3,0.6,0.6,0.6
		c0.3,0,0.4-0.2,0.4-0.6c5.2-0.1,9.9-0.2,14.1-0.6c0.2,0.2,0.4,0.4,0.7,0.8c0.3,0.4,0.5,0.7,0.6,0.9l1.6-1.3
		C198.3,71.9,196.6,70,194.8,68.1z"/>
	<path d="M183.1,84.4h2v-0.9H196v0.8h2v-8.8h-14.9V84.4z M185,77.5H196v4.4H185V77.5z"/>
</g>
<g>
	<path d="M40.5,89.5h3.1c2.5,0,3.4,0.9,3.4,2.4c0,1.3-0.9,2-2.4,2.3c0.2,0.1,0.4,0.2,0.6,0.4l2.7,3h-1.5l-2.6-2.9
		c-0.3-0.4-0.5-0.4-1.2-0.4h-1.1v3.3h-1.2V89.5z M41.7,90.5v2.9h1.7c1.9,0,2.5-0.4,2.5-1.5s-0.6-1.4-2.5-1.4H41.7z"/>
	<path d="M53.7,97.1c-0.6,0.4-1.4,0.6-2.4,0.6c-1.4,0-2.7-0.4-2.7-2.2v-3.7h1.1v3.5c0,1.1,0.7,1.5,1.9,1.5c0.9,0,1.4-0.2,2-0.5v-4.5
		h1.1v5.7h-0.9L53.7,97.1z"/>
	<path d="M56.8,91.9h0.9l0.1,0.6c0.6-0.4,1.5-0.7,2.5-0.7c1.4,0,2.7,0.5,2.7,2.2v3.7h-1.1v-3.5c0-1.1-0.6-1.5-1.8-1.5
		c-0.9,0-1.7,0.3-2.2,0.6v4.4h-1.1V91.9z"/>
	<path d="M69.9,97.1c-0.6,0.4-1.4,0.6-2.4,0.6c-1.4,0-2.7-0.4-2.7-2.2v-3.7h1.1v3.5c0,1.1,0.7,1.5,1.9,1.5c0.9,0,1.4-0.2,2-0.5v-4.5
		h1.1v5.7H70L69.9,97.1z"/>
	<path d="M72.9,91.9h0.9l0.1,0.5c0.6-0.4,1.4-0.6,2.3-0.6c2,0,3.3,1.1,3.3,3c0,1.9-1.3,3-3.4,3c-0.8,0-1.6-0.2-2.1-0.5v2.8h-1.1
		V91.9z M78.4,94.8c0-1.4-0.9-2.2-2.4-2.2c-0.8,0-1.4,0.2-2,0.6v3.2c0.5,0.3,1.2,0.6,2,0.6C77.6,96.9,78.4,96.2,78.4,94.8z"/>
	<path d="M84.3,89.5h3.2c2.8,0,4.4,1.6,4.4,4.1c0,2.4-1.7,4.1-4.4,4.1h-3.2V89.5z M85.4,90.5v6.2h2.2c2.1,0,3.2-1.3,3.2-3.1
		s-1.1-3.1-3.2-3.1H85.4z"/>
	<path d="M98,97.1c-0.6,0.4-1.4,0.7-2.4,0.7c-1.4,0-2.5-0.6-2.5-1.7c0-1.1,1-1.8,3.5-1.8c0.4,0,0.9,0,1.4,0v-0.2
		c0-0.9-0.6-1.5-1.9-1.5c-1.2,0-1.8,0.2-2.4,0.4v-0.9c0.6-0.3,1.4-0.5,2.5-0.5c1.7,0,2.9,0.7,2.9,2.2v3.7h-0.9L98,97.1z M98,96.4
		v-1.3h-1.1c-1.9,0-2.6,0.3-2.6,0.9c0,0.6,0.5,0.9,1.6,0.9C96.7,96.9,97.5,96.7,98,96.4z"/>
	<path d="M99.9,91.9h1.3l0.1-1.4h0.9v1.4h2.8v0.9h-2.8v3.1c0,0.8,0.4,1.1,1.3,1.1c0.5,0,1-0.1,1.4-0.2v0.9c-0.4,0.2-1,0.3-1.7,0.3
		c-1.4,0-2.1-0.5-2.1-1.8v-3.2h-1.2V91.9z"/>
	<path d="M110.8,97.1c-0.6,0.4-1.4,0.7-2.4,0.7c-1.4,0-2.5-0.6-2.5-1.7c0-1.1,1-1.8,3.5-1.8c0.4,0,0.9,0,1.4,0v-0.2
		c0-0.9-0.6-1.5-1.9-1.5c-1.2,0-1.8,0.2-2.4,0.4v-0.9c0.6-0.3,1.4-0.5,2.5-0.5c1.7,0,2.9,0.7,2.9,2.2v3.7h-0.9L110.8,97.1z
		 M110.7,96.4v-1.3h-1.1c-1.9,0-2.6,0.3-2.6,0.9c0,0.6,0.5,0.9,1.6,0.9C109.5,96.9,110.2,96.7,110.7,96.4z"/>
	<path d="M116.9,89.5h1.3l3.4,4.6l3.4-4.6h1.2v8.1h-1.1v-6.6l-3.2,4.3h-0.6l-3.2-4.3v6.6h-1.1V89.5z"/>
	<path d="M132.9,97.1c-0.6,0.4-1.4,0.7-2.4,0.7c-1.4,0-2.5-0.6-2.5-1.7c0-1.1,1-1.8,3.5-1.8c0.4,0,0.9,0,1.4,0v-0.2
		c0-0.9-0.6-1.5-1.9-1.5c-1.2,0-1.8,0.2-2.4,0.4v-0.9c0.6-0.3,1.4-0.5,2.5-0.5c1.7,0,2.9,0.7,2.9,2.2v3.7H133L132.9,97.1z
		 M132.8,96.4v-1.3h-1.1c-1.9,0-2.6,0.3-2.6,0.9c0,0.6,0.5,0.9,1.6,0.9C131.5,96.9,132.3,96.7,132.8,96.4z"/>
	<path d="M135.8,91.9h1l0.1,1c0.4-0.6,1.1-1.2,2.2-1.2c0.4,0,0.8,0.1,1,0.1v1c-0.3-0.1-0.7-0.1-1.2-0.1c-1.2,0-1.8,0.7-2,1.1v3.7
		h-1.1V91.9z"/>
	<path d="M141.1,89.5h1.1v4.9l3.4-2.5h1.5l-3.9,2.8l4.1,2.9h-1.7l-3.5-2.6v2.6h-1.1V89.5z"/>
	<path d="M153.5,96.4v0.9c-0.6,0.3-1.5,0.5-2.6,0.5c-2.3,0-3.4-1.3-3.4-3.1c0-1.6,1.2-2.9,3.2-2.9c2,0,3.2,1.2,3.2,2.8
		c0,0.1,0,0.3,0,0.4h-5.2c0.1,1.1,0.8,1.9,2.4,1.9C152.1,96.9,152.8,96.6,153.5,96.4z M148.6,94.1h4.2c-0.1-0.9-1-1.5-2.1-1.5
		C149.5,92.6,148.7,93.2,148.6,94.1z"/>
	<path d="M154.4,91.9h1.3l0.1-1.4h0.9v1.4h2.8v0.9h-2.8v3.1c0,0.8,0.4,1.1,1.3,1.1c0.5,0,1-0.1,1.4-0.2v0.9c-0.4,0.2-1,0.3-1.7,0.3
		c-1.4,0-2.1-0.5-2.1-1.8v-3.2h-1.2V91.9z"/>
</g>
</svg>
