<?xml version="1.0" encoding="utf-8"?>
<!-- Generator: Adobe Illustrator 19.0.0, SVG Export Plug-In . SVG Version: 6.00 Build 0)  -->
<svg version="1.1" id="图层_1" xmlns="http://www.w3.org/2000/svg" xmlns:xlink="http://www.w3.org/1999/xlink" x="0px" y="0px"
	 viewBox="0 0 260 38" style="enable-background:new 0 0 260 38;" xml:space="preserve">
<style type="text/css">
	.st0{fill:url(#SVGID_1_);}
	.st1{fill:url(#SVGID_2_);}
	.st2{fill:#1177EE;}
</style>
<g>
	<linearGradient id="SVGID_1_" gradientUnits="userSpaceOnUse" x1="0" y1="21.1537" x2="39.8747" y2="21.1537">
		<stop  offset="0" style="stop-color:#1177EE"/>
		<stop  offset="1" style="stop-color:#34CE54"/>
	</linearGradient>
	<path class="st0" d="M19.9,8.5c0,0.5-0.4,0.9-0.9,0.9S18.2,9,18.2,8.5c0-0.5,0.4-0.9,0.9-0.9S19.9,8,19.9,8.5z M19.1,10.8
		c-0.5,0-0.9,0.4-0.9,0.9c0,0.5,0.4,0.9,0.9,0.9s0.9-0.4,0.9-0.9C19.9,11.2,19.6,10.8,19.1,10.8z M19.1,13.9c-0.5,0-0.9,0.4-0.9,0.9
		s0.4,0.9,0.9,0.9s0.9-0.4,0.9-0.9S19.6,13.9,19.1,13.9z M19.1,17.1c-0.5,0-0.9,0.4-0.9,0.9s0.4,0.9,0.9,0.9s0.9-0.4,0.9-0.9
		S19.6,17.1,19.1,17.1z M19.1,20.3c-0.5,0-0.9,0.4-0.9,0.9s0.4,0.9,0.9,0.9s0.9-0.4,0.9-0.9S19.6,20.3,19.1,20.3z M19.1,23.4
		c-0.5,0-0.9,0.4-0.9,0.9s0.4,0.9,0.9,0.9s0.9-0.4,0.9-0.9S19.6,23.4,19.1,23.4z M19.1,26.4c-0.5,0-0.9,0.4-0.9,0.9s0.4,0.9,0.9,0.9
		s0.9-0.4,0.9-0.9S19.6,26.4,19.1,26.4z M19.1,29.6c-0.5,0-0.9,0.4-0.9,0.9s0.4,0.9,0.9,0.9s0.9-0.4,0.9-0.9S19.6,29.6,19.1,29.6z
		 M19.1,32.8c-0.5,0-0.9,0.4-0.9,0.9s0.4,0.9,0.9,0.9s0.9-0.4,0.9-0.9S19.6,32.8,19.1,32.8z M17.6,31.2c-0.5,0-0.9,0.4-0.9,0.9
		s0.4,0.9,0.9,0.9s0.9-0.4,0.9-0.9S18.1,31.2,17.6,31.2z M17.6,28c-0.5,0-0.9,0.4-0.9,0.9s0.4,0.9,0.9,0.9s0.9-0.4,0.9-0.9
		S18.1,28,17.6,28z M17.6,25c-0.5,0-0.9,0.4-0.9,0.9c0,0.5,0.4,0.9,0.9,0.9s0.9-0.4,0.9-0.9C18.5,25.4,18.1,25,17.6,25z M17.6,21.8
		c-0.5,0-0.9,0.4-0.9,0.9s0.4,0.9,0.9,0.9s0.9-0.4,0.9-0.9S18.1,21.8,17.6,21.8z M17.6,18.7c-0.5,0-0.9,0.4-0.9,0.9s0.4,0.9,0.9,0.9
		s0.9-0.4,0.9-0.9S18.1,18.7,17.6,18.7z M17.6,15.5c-0.5,0-0.9,0.4-0.9,0.9s0.4,0.9,0.9,0.9s0.9-0.4,0.9-0.9S18.1,15.5,17.6,15.5z
		 M17.6,12.3c-0.5,0-0.9,0.4-0.9,0.9s0.4,0.9,0.9,0.9s0.9-0.4,0.9-0.9S18.1,12.3,17.6,12.3z M17.6,9.2c-0.5,0-0.9,0.4-0.9,0.9
		c0,0.5,0.4,0.9,0.9,0.9s0.9-0.4,0.9-0.9C18.5,9.6,18.1,9.2,17.6,9.2z M22.2,7.6c-0.5,0-0.9,0.4-0.9,0.9c0,0.5,0.4,0.9,0.9,0.9
		S23,9,23,8.5C23,8,22.6,7.6,22.2,7.6z M22.2,10.8c-0.5,0-0.9,0.4-0.9,0.9c0,0.5,0.4,0.9,0.9,0.9s0.9-0.4,0.9-0.9
		C23,11.2,22.6,10.8,22.2,10.8z M22.2,13.9c-0.5,0-0.9,0.4-0.9,0.9s0.4,0.9,0.9,0.9s0.9-0.4,0.9-0.9S22.6,13.9,22.2,13.9z
		 M22.2,26.4c-0.5,0-0.9,0.4-0.9,0.9s0.4,0.9,0.9,0.9s0.9-0.4,0.9-0.9S22.6,26.4,22.2,26.4z M22.2,29.6c-0.5,0-0.9,0.4-0.9,0.9
		s0.4,0.9,0.9,0.9S23,31,23,30.5S22.6,29.6,22.2,29.6z M22.2,32.8c-0.5,0-0.9,0.4-0.9,0.9s0.4,0.9,0.9,0.9s0.9-0.4,0.9-0.9
		S22.6,32.8,22.2,32.8z M20.7,31.2c-0.5,0-0.9,0.4-0.9,0.9s0.4,0.9,0.9,0.9s0.9-0.4,0.9-0.9S21.2,31.2,20.7,31.2z M20.7,34.4
		c-0.5,0-0.9,0.4-0.9,0.9s0.4,0.9,0.9,0.9s0.9-0.4,0.9-0.9S21.2,34.4,20.7,34.4z M20.7,28c-0.5,0-0.9,0.4-0.9,0.9s0.4,0.9,0.9,0.9
		s0.9-0.4,0.9-0.9S21.2,28,20.7,28z M20.7,25c-0.5,0-0.9,0.4-0.9,0.9c0,0.5,0.4,0.9,0.9,0.9s0.9-0.4,0.9-0.9
		C21.5,25.4,21.2,25,20.7,25z M25.2,29.6c-0.5,0-0.9,0.4-0.9,0.9s0.4,0.9,0.9,0.9s0.9-0.4,0.9-0.9S25.7,29.6,25.2,29.6z M25.2,32.8
		c-0.5,0-0.9,0.4-0.9,0.9s0.4,0.9,0.9,0.9s0.9-0.4,0.9-0.9S25.7,32.8,25.2,32.8z M23.8,34.4c-0.5,0-0.9,0.4-0.9,0.9s0.4,0.9,0.9,0.9
		c0.5,0,0.9-0.4,0.9-0.9S24.2,34.4,23.8,34.4z M25.2,26.4c-0.5,0-0.9,0.4-0.9,0.9s0.4,0.9,0.9,0.9s0.9-0.4,0.9-0.9
		S25.7,26.4,25.2,26.4z M23.8,31.2c-0.5,0-0.9,0.4-0.9,0.9s0.4,0.9,0.9,0.9c0.5,0,0.9-0.4,0.9-0.9S24.2,31.2,23.8,31.2z M23.8,28.2
		c-0.5,0-0.9,0.4-0.9,0.9c0,0.5,0.4,0.9,0.9,0.9c0.5,0,0.9-0.4,0.9-0.9C24.6,28.6,24.2,28.2,23.8,28.2z M28.4,29.6
		c-0.5,0-0.9,0.4-0.9,0.9s0.4,0.9,0.9,0.9s0.9-0.4,0.9-0.9S28.9,29.6,28.4,29.6z M28.4,32.8c-0.5,0-0.9,0.4-0.9,0.9s0.4,0.9,0.9,0.9
		s0.9-0.4,0.9-0.9S28.9,32.8,28.4,32.8z M27,34.4c-0.5,0-0.9,0.4-0.9,0.9s0.4,0.9,0.9,0.9c0.5,0,0.9-0.4,0.9-0.9S27.4,34.4,27,34.4z
		 M28.4,26.4c-0.5,0-0.9,0.4-0.9,0.9s0.4,0.9,0.9,0.9s0.9-0.4,0.9-0.9S28.9,26.4,28.4,26.4z M27,31.2c-0.5,0-0.9,0.4-0.9,0.9
		S26.5,33,27,33c0.5,0,0.9-0.4,0.9-0.9S27.4,31.2,27,31.2z M27,28.2c-0.5,0-0.9,0.4-0.9,0.9c0,0.5,0.4,0.9,0.9,0.9
		c0.5,0,0.9-0.4,0.9-0.9C27.8,28.6,27.4,28.2,27,28.2z M29.9,31.2c-0.5,0-0.9,0.4-0.9,0.9s0.4,0.9,0.9,0.9s0.9-0.4,0.9-0.9
		S30.4,31.2,29.9,31.2z M29.9,28.2c-0.5,0-0.9,0.4-0.9,0.9c0,0.5,0.4,0.9,0.9,0.9s0.9-0.4,0.9-0.9C30.8,28.6,30.4,28.2,29.9,28.2z
		 M20.7,15.5c-0.5,0-0.9,0.4-0.9,0.9s0.4,0.9,0.9,0.9s0.9-0.4,0.9-0.9S21.2,15.5,20.7,15.5z M20.7,12.3c-0.5,0-0.9,0.4-0.9,0.9
		s0.4,0.9,0.9,0.9s0.9-0.4,0.9-0.9S21.2,12.3,20.7,12.3z M20.7,9.2c-0.5,0-0.9,0.4-0.9,0.9c0,0.5,0.4,0.9,0.9,0.9s0.9-0.4,0.9-0.9
		C21.5,9.6,21.2,9.2,20.7,9.2z M20.7,6.1c-0.5,0-0.9,0.4-0.9,0.9s0.4,0.9,0.9,0.9s0.9-0.4,0.9-0.9S21.2,6.1,20.7,6.1z M25.1,7.6
		c-0.5,0-0.9,0.4-0.9,0.9c0,0.5,0.4,0.9,0.9,0.9S26,9,26,8.5C26,8,25.6,7.6,25.1,7.6z M25.1,10.8c-0.5,0-0.9,0.4-0.9,0.9
		c0,0.5,0.4,0.9,0.9,0.9s0.9-0.4,0.9-0.9C26,11.2,25.6,10.8,25.1,10.8z M25.1,13.9c-0.5,0-0.9,0.4-0.9,0.9s0.4,0.9,0.9,0.9
		s0.9-0.4,0.9-0.9S25.6,13.9,25.1,13.9z M23.6,12.3c-0.5,0-0.9,0.4-0.9,0.9s0.4,0.9,0.9,0.9s0.9-0.4,0.9-0.9S24.1,12.3,23.6,12.3z
		 M23.6,9.2c-0.5,0-0.9,0.4-0.9,0.9c0,0.5,0.4,0.9,0.9,0.9s0.9-0.4,0.9-0.9C24.5,9.6,24.1,9.2,23.6,9.2z M23.6,6.1
		c-0.5,0-0.9,0.4-0.9,0.9s0.4,0.9,0.9,0.9s0.9-0.4,0.9-0.9S24.1,6.1,23.6,6.1z M28.2,7.6c-0.5,0-0.9,0.4-0.9,0.9
		c0,0.5,0.4,0.9,0.9,0.9S29,9,29,8.5C29,8,28.7,7.6,28.2,7.6z M28.2,10.8c-0.5,0-0.9,0.4-0.9,0.9c0,0.5,0.4,0.9,0.9,0.9
		s0.9-0.4,0.9-0.9C29,11.2,28.7,10.8,28.2,10.8z M28.2,13.9c-0.5,0-0.9,0.4-0.9,0.9s0.4,0.9,0.9,0.9s0.9-0.4,0.9-0.9
		S28.7,13.9,28.2,13.9z M26.7,12.3c-0.5,0-0.9,0.4-0.9,0.9s0.4,0.9,0.9,0.9s0.9-0.4,0.9-0.9S27.2,12.3,26.7,12.3z M26.7,9.2
		c-0.5,0-0.9,0.4-0.9,0.9c0,0.5,0.4,0.9,0.9,0.9s0.9-0.4,0.9-0.9C27.6,9.6,27.2,9.2,26.7,9.2z M26.7,6.1c-0.5,0-0.9,0.4-0.9,0.9
		s0.4,0.9,0.9,0.9s0.9-0.4,0.9-0.9S27.2,6.1,26.7,6.1z M31.3,10.8c-0.5,0-0.9,0.4-0.9,0.9c0,0.5,0.4,0.9,0.9,0.9s0.9-0.4,0.9-0.9
		C32.1,11.2,31.7,10.8,31.3,10.8z M31.3,7.7c-0.5,0-0.9,0.4-0.9,0.9s0.4,0.9,0.9,0.9s0.9-0.4,0.9-0.9S31.7,7.7,31.3,7.7z M31.3,14
		c-0.5,0-0.9,0.4-0.9,0.9s0.4,0.9,0.9,0.9s0.9-0.4,0.9-0.9S31.7,14,31.3,14z M31.3,17.1c-0.5,0-0.9,0.4-0.9,0.9s0.4,0.9,0.9,0.9
		s0.9-0.4,0.9-0.9S31.7,17.1,31.3,17.1z M31.3,23.1c-0.5,0-0.9,0.4-0.9,0.9s0.4,0.9,0.9,0.9s0.9-0.4,0.9-0.9S31.7,23.1,31.3,23.1z
		 M29.9,24.8c-0.5,0-0.9,0.4-0.9,0.9s0.4,0.9,0.9,0.9s0.9-0.4,0.9-0.9S30.4,24.8,29.9,24.8z M31.3,20c-0.5,0-0.9,0.4-0.9,0.9
		s0.4,0.9,0.9,0.9s0.9-0.4,0.9-0.9S31.7,20,31.3,20z M31.3,26.3c-0.5,0-0.9,0.4-0.9,0.9s0.4,0.9,0.9,0.9s0.9-0.4,0.9-0.9
		S31.7,26.3,31.3,26.3z M31.3,29.6c-0.5,0-0.9,0.4-0.9,0.9s0.4,0.9,0.9,0.9s0.9-0.4,0.9-0.9S31.7,29.6,31.3,29.6z M31.3,32.7
		c-0.5,0-0.9,0.4-0.9,0.9s0.4,0.9,0.9,0.9s0.9-0.4,0.9-0.9S31.7,32.7,31.3,32.7z M29.8,15.5c-0.5,0-0.9,0.4-0.9,0.9s0.4,0.9,0.9,0.9
		s0.9-0.4,0.9-0.9S30.3,15.5,29.8,15.5z M29.8,12.4c-0.5,0-0.9,0.4-0.9,0.9c0,0.5,0.4,0.9,0.9,0.9s0.9-0.4,0.9-0.9
		C30.6,12.8,30.3,12.4,29.8,12.4z M29.8,9.3c-0.5,0-0.9,0.4-0.9,0.9s0.4,0.9,0.9,0.9s0.9-0.4,0.9-0.9S30.3,9.3,29.8,9.3z M16.1,7.6
		c-0.5,0-0.9,0.4-0.9,0.9c0,0.5,0.4,0.9,0.9,0.9C16.6,9.3,17,9,17,8.5C17,8,16.6,7.6,16.1,7.6z M16.1,10.8c-0.5,0-0.9,0.4-0.9,0.9
		c0,0.5,0.4,0.9,0.9,0.9c0.5,0,0.9-0.4,0.9-0.9C17,11.2,16.6,10.8,16.1,10.8z M16.1,13.9c-0.5,0-0.9,0.4-0.9,0.9s0.4,0.9,0.9,0.9
		c0.5,0,0.9-0.4,0.9-0.9S16.6,13.9,16.1,13.9z M16.1,17.1c-0.5,0-0.9,0.4-0.9,0.9s0.4,0.9,0.9,0.9c0.5,0,0.9-0.4,0.9-0.9
		S16.6,17.1,16.1,17.1z M16.1,20.3c-0.5,0-0.9,0.4-0.9,0.9s0.4,0.9,0.9,0.9c0.5,0,0.9-0.4,0.9-0.9S16.6,20.3,16.1,20.3z M16.1,23.4
		c-0.5,0-0.9,0.4-0.9,0.9s0.4,0.9,0.9,0.9c0.5,0,0.9-0.4,0.9-0.9S16.6,23.4,16.1,23.4z M16.1,26.4c-0.5,0-0.9,0.4-0.9,0.9
		s0.4,0.9,0.9,0.9c0.5,0,0.9-0.4,0.9-0.9S16.6,26.4,16.1,26.4z M16.1,29.6c-0.5,0-0.9,0.4-0.9,0.9s0.4,0.9,0.9,0.9
		c0.5,0,0.9-0.4,0.9-0.9S16.6,29.6,16.1,29.6z M16.1,32.8c-0.5,0-0.9,0.4-0.9,0.9s0.4,0.9,0.9,0.9c0.5,0,0.9-0.4,0.9-0.9
		S16.6,32.8,16.1,32.8z M14.6,31.2c-0.5,0-0.9,0.4-0.9,0.9s0.4,0.9,0.9,0.9s0.9-0.4,0.9-0.9S15.1,31.2,14.6,31.2z M14.6,28
		c-0.5,0-0.9,0.4-0.9,0.9s0.4,0.9,0.9,0.9s0.9-0.4,0.9-0.9S15.1,28,14.6,28z M14.6,25c-0.5,0-0.9,0.4-0.9,0.9c0,0.5,0.4,0.9,0.9,0.9
		s0.9-0.4,0.9-0.9C15.5,25.4,15.1,25,14.6,25z M14.6,21.8c-0.5,0-0.9,0.4-0.9,0.9s0.4,0.9,0.9,0.9s0.9-0.4,0.9-0.9
		S15.1,21.8,14.6,21.8z M14.6,18.7c-0.5,0-0.9,0.4-0.9,0.9s0.4,0.9,0.9,0.9s0.9-0.4,0.9-0.9S15.1,18.7,14.6,18.7z M14.6,15.5
		c-0.5,0-0.9,0.4-0.9,0.9s0.4,0.9,0.9,0.9s0.9-0.4,0.9-0.9S15.1,15.5,14.6,15.5z M14.6,12.3c-0.5,0-0.9,0.4-0.9,0.9s0.4,0.9,0.9,0.9
		s0.9-0.4,0.9-0.9S15.1,12.3,14.6,12.3z M14.6,9.2c-0.5,0-0.9,0.4-0.9,0.9c0,0.5,0.4,0.9,0.9,0.9s0.9-0.4,0.9-0.9
		C15.5,9.6,15.1,9.2,14.6,9.2z M35.8,28c-0.5,0-0.9,0.4-0.9,0.9s0.4,0.9,0.9,0.9s0.9-0.4,0.9-0.9S36.3,28,35.8,28z M35.8,25
		c-0.5,0-0.9,0.4-0.9,0.9c0,0.5,0.4,0.9,0.9,0.9s0.9-0.4,0.9-0.9C36.7,25.4,36.3,25,35.8,25z M35.8,21.8c-0.5,0-0.9,0.4-0.9,0.9
		s0.4,0.9,0.9,0.9s0.9-0.4,0.9-0.9S36.3,21.8,35.8,21.8z M35.8,18.7c-0.5,0-0.9,0.4-0.9,0.9s0.4,0.9,0.9,0.9s0.9-0.4,0.9-0.9
		S36.3,18.7,35.8,18.7z M39,21.8c-0.5,0-0.9,0.4-0.9,0.9s0.4,0.9,0.9,0.9s0.9-0.4,0.9-0.9S39.5,21.8,39,21.8z M39,18.7
		c-0.5,0-0.9,0.4-0.9,0.9s0.4,0.9,0.9,0.9s0.9-0.4,0.9-0.9S39.5,18.7,39,18.7z M35.8,15.5c-0.5,0-0.9,0.4-0.9,0.9s0.4,0.9,0.9,0.9
		s0.9-0.4,0.9-0.9S36.3,15.5,35.8,15.5z M35.8,12.3c-0.5,0-0.9,0.4-0.9,0.9s0.4,0.9,0.9,0.9s0.9-0.4,0.9-0.9S36.3,12.3,35.8,12.3z
		 M37.5,26.6c-0.5,0-0.9,0.4-0.9,0.9s0.4,0.9,0.9,0.9s0.9-0.4,0.9-0.9S38,26.6,37.5,26.6z M37.5,23.4c-0.5,0-0.9,0.4-0.9,0.9
		s0.4,0.9,0.9,0.9s0.9-0.4,0.9-0.9S38,23.4,37.5,23.4z M37.5,20.3c-0.5,0-0.9,0.4-0.9,0.9s0.4,0.9,0.9,0.9s0.9-0.4,0.9-0.9
		S38,20.3,37.5,20.3z M37.5,17.1c-0.5,0-0.9,0.4-0.9,0.9s0.4,0.9,0.9,0.9s0.9-0.4,0.9-0.9S38,17.1,37.5,17.1z M37.5,13.9
		c-0.5,0-0.9,0.4-0.9,0.9s0.4,0.9,0.9,0.9s0.9-0.4,0.9-0.9S38,13.9,37.5,13.9z M34.3,10.8c-0.5,0-0.9,0.4-0.9,0.9
		c0,0.5,0.4,0.9,0.9,0.9s0.9-0.4,0.9-0.9C35.2,11.2,34.8,10.8,34.3,10.8z M34.3,13.9c-0.5,0-0.9,0.4-0.9,0.9s0.4,0.9,0.9,0.9
		s0.9-0.4,0.9-0.9S34.8,13.9,34.3,13.9z M34.3,17.1c-0.5,0-0.9,0.4-0.9,0.9s0.4,0.9,0.9,0.9s0.9-0.4,0.9-0.9S34.8,17.1,34.3,17.1z
		 M34.3,20.3c-0.5,0-0.9,0.4-0.9,0.9s0.4,0.9,0.9,0.9s0.9-0.4,0.9-0.9S34.8,20.3,34.3,20.3z M34.3,23.4c-0.5,0-0.9,0.4-0.9,0.9
		s0.4,0.9,0.9,0.9s0.9-0.4,0.9-0.9S34.8,23.4,34.3,23.4z M34.3,26.4c-0.5,0-0.9,0.4-0.9,0.9s0.4,0.9,0.9,0.9s0.9-0.4,0.9-0.9
		S34.8,26.4,34.3,26.4z M34.3,29.6c-0.5,0-0.9,0.4-0.9,0.9s0.4,0.9,0.9,0.9s0.9-0.4,0.9-0.9S34.8,29.6,34.3,29.6z M32.9,31.2
		c-0.5,0-0.9,0.4-0.9,0.9s0.4,0.9,0.9,0.9s0.9-0.4,0.9-0.9S33.3,31.2,32.9,31.2z M32.9,28c-0.5,0-0.9,0.4-0.9,0.9s0.4,0.9,0.9,0.9
		s0.9-0.4,0.9-0.9S33.3,28,32.9,28z M32.9,25c-0.5,0-0.9,0.4-0.9,0.9c0,0.5,0.4,0.9,0.9,0.9s0.9-0.4,0.9-0.9
		C33.7,25.4,33.3,25,32.9,25z M32.9,21.8c-0.5,0-0.9,0.4-0.9,0.9s0.4,0.9,0.9,0.9s0.9-0.4,0.9-0.9S33.3,21.8,32.9,21.8z M32.9,18.7
		c-0.5,0-0.9,0.4-0.9,0.9s0.4,0.9,0.9,0.9s0.9-0.4,0.9-0.9S33.3,18.7,32.9,18.7z M32.9,15.5c-0.5,0-0.9,0.4-0.9,0.9s0.4,0.9,0.9,0.9
		s0.9-0.4,0.9-0.9S33.3,15.5,32.9,15.5z M32.9,12.3c-0.5,0-0.9,0.4-0.9,0.9s0.4,0.9,0.9,0.9s0.9-0.4,0.9-0.9S33.3,12.3,32.9,12.3z
		 M32.9,9.2c-0.5,0-0.9,0.4-0.9,0.9c0,0.5,0.4,0.9,0.9,0.9s0.9-0.4,0.9-0.9C33.7,9.6,33.3,9.2,32.9,9.2z M13,13.9
		c-0.5,0-0.9,0.4-0.9,0.9s0.4,0.9,0.9,0.9s0.9-0.4,0.9-0.9S13.5,13.9,13,13.9z M13,17.1c-0.5,0-0.9,0.4-0.9,0.9s0.4,0.9,0.9,0.9
		s0.9-0.4,0.9-0.9S13.5,17.1,13,17.1z M13,20.3c-0.5,0-0.9,0.4-0.9,0.9S12.6,22,13,22s0.9-0.4,0.9-0.9S13.5,20.3,13,20.3z M13,23.4
		c-0.5,0-0.9,0.4-0.9,0.9s0.4,0.9,0.9,0.9s0.9-0.4,0.9-0.9S13.5,23.4,13,23.4z M13,26.4c-0.5,0-0.9,0.4-0.9,0.9s0.4,0.9,0.9,0.9
		s0.9-0.4,0.9-0.9S13.5,26.4,13,26.4z M11.6,29.4c-0.5,0-0.9,0.4-0.9,0.9s0.4,0.9,0.9,0.9c0.5,0,0.9-0.4,0.9-0.9S12,29.4,11.6,29.4z
		 M11.6,25c-0.5,0-0.9,0.4-0.9,0.9c0,0.5,0.4,0.9,0.9,0.9c0.5,0,0.9-0.4,0.9-0.9C12.4,25.4,12,25,11.6,25z M11.6,21.8
		c-0.5,0-0.9,0.4-0.9,0.9s0.4,0.9,0.9,0.9c0.5,0,0.9-0.4,0.9-0.9S12,21.8,11.6,21.8z M11.6,18.7c-0.5,0-0.9,0.4-0.9,0.9
		s0.4,0.9,0.9,0.9c0.5,0,0.9-0.4,0.9-0.9S12,18.7,11.6,18.7z M11.6,15.5c-0.5,0-0.9,0.4-0.9,0.9s0.4,0.9,0.9,0.9
		c0.5,0,0.9-0.4,0.9-0.9S12,15.5,11.6,15.5z M11.6,10.6c-0.5,0-0.9,0.4-0.9,0.9s0.4,0.9,0.9,0.9c0.5,0,0.9-0.4,0.9-0.9
		S12,10.6,11.6,10.6z M8.6,26.6c-0.5,0-0.9,0.4-0.9,0.9s0.4,0.9,0.9,0.9c0.5,0,0.9-0.4,0.9-0.9S9.1,26.6,8.6,26.6z M8.6,23.4
		c-0.5,0-0.9,0.4-0.9,0.9s0.4,0.9,0.9,0.9c0.5,0,0.9-0.4,0.9-0.9S9.1,23.4,8.6,23.4z M8.6,20.3c-0.5,0-0.9,0.4-0.9,0.9
		S8.1,22,8.6,22c0.5,0,0.9-0.4,0.9-0.9S9.1,20.3,8.6,20.3z M8.6,17.1c-0.5,0-0.9,0.4-0.9,0.9s0.4,0.9,0.9,0.9c0.5,0,0.9-0.4,0.9-0.9
		S9.1,17.1,8.6,17.1z M8.6,13.9c-0.5,0-0.9,0.4-0.9,0.9s0.4,0.9,0.9,0.9c0.5,0,0.9-0.4,0.9-0.9S9.1,13.9,8.6,13.9z M5.5,23.4
		c-0.5,0-0.9,0.4-0.9,0.9s0.4,0.9,0.9,0.9s0.9-0.4,0.9-0.9S6,23.4,5.5,23.4z M5.5,20.3c-0.5,0-0.9,0.4-0.9,0.9S5.1,22,5.5,22
		s0.9-0.4,0.9-0.9S6,20.3,5.5,20.3z M0.9,20.3c-0.5,0-0.9,0.4-0.9,0.9S0.4,22,0.9,22s0.9-0.4,0.9-0.9S1.3,20.3,0.9,20.3z M5.5,17.1
		c-0.5,0-0.9,0.4-0.9,0.9s0.4,0.9,0.9,0.9s0.9-0.4,0.9-0.9S6,17.1,5.5,17.1z"/>
	<linearGradient id="SVGID_2_" gradientUnits="userSpaceOnUse" x1="30.6445" y1="19" x2="67.0732" y2="19">
		<stop  offset="0" style="stop-color:#1177EE"/>
		<stop  offset="1" style="stop-color:#34CE54"/>
	</linearGradient>
	<path class="st1" d="M47.1,31.9c0-0.5,0.4-0.9,0.9-0.9s0.9,0.4,0.9,0.9s-0.4,0.9-0.9,0.9S47.1,32.3,47.1,31.9z M48,29.5
		c0.5,0,0.9-0.4,0.9-0.9s-0.4-0.9-0.9-0.9s-0.9,0.4-0.9,0.9S47.5,29.5,48,29.5z M48,26.4c0.5,0,0.9-0.4,0.9-0.9s-0.4-0.9-0.9-0.9
		s-0.9,0.4-0.9,0.9S47.5,26.4,48,26.4z M48,23.2c0.5,0,0.9-0.4,0.9-0.9s-0.4-0.9-0.9-0.9s-0.9,0.4-0.9,0.9S47.5,23.2,48,23.2z
		 M48,20c0.5,0,0.9-0.4,0.9-0.9s-0.4-0.9-0.9-0.9s-0.9,0.4-0.9,0.9S47.5,20,48,20z M48,17c0.5,0,0.9-0.4,0.9-0.9
		c0-0.5-0.4-0.9-0.9-0.9s-0.9,0.4-0.9,0.9C47.1,16.6,47.5,17,48,17z M48,13.9c0.5,0,0.9-0.4,0.9-0.9c0-0.5-0.4-0.9-0.9-0.9
		s-0.9,0.4-0.9,0.9C47.1,13.5,47.5,13.9,48,13.9z M48,10.7c0.5,0,0.9-0.4,0.9-0.9S48.5,9,48,9s-0.9,0.4-0.9,0.9S47.5,10.7,48,10.7z
		 M48,7.5c0.5,0,0.9-0.4,0.9-0.9S48.5,5.8,48,5.8s-0.9,0.4-0.9,0.9S47.5,7.5,48,7.5z M49.5,9.1c0.5,0,0.9-0.4,0.9-0.9
		c0-0.5-0.4-0.9-0.9-0.9s-0.9,0.4-0.9,0.9C48.6,8.7,49,9.1,49.5,9.1z M49.5,12.3c0.5,0,0.9-0.4,0.9-0.9s-0.4-0.9-0.9-0.9
		s-0.9,0.4-0.9,0.9S49,12.3,49.5,12.3z M49.5,15.4c0.5,0,0.9-0.4,0.9-0.9s-0.4-0.9-0.9-0.9s-0.9,0.4-0.9,0.9S49,15.4,49.5,15.4z
		 M49.5,18.6c0.5,0,0.9-0.4,0.9-0.9s-0.4-0.9-0.9-0.9s-0.9,0.4-0.9,0.9S49,18.6,49.5,18.6z M49.5,21.6c0.5,0,0.9-0.4,0.9-0.9
		s-0.4-0.9-0.9-0.9s-0.9,0.4-0.9,0.9S49,21.6,49.5,21.6z M49.5,24.8c0.5,0,0.9-0.4,0.9-0.9s-0.4-0.9-0.9-0.9s-0.9,0.4-0.9,0.9
		S49,24.8,49.5,24.8z M49.5,28c0.5,0,0.9-0.4,0.9-0.9s-0.4-0.9-0.9-0.9s-0.9,0.4-0.9,0.9S49,28,49.5,28z M49.5,31.1
		c0.5,0,0.9-0.4,0.9-0.9s-0.4-0.9-0.9-0.9s-0.9,0.4-0.9,0.9S49,31.1,49.5,31.1z M44.9,32.7c0.5,0,0.9-0.4,0.9-0.9S45.4,31,44.9,31
		s-0.9,0.4-0.9,0.9S44.4,32.7,44.9,32.7z M44.9,35.7c0.5,0,0.9-0.4,0.9-0.9S45.4,34,44.9,34s-0.9,0.4-0.9,0.9S44.4,35.7,44.9,35.7z
		 M44.9,29.5c0.5,0,0.9-0.4,0.9-0.9s-0.4-0.9-0.9-0.9s-0.9,0.4-0.9,0.9S44.4,29.5,44.9,29.5z M44.9,26.4c0.5,0,0.9-0.4,0.9-0.9
		s-0.4-0.9-0.9-0.9s-0.9,0.4-0.9,0.9S44.4,26.4,44.9,26.4z M44.9,13.9c0.5,0,0.9-0.4,0.9-0.9c0-0.5-0.4-0.9-0.9-0.9
		s-0.9,0.4-0.9,0.9C44.1,13.5,44.4,13.9,44.9,13.9z M44.9,10.7c0.5,0,0.9-0.4,0.9-0.9S45.4,9,44.9,9s-0.9,0.4-0.9,0.9
		S44.4,10.7,44.9,10.7z M44.9,7.5c0.5,0,0.9-0.4,0.9-0.9s-0.4-0.9-0.9-0.9s-0.9,0.4-0.9,0.9S44.4,7.5,44.9,7.5z M44.9,4.3
		c0.5,0,0.9-0.4,0.9-0.9s-0.4-0.9-0.9-0.9S44.1,3,44.1,3.4S44.4,4.3,44.9,4.3z M46.4,9.1c0.5,0,0.9-0.4,0.9-0.9
		c0-0.5-0.4-0.9-0.9-0.9s-0.9,0.4-0.9,0.9C45.5,8.7,45.9,9.1,46.4,9.1z M46.4,5.9c0.5,0,0.9-0.4,0.9-0.9s-0.4-0.9-0.9-0.9
		S45.5,4.6,45.5,5S45.9,5.9,46.4,5.9z M46.4,12.3c0.5,0,0.9-0.4,0.9-0.9s-0.4-0.9-0.9-0.9s-0.9,0.4-0.9,0.9S45.9,12.3,46.4,12.3z
		 M46.4,15.4c0.5,0,0.9-0.4,0.9-0.9s-0.4-0.9-0.9-0.9s-0.9,0.4-0.9,0.9S45.9,15.4,46.4,15.4z M41.8,10.7c0.5,0,0.9-0.4,0.9-0.9
		S42.3,9,41.8,9S41,9.4,41,9.8S41.4,10.7,41.8,10.7z M41.8,7.5c0.5,0,0.9-0.4,0.9-0.9s-0.4-0.9-0.9-0.9S41,6.2,41,6.6
		S41.4,7.5,41.8,7.5z M43.3,5.9c0.5,0,0.9-0.4,0.9-0.9s-0.4-0.9-0.9-0.9S42.5,4.6,42.5,5S42.8,5.9,43.3,5.9z M41.8,4.3
		c0.5,0,0.9-0.4,0.9-0.9s-0.4-0.9-0.9-0.9S41,3,41,3.4S41.4,4.3,41.8,4.3z M43.3,9.1c0.5,0,0.9-0.4,0.9-0.9c0-0.5-0.4-0.9-0.9-0.9
		s-0.9,0.4-0.9,0.9C42.5,8.7,42.8,9.1,43.3,9.1z M43.3,12.2c0.5,0,0.9-0.4,0.9-0.9s-0.4-0.9-0.9-0.9s-0.9,0.4-0.9,0.9
		S42.8,12.2,43.3,12.2z M38.6,10.7c0.5,0,0.9-0.4,0.9-0.9S39.1,9,38.6,9s-0.9,0.4-0.9,0.9S38.2,10.7,38.6,10.7z M38.6,7.5
		c0.5,0,0.9-0.4,0.9-0.9s-0.4-0.9-0.9-0.9s-0.9,0.4-0.9,0.9S38.2,7.5,38.6,7.5z M40.1,5.9C40.6,5.9,41,5.5,41,5s-0.4-0.9-0.9-0.9
		S39.3,4.6,39.3,5S39.6,5.9,40.1,5.9z M40.1,2.7c0.5,0,0.9-0.4,0.9-0.9S40.6,1,40.1,1s-0.9,0.4-0.9,0.9S39.6,2.7,40.1,2.7z
		 M38.6,4.3c0.5,0,0.9-0.4,0.9-0.9s-0.4-0.9-0.9-0.9S37.8,3,37.8,3.4S38.2,4.3,38.6,4.3z M40.1,9.1c0.5,0,0.9-0.4,0.9-0.9
		c0-0.5-0.4-0.9-0.9-0.9s-0.9,0.4-0.9,0.9C39.3,8.7,39.6,9.1,40.1,9.1z M40.1,12.2c0.5,0,0.9-0.4,0.9-0.9s-0.4-0.9-0.9-0.9
		s-0.9,0.4-0.9,0.9S39.6,12.2,40.1,12.2z M37.2,9.1c0.5,0,0.9-0.4,0.9-0.9c0-0.5-0.4-0.9-0.9-0.9s-0.9,0.4-0.9,0.9
		C36.3,8.7,36.7,9.1,37.2,9.1z M37.2,2.7c0.5,0,0.9-0.4,0.9-0.9S37.6,1,37.2,1s-0.9,0.4-0.9,0.9S36.7,2.7,37.2,2.7z M37.2,5.8
		c0.5,0,0.9-0.4,0.9-0.9C38,4.4,37.6,4,37.2,4s-0.9,0.4-0.9,0.9C36.3,5.4,36.7,5.8,37.2,5.8z M34.3,5.9c0.5,0,0.9-0.4,0.9-0.9
		s-0.4-0.9-0.9-0.9S33.5,4.6,33.5,5S33.9,5.9,34.3,5.9z M31.5,5.9c0.5,0,0.9-0.4,0.9-0.9S32,4.2,31.5,4.2c-0.5,0-0.9,0.4-0.9,0.9
		S31,5.9,31.5,5.9z M46.4,24.8c0.5,0,0.9-0.4,0.9-0.9s-0.4-0.9-0.9-0.9s-0.9,0.4-0.9,0.9S45.9,24.8,46.4,24.8z M46.4,28
		c0.5,0,0.9-0.4,0.9-0.9s-0.4-0.9-0.9-0.9s-0.9,0.4-0.9,0.9S45.9,28,46.4,28z M46.4,31.1c0.5,0,0.9-0.4,0.9-0.9s-0.4-0.9-0.9-0.9
		s-0.9,0.4-0.9,0.9S45.9,31.1,46.4,31.1z M46.4,34.2c0.5,0,0.9-0.4,0.9-0.9s-0.4-0.9-0.9-0.9s-0.9,0.4-0.9,0.9S45.9,34.2,46.4,34.2z
		 M42,32.7c0.5,0,0.9-0.4,0.9-0.9S42.4,31,42,31s-0.9,0.4-0.9,0.9S41.5,32.7,42,32.7z M42,35.8c0.5,0,0.9-0.4,0.9-0.9
		s-0.4-0.9-0.9-0.9s-0.9,0.4-0.9,0.9S41.5,35.8,42,35.8z M42,29.5c0.5,0,0.9-0.4,0.9-0.9s-0.4-0.9-0.9-0.9s-0.9,0.4-0.9,0.9
		S41.5,29.5,42,29.5z M43.4,28c0.5,0,0.9-0.4,0.9-0.9s-0.4-0.9-0.9-0.9s-0.9,0.4-0.9,0.9S43,28,43.4,28z M43.4,31.1
		c0.5,0,0.9-0.4,0.9-0.9s-0.4-0.9-0.9-0.9s-0.9,0.4-0.9,0.9S43,31.1,43.4,31.1z M43.4,34.2c0.5,0,0.9-0.4,0.9-0.9s-0.4-0.9-0.9-0.9
		s-0.9,0.4-0.9,0.9S43,34.2,43.4,34.2z M38.9,32.7c0.5,0,0.9-0.4,0.9-0.9S39.4,31,38.9,31S38,31.4,38,31.9S38.4,32.7,38.9,32.7z
		 M38.9,35.7c0.5,0,0.9-0.4,0.9-0.9S39.4,34,38.9,34S38,34.3,38,34.8S38.4,35.7,38.9,35.7z M35.6,35.7c0.5,0,0.9-0.4,0.9-0.9
		S36,34,35.6,34s-0.9,0.4-0.9,0.9S35.1,35.7,35.6,35.7z M40.4,28c0.5,0,0.9-0.4,0.9-0.9s-0.4-0.9-0.9-0.9s-0.9,0.4-0.9,0.9
		S39.9,28,40.4,28z M40.4,31.1c0.5,0,0.9-0.4,0.9-0.9s-0.4-0.9-0.9-0.9s-0.9,0.4-0.9,0.9S39.9,31.1,40.4,31.1z M40.4,34.2
		c0.5,0,0.9-0.4,0.9-0.9s-0.4-0.9-0.9-0.9s-0.9,0.4-0.9,0.9S39.9,34.2,40.4,34.2z M40.4,37c0.5,0,0.9-0.4,0.9-0.9s-0.4-0.9-0.9-0.9
		s-0.9,0.4-0.9,0.9S39.9,37,40.4,37z M37.2,36.8c0.5,0,0.9-0.4,0.9-0.9s-0.4-0.9-0.9-0.9s-0.9,0.4-0.9,0.9S36.7,36.8,37.2,36.8z
		 M35.8,7.6c0.5,0,0.9-0.4,0.9-0.9c0-0.5-0.4-0.9-0.9-0.9S35,6.3,35,6.8C35,7.2,35.3,7.6,35.8,7.6z M37.3,34.2
		c0.5,0,0.9-0.4,0.9-0.9s-0.4-0.9-0.9-0.9s-0.9,0.4-0.9,0.9S36.8,34.2,37.3,34.2z M51,32.7c0.5,0,0.9-0.4,0.9-0.9S51.4,31,51,31
		s-0.9,0.4-0.9,0.9S50.5,32.7,51,32.7z M51,29.5c0.5,0,0.9-0.4,0.9-0.9s-0.4-0.9-0.9-0.9s-0.9,0.4-0.9,0.9S50.5,29.5,51,29.5z
		 M51,26.4c0.5,0,0.9-0.4,0.9-0.9s-0.4-0.9-0.9-0.9s-0.9,0.4-0.9,0.9S50.5,26.4,51,26.4z M51,23.2c0.5,0,0.9-0.4,0.9-0.9
		s-0.4-0.9-0.9-0.9s-0.9,0.4-0.9,0.9S50.5,23.2,51,23.2z M51,20c0.5,0,0.9-0.4,0.9-0.9s-0.4-0.9-0.9-0.9s-0.9,0.4-0.9,0.9
		S50.5,20,51,20z M51,17c0.5,0,0.9-0.4,0.9-0.9c0-0.5-0.4-0.9-0.9-0.9s-0.9,0.4-0.9,0.9C50.1,16.6,50.5,17,51,17z M51,13.9
		c0.5,0,0.9-0.4,0.9-0.9c0-0.5-0.4-0.9-0.9-0.9s-0.9,0.4-0.9,0.9C50.1,13.5,50.5,13.9,51,13.9z M51,10.7c0.5,0,0.9-0.4,0.9-0.9
		S51.4,9,51,9s-0.9,0.4-0.9,0.9S50.5,10.7,51,10.7z M51,7.5c0.5,0,0.9-0.4,0.9-0.9S51.4,5.8,51,5.8s-0.9,0.4-0.9,0.9
		S50.5,7.5,51,7.5z M52.4,9.1c0.5,0,0.9-0.4,0.9-0.9c0-0.5-0.4-0.9-0.9-0.9s-0.9,0.4-0.9,0.9C51.6,8.7,52,9.1,52.4,9.1z M52.4,12.3
		c0.5,0,0.9-0.4,0.9-0.9s-0.4-0.9-0.9-0.9s-0.9,0.4-0.9,0.9S52,12.3,52.4,12.3z M52.4,15.4c0.5,0,0.9-0.4,0.9-0.9s-0.4-0.9-0.9-0.9
		s-0.9,0.4-0.9,0.9S52,15.4,52.4,15.4z M52.4,18.6c0.5,0,0.9-0.4,0.9-0.9s-0.4-0.9-0.9-0.9s-0.9,0.4-0.9,0.9S52,18.6,52.4,18.6z
		 M52.4,21.6c0.5,0,0.9-0.4,0.9-0.9s-0.4-0.9-0.9-0.9s-0.9,0.4-0.9,0.9S52,21.6,52.4,21.6z M52.4,24.8c0.5,0,0.9-0.4,0.9-0.9
		s-0.4-0.9-0.9-0.9s-0.9,0.4-0.9,0.9S52,24.8,52.4,24.8z M52.4,28c0.5,0,0.9-0.4,0.9-0.9s-0.4-0.9-0.9-0.9s-0.9,0.4-0.9,0.9
		S52,28,52.4,28z M52.4,31.1c0.5,0,0.9-0.4,0.9-0.9s-0.4-0.9-0.9-0.9s-0.9,0.4-0.9,0.9S52,31.1,52.4,31.1z M35.8,4.3
		c0.5,0,0.9-0.4,0.9-0.9s-0.4-0.9-0.9-0.9S35,3,35,3.4S35.3,4.3,35.8,4.3z M32.9,4.3c0.5,0,0.9-0.4,0.9-0.9s-0.4-0.9-0.9-0.9
		S32,3,32,3.4S32.4,4.3,32.9,4.3z M54,26.4c0.5,0,0.9-0.4,0.9-0.9s-0.4-0.9-0.9-0.9s-0.9,0.4-0.9,0.9S53.6,26.4,54,26.4z M54,23.2
		c0.5,0,0.9-0.4,0.9-0.9s-0.4-0.9-0.9-0.9s-0.9,0.4-0.9,0.9S53.6,23.2,54,23.2z M54,20c0.5,0,0.9-0.4,0.9-0.9s-0.4-0.9-0.9-0.9
		s-0.9,0.4-0.9,0.9S53.6,20,54,20z M54,17c0.5,0,0.9-0.4,0.9-0.9c0-0.5-0.4-0.9-0.9-0.9s-0.9,0.4-0.9,0.9C53.2,16.6,53.6,17,54,17z
		 M54,13.9c0.5,0,0.9-0.4,0.9-0.9c0-0.5-0.4-0.9-0.9-0.9s-0.9,0.4-0.9,0.9C53.2,13.5,53.6,13.9,54,13.9z M55.5,10.9
		c0.5,0,0.9-0.4,0.9-0.9c0-0.5-0.4-0.9-0.9-0.9s-0.9,0.4-0.9,0.9C54.6,10.6,55,10.9,55.5,10.9z M55.5,15.4c0.5,0,0.9-0.4,0.9-0.9
		s-0.4-0.9-0.9-0.9s-0.9,0.4-0.9,0.9S55,15.4,55.5,15.4z M55.5,18.6c0.5,0,0.9-0.4,0.9-0.9s-0.4-0.9-0.9-0.9s-0.9,0.4-0.9,0.9
		S55,18.6,55.5,18.6z M55.5,21.6c0.5,0,0.9-0.4,0.9-0.9s-0.4-0.9-0.9-0.9s-0.9,0.4-0.9,0.9S55,21.6,55.5,21.6z M55.5,24.8
		c0.5,0,0.9-0.4,0.9-0.9s-0.4-0.9-0.9-0.9s-0.9,0.4-0.9,0.9S55,24.8,55.5,24.8z M55.5,29.8c0.5,0,0.9-0.4,0.9-0.9S56,28,55.5,28
		s-0.9,0.4-0.9,0.9S55,29.8,55.5,29.8z M58.5,13.8c0.5,0,0.9-0.4,0.9-0.9S58.9,12,58.5,12s-0.9,0.4-0.9,0.9S58,13.8,58.5,13.8z
		 M58.5,17c0.5,0,0.9-0.4,0.9-0.9c0-0.5-0.4-0.9-0.9-0.9s-0.9,0.4-0.9,0.9C57.6,16.6,58,17,58.5,17z M58.5,20c0.5,0,0.9-0.4,0.9-0.9
		s-0.4-0.9-0.9-0.9s-0.9,0.4-0.9,0.9S58,20,58.5,20z M58.5,23.2c0.5,0,0.9-0.4,0.9-0.9s-0.4-0.9-0.9-0.9s-0.9,0.4-0.9,0.9
		S58,23.2,58.5,23.2z M58.5,26.4c0.5,0,0.9-0.4,0.9-0.9s-0.4-0.9-0.9-0.9s-0.9,0.4-0.9,0.9S58,26.4,58.5,26.4z M61.5,17
		c0.5,0,0.9-0.4,0.9-0.9c0-0.5-0.4-0.9-0.9-0.9s-0.9,0.4-0.9,0.9C60.7,16.6,61.1,17,61.5,17z M61.5,20c0.5,0,0.9-0.4,0.9-0.9
		s-0.4-0.9-0.9-0.9s-0.9,0.4-0.9,0.9S61.1,20,61.5,20z M66.2,20c0.5,0,0.9-0.4,0.9-0.9s-0.4-0.9-0.9-0.9c-0.5,0-0.9,0.4-0.9,0.9
		S65.7,20,66.2,20z M61.5,23.2c0.5,0,0.9-0.4,0.9-0.9s-0.4-0.9-0.9-0.9s-0.9,0.4-0.9,0.9S61.1,23.2,61.5,23.2z"/>
	<g>
		<path class="st2" d="M169.1,14.7c-0.7-0.8-1.6-1.4-2.7-1.8c-1-0.4-2.2-0.6-3.5-0.6c-1.3,0-2.4,0.2-3.5,0.6c-1,0.4-1.9,1-2.7,1.7
			c-0.7,0.8-1.3,1.7-1.7,2.7c-0.4,1.1-0.6,2.2-0.6,3.5c0,1.3,0.2,2.4,0.6,3.5c0.4,1,1,2,1.7,2.7c0.7,0.8,1.6,1.4,2.7,1.8
			c1,0.4,2.2,0.6,3.5,0.6c1.3,0,2.5-0.2,3.5-0.6c1-0.4,1.9-1,2.7-1.8c0.7-0.8,1.3-1.7,1.7-2.7c0.4-1.1,0.6-2.2,0.6-3.5
			c0-1.3-0.2-2.4-0.6-3.5C170.4,16.4,169.8,15.5,169.1,14.7z M166,24.9c-0.8,1-1.8,1.4-3.1,1.4c-0.8,0-1.6-0.2-2.2-0.7
			c-0.6-0.4-1.1-1.1-1.4-1.9c-0.3-0.8-0.5-1.8-0.5-2.9c0-1.1,0.2-2.1,0.5-2.9c0.3-0.8,0.8-1.5,1.5-1.9c0.6-0.4,1.4-0.6,2.2-0.6
			c1.3,0,2.3,0.5,3.1,1.4c0.8,1,1.1,2.3,1.1,4C167.1,22.6,166.7,24,166,24.9z"/>
		<path class="st2" d="M203.6,8h-2.4v6.9c-0.8-0.9-1.6-1.5-2.5-1.9c-0.8-0.4-1.9-0.6-3.1-0.6c-2.1,0-3.8,0.7-5.1,2.2
			c-1.3,1.5-1.9,3.5-1.9,6.2c0,1.3,0.2,2.4,0.5,3.5c0.3,1.1,0.8,2,1.4,2.8c0.6,0.8,1.4,1.4,2.2,1.8c0.9,0.4,1.8,0.6,2.8,0.6
			c0.8,0,1.5-0.1,2.1-0.3c0.6-0.2,1.2-0.5,1.8-0.9c0.6-0.4,1.1-0.9,1.7-1.6v1.2c0,0.9,0.7,1.7,1.7,1.7h2.3v-20
			C205.2,8.7,204.5,8,203.6,8z M200.4,23.9c-0.4,0.8-0.9,1.4-1.5,1.8c-0.6,0.4-1.3,0.6-2,0.6c-0.7,0-1.4-0.2-2-0.6
			c-0.6-0.4-1.1-1-1.5-1.8c-0.4-0.8-0.5-1.8-0.5-2.9c0-1.1,0.2-2,0.5-2.9c0.3-0.8,0.8-1.5,1.4-1.9c0.6-0.4,1.3-0.7,2.1-0.7
			c0.7,0,1.4,0.2,2.1,0.6c0.6,0.4,1.1,1.1,1.5,1.9c0.4,0.8,0.6,1.8,0.6,2.9C201,22.1,200.8,23.1,200.4,23.9z"/>
		<path class="st2" d="M86.8,21.4c-0.7-0.8-1.4-1.4-2.2-1.8c1.8-0.4,3.2-1.1,4.1-2c0.9-0.9,1.3-2.2,1.3-3.8c0-0.8-0.1-1.5-0.4-2.2
			c-0.3-0.7-0.7-1.3-1.2-1.8c-0.5-0.5-1.1-0.9-1.8-1.2c-0.5-0.3-1.2-0.4-1.8-0.5C84.2,8,83.3,8,82.4,8h-9.6v20
			c0,0.9,0.7,1.6,1.6,1.6h2.7v-9.4h1.5c0.8,0,1.4,0.1,1.9,0.3c0.5,0.2,1,0.6,1.5,1.1c0.5,0.5,1,1.3,1.7,2.4l2.4,4.3
			c0.6,1.1,1.9,1.5,3,0.9l2.1-1c0,0-1.8-3.3-2.4-4.2C88.1,23,87.5,22.2,86.8,21.4z M83.5,16.8c-0.7,0.2-1.6,0.3-2.6,0.3h-3.8v-5.8h4
			c1.5,0,2.5,0.1,3,0.3c0.5,0.2,0.9,0.6,1.2,1c0.3,0.4,0.4,1,0.4,1.6c0,0.8-0.2,1.3-0.6,1.8C84.7,16.3,84.2,16.6,83.5,16.8z"/>
		<path class="st2" d="M105,12.3h-2.5V20c0,2-0.1,3.3-0.4,3.9c-0.3,0.7-0.7,1.2-1.4,1.7c-0.6,0.4-1.3,0.6-2,0.6
			c-0.7,0-1.3-0.2-1.7-0.6c-0.4-0.4-0.7-0.9-0.9-1.6c-0.2-0.7-0.2-1.5-0.2-2.5V14c0-0.9-0.7-1.7-1.7-1.7h-2.6v10.9
			c0,1.7,0.3,3,0.8,3.9c0.4,0.7,1.1,1.3,1.9,1.8c0.8,0.4,1.7,0.6,2.8,0.6c0.8,0,1.6-0.1,2.3-0.3c0.7-0.2,1.3-0.5,1.8-1
			c0.6-0.4,1.1-1,1.6-1.6v1.3c0,0.9,0.7,1.7,1.7,1.7h2.3V14C106.7,13.1,105.9,12.3,105,12.3z"/>
		<path class="st2" d="M185.8,12.3h-2.5V20c0,2-0.1,3.3-0.4,3.9c-0.3,0.7-0.7,1.2-1.4,1.7c-0.6,0.4-1.3,0.6-2,0.6
			c-0.7,0-1.3-0.2-1.7-0.6c-0.4-0.4-0.7-0.9-0.9-1.6c-0.2-0.7-0.2-1.5-0.2-2.5V14c0-0.9-0.7-1.7-1.7-1.7h-2.6v10.9
			c0,1.7,0.3,3,0.8,3.9c0.4,0.7,1.1,1.3,1.9,1.8c0.8,0.4,1.7,0.6,2.8,0.6c0.8,0,1.6-0.1,2.3-0.3c0.7-0.2,1.3-0.5,1.8-1
			c0.6-0.4,1.1-1,1.6-1.6v1.3c0,0.9,0.7,1.7,1.7,1.7h2.3V14C187.5,13.1,186.7,12.3,185.8,12.3z"/>
		<path class="st2" d="M122.9,15.1c-0.4-0.9-1.1-1.6-2-2.1c-0.9-0.5-1.9-0.7-3-0.7c-1.1,0-2.2,0.2-3,0.7c-0.9,0.5-1.7,1.2-2.4,2.2
			V14c0-0.9-0.7-1.7-1.7-1.7h-2.3v15.5c0,0.9,0.7,1.7,1.7,1.7h2.6v-7.9c0-1.7,0.1-2.9,0.3-3.5c0.3-0.8,0.7-1.4,1.4-1.9
			c0.6-0.4,1.3-0.7,2.1-0.7c1.2,0,2,0.6,2.4,1.3c0.4,0.7,0.5,1.6,0.5,3v8c0,0.9,0.7,1.7,1.7,1.7h2.5V19.1c0-0.9,0-1.7-0.1-2.3
			C123.4,16.2,123.2,15.6,122.9,15.1z"/>
		<path class="st2" d="M151.6,8h-2.7v19.6c0,0.9,0.7,1.6,1.6,1.6h2.7V9.6C153.2,8.7,152.5,8,151.6,8z"/>
		<path class="st2" d="M259.4,22.5h-20.1v0.5c0,0.3,0.3,0.6,0.6,0.6h3.7l-2.8,3.9c-0.5,0.7,0,1.6,0.8,1.6h18.1l-2.2-3.6
			c-0.4-0.6-1-1-1.7-1h-3l1.8,3.2h-8.1c-0.5,0-0.8-0.6-0.5-1l2.3-3.2H260v-0.5C260,22.8,259.7,22.5,259.4,22.5z"/>
		<path class="st2" d="M241.5,20.6c0,0.3,0.3,0.6,0.6,0.6h15.7v-0.5c0-0.3-0.3-0.6-0.6-0.6h-15.7V20.6z"/>
		<path class="st2" d="M259.3,8h-20.1v1.5h8.3v0.9h-8.1v6.9c0,0.8,0.7,1.5,1.5,1.5h2.3v-6.9h3.4c0.5,0,0.9,0.4,0.9,0.9v4.6
			c0,0.8,0.7,1.5,1.5,1.5h2.9v-6.9h3.4c0.5,0,0.9,0.4,0.9,0.9v4.6c0,0.8,0.7,1.5,1.5,1.5h2.3v-6.9c0-0.8-0.7-1.5-1.5-1.5h-6.5V9.5
			h8.1V8.7C260,8.3,259.7,8,259.3,8z"/>
		<path class="st2" d="M245,15.4h1.8l-0.2-1.9c-0.1-0.5-0.4-0.8-0.9-0.8h-1.8l0.2,1.9C244.2,15,244.5,15.4,245,15.4z"/>
		<path class="st2" d="M244.1,17.8c0.1,0.5,0.4,0.8,0.9,0.8h1.8l-0.2-1.9c-0.1-0.5-0.4-0.8-0.9-0.8h-1.8L244.1,17.8z"/>
		<path class="st2" d="M253.6,15.4h1.6l0.2-1.7c0.1-0.5-0.4-1-0.9-1h-1.6l-0.2,1.7C252.6,14.9,253.1,15.4,253.6,15.4z"/>
		<path class="st2" d="M253.6,18.6h1.6l0.2-1.7c0.1-0.5-0.4-1-0.9-1h-1.6l-0.2,1.7C252.6,18.1,253.1,18.6,253.6,18.6z"/>
		<path class="st2" d="M146.3,21.8l-0.9-0.2c-0.9-0.2-1.8,0.2-2.2,1.1c-0.9,1.8-2.3,3-4.2,3c-3,0-5.1-3-5.1-7c0-4,2-7,5.1-7
			c1.7,0,3.1,1,4,2.6c0.4,0.8,1.4,1.1,2.2,0.9l0.9-0.3c0.7-0.2,1.1-1,0.8-1.7c-1.4-3-4-5-7.9-5c-6.1,0-9.7,4.7-9.7,10.6
			c0,5.8,3.7,10.6,9.7,10.6c4.2,0,7-2.3,8.2-5.7C147.5,22.8,147.1,22,146.3,21.8z"/>
		<path class="st2" d="M218.5,15.2l-0.2-0.6c-0.2-0.5-0.7-0.9-1.2-0.9h-3.4l0.6,1.7c0.2,0.5,0.7,0.9,1.2,0.9h2l-0.9,1h-2.7V18
			c0,0.4,0.3,0.8,0.8,0.8h5.8l5-5.2v-1.7c0-0.8-0.6-1.4-1.4-1.4h-3h-1.2l0.9-1.2h5.1V8.6c0-0.3-0.3-0.6-0.6-0.6h-11.5v0.7
			c0,0.3,0.3,0.6,0.6,0.6h2l-2.2,2.9c-0.3,0.4,0,1,0.5,1h3.1l1-1.3h1.6c0.3,0,0.5,0.2,0.5,0.5v0L218.5,15.2z"/>
		<path class="st2" d="M234.1,22.4l-1.7,0l-1.6,1.5l-2.3-2.9h6.3v-0.6c0-0.4-0.3-0.8-0.8-0.8h-7.3V19c0-0.5-0.4-0.8-0.8-0.8h-4v1.5
			h-8.1v0.6c0,0.4,0.3,0.8,0.8,0.8h4.8l-4.5,5.5h-1v1c0,0.6,0.4,1,1,1h3.5l1.6-1.8v1c0,0.8,0.7,1.5,1.5,1.5h5.2v-1.3h-2.1
			c-0.4,0-0.8-0.4-0.8-0.8v-3.3h-1.4l1.5-1.8l4.5,5.9c0.6,0.8,1.5,1.2,2.5,1.2h3.9v-1.3h-0.5c-0.3,0-0.5-0.1-0.7-0.3l-1-1.3l2.2-2.1
			C235.3,23.5,234.9,22.4,234.1,22.4z"/>
		<path class="st2" d="M227.9,16.6h2.1V9.9c0-0.8-0.6-1.4-1.4-1.4h-2.2v6.7C226.5,16,227.1,16.6,227.9,16.6z"/>
		<path class="st2" d="M228.1,17.9c0,0.5,0.4,0.9,0.9,0.9h5.8V9.4c0-0.8-0.6-1.4-1.4-1.4h-2.5v9.5h-2.9V17.9z"/>
	</g>
</g>
</svg>
