<svg id="图层_1" data-name="图层 1" xmlns="http://www.w3.org/2000/svg" viewBox="0 0 22 22"><defs><style>.cls-1{fill:#fff;}</style></defs><title>QR code icon_light</title><path class="cls-1" d="M2,0H2A0,0,0,0,1,2,0V2A0,0,0,0,1,2,2H0A0,0,0,0,1,0,2V2A2,2,0,0,1,2,0Z"/><rect class="cls-1" x="2" width="2" height="2"/><rect class="cls-1" x="4" width="2" height="2"/><rect class="cls-1" x="6" width="2" height="2"/><path class="cls-1" d="M8,0H9a1,1,0,0,1,1,1V2a0,0,0,0,1,0,0H8A0,0,0,0,1,8,2V0A0,0,0,0,1,8,0Z"/><path class="cls-1" d="M13,0h1a0,0,0,0,1,0,0V2a0,0,0,0,1,0,0H12a0,0,0,0,1,0,0V1A1,1,0,0,1,13,0Z"/><rect class="cls-1" x="14" width="2" height="2"/><rect class="cls-1" x="16" width="2" height="2"/><rect class="cls-1" x="18" width="2" height="2"/><path class="cls-1" d="M20,0h0a2,2,0,0,1,2,2V2a0,0,0,0,1,0,0H20a0,0,0,0,1,0,0V0A0,0,0,0,1,20,0Z"/><rect class="cls-1" y="2" width="2" height="2"/><rect class="cls-1" x="8" y="2" width="2" height="2"/><rect class="cls-1" x="12" y="2" width="2" height="2"/><rect class="cls-1" x="20" y="2" width="2" height="2"/><rect class="cls-1" y="4" width="2" height="2"/><rect class="cls-1" x="4" y="4" width="2" height="2"/><rect class="cls-1" x="8" y="4" width="2" height="2"/><rect class="cls-1" x="12" y="4" width="2" height="2"/><rect class="cls-1" x="16" y="4" width="2" height="2"/><rect class="cls-1" x="20" y="4" width="2" height="2"/><rect class="cls-1" y="6" width="2" height="2"/><rect class="cls-1" x="8" y="6" width="2" height="2"/><rect class="cls-1" x="12" y="6" width="2" height="2"/><rect class="cls-1" x="20" y="6" width="2" height="2"/><path class="cls-1" d="M0,8H2A0,0,0,0,1,2,8v2a0,0,0,0,1,0,0H1A1,1,0,0,1,0,9V8A0,0,0,0,1,0,8Z"/><rect class="cls-1" x="2" y="8" width="2" height="2"/><rect class="cls-1" x="4" y="8" width="2" height="2"/><rect class="cls-1" x="6" y="8" width="2" height="2"/><path class="cls-1" d="M8,8h2a0,0,0,0,1,0,0V9a1,1,0,0,1-1,1H8a0,0,0,0,1,0,0V8A0,0,0,0,1,8,8Z"/><path class="cls-1" d="M12,8h2a0,0,0,0,1,0,0v2a0,0,0,0,1,0,0H13a1,1,0,0,1-1-1V8a0,0,0,0,1,0,0Z"/><rect class="cls-1" x="14" y="8" width="2" height="2"/><rect class="cls-1" x="16" y="8" width="2" height="2"/><rect class="cls-1" x="18" y="8" width="2" height="2"/><path class="cls-1" d="M20,8h2a0,0,0,0,1,0,0V9a1,1,0,0,1-1,1H20a0,0,0,0,1,0,0V8A0,0,0,0,1,20,8Z"/><path class="cls-1" d="M1,12H2a0,0,0,0,1,0,0v2a0,0,0,0,1,0,0H0a0,0,0,0,1,0,0V13A1,1,0,0,1,1,12Z"/><rect class="cls-1" x="2" y="12" width="2" height="2"/><rect class="cls-1" x="4" y="12" width="2" height="2"/><rect class="cls-1" x="6" y="12" width="2" height="2"/><path class="cls-1" d="M8,12H9a1,1,0,0,1,1,1v1a0,0,0,0,1,0,0H8a0,0,0,0,1,0,0V12A0,0,0,0,1,8,12Z"/><path class="cls-1" d="M13,12h1a0,0,0,0,1,0,0v2a0,0,0,0,1,0,0H12a0,0,0,0,1,0,0V13A1,1,0,0,1,13,12Z"/><rect class="cls-1" x="14" y="12" width="2" height="2"/><rect class="cls-1" x="16" y="12" width="2" height="2"/><path class="cls-1" d="M20,12h1a1,1,0,0,1,1,1v1a0,0,0,0,1,0,0H20a0,0,0,0,1,0,0V12A0,0,0,0,1,20,12Z"/><rect class="cls-1" y="14" width="2" height="2"/><rect class="cls-1" x="8" y="14" width="2" height="2"/><rect class="cls-1" x="12" y="14" width="2" height="2"/><rect class="cls-1" x="14" y="14" width="2" height="2"/><rect class="cls-1" x="16" y="14" width="2" height="2"/><rect class="cls-1" x="20" y="14" width="2" height="2"/><rect class="cls-1" y="16" width="2" height="2"/><rect class="cls-1" x="4" y="16" width="2" height="2"/><rect class="cls-1" x="8" y="16" width="2" height="2"/><rect class="cls-1" x="12" y="16" width="2" height="2"/><rect class="cls-1" x="16" y="16" width="2" height="2"/><rect class="cls-1" x="18" y="16" width="2" height="2"/><rect class="cls-1" x="20" y="16" width="2" height="2"/><rect class="cls-1" y="18" width="2" height="2"/><rect class="cls-1" x="8" y="18" width="2" height="2"/><rect class="cls-1" x="12" y="18" width="2" height="2"/><path class="cls-1" d="M0,20H2a0,0,0,0,1,0,0v2a0,0,0,0,1,0,0H2a2,2,0,0,1-2-2v0A0,0,0,0,1,0,20Z"/><rect class="cls-1" x="2" y="20" width="2" height="2"/><rect class="cls-1" x="4" y="20" width="2" height="2"/><rect class="cls-1" x="6" y="20" width="2" height="2"/><path class="cls-1" d="M8,20h2a0,0,0,0,1,0,0v1a1,1,0,0,1-1,1H8a0,0,0,0,1,0,0V20A0,0,0,0,1,8,20Z"/><path class="cls-1" d="M12,20h2a0,0,0,0,1,0,0v2a0,0,0,0,1,0,0H13a1,1,0,0,1-1-1V20A0,0,0,0,1,12,20Z"/><rect class="cls-1" x="16" y="20" width="2" height="2"/><path class="cls-1" d="M20,20h2a0,0,0,0,1,0,0v0a2,2,0,0,1-2,2h0a0,0,0,0,1,0,0V20A0,0,0,0,1,20,20Z"/></svg>