<?xml version="1.0" encoding="utf-8"?>
<!-- Generator: Adobe Illustrator 21.0.0, SVG Export Plug-In . SVG Version: 6.00 Build 0)  -->
<svg version="1.1" id="图层_1" xmlns="http://www.w3.org/2000/svg" xmlns:xlink="http://www.w3.org/1999/xlink" x="0px" y="0px"
	 viewBox="0 0 54 54" style="enable-background:new 0 0 54 54;" xml:space="preserve">
<style type="text/css">
	.st0{fill:#777F99;}
	.st1{fill:none;stroke:#777F99;stroke-linejoin:bevel;stroke-miterlimit:10;}
	.st2{fill:none;stroke:#FFFFFF;stroke-linejoin:bevel;stroke-miterlimit:10;}
	.st3{fill:#FFFFFF;}
	.st4{fill:#4488EE;}
	.st5{fill:#333333;}
	.st6{fill:none;stroke:#333333;stroke-linecap:round;stroke-linejoin:round;stroke-miterlimit:10;}
	.st7{fill:none;stroke:#4488EE;stroke-miterlimit:10;}
	.st8{fill:none;stroke:#333333;stroke-miterlimit:10;}
	.st9{fill:none;stroke:#777F99;stroke-width:3;stroke-linejoin:bevel;stroke-miterlimit:10;}
	.st10{fill:none;stroke:#777F99;stroke-width:2.6;stroke-linecap:round;stroke-linejoin:round;stroke-miterlimit:10;}
	.st11{fill:none;stroke:#777F99;stroke-width:2.6;stroke-miterlimit:10;}
	.st12{fill:none;stroke:#777F99;stroke-width:4;stroke-linejoin:bevel;stroke-miterlimit:10;}
	.st13{clip-path:url(#SVGID_2_);fill:#777F99;}
</style>
<g>
</g>
<g>
	<path class="st0" d="M19-28c0.6,0,1,0.4,1,1v18c0,0.6-0.4,1-1,1H5C4.4-8,4-8.4,4-9v-18c0-0.6,0.4-1,1-1H19 M19-29H5
		c-1.1,0-2,0.9-2,2v18c0,1.1,0.9,2,2,2h14c1.1,0,2-0.9,2-2v-18C21-28.1,20.1-29,19-29L19-29z"/>
</g>
<path class="st0" d="M19,23H5c-1.1,0-2-0.9-2-2V3c0-1.1,0.9-2,2-2h14c1.1,0,2,0.9,2,2v18C21,22.1,20.1,23,19,23z"/>
<g>
</g>
<g>
</g>
<g>
</g>
<g>
</g>
<g>
</g>
<g>
</g>
<g>
</g>
<g>
</g>
<g>
</g>
<g>
</g>
<g>
</g>
<g>
</g>
<g>
</g>
<g>
</g>
<g>
</g>
<g>
</g>
<g>
</g>
<line class="st1" x1="7" y1="-17.5" x2="17" y2="-17.5"/>
<line class="st1" x1="7" y1="-14.5" x2="17" y2="-14.5"/>
<line class="st1" x1="7" y1="-11.5" x2="12" y2="-11.5"/>
<g>
	<path class="st0" d="M10-24v3H7v-3H10 M10-25H7c-0.6,0-1,0.4-1,1v3c0,0.6,0.4,1,1,1h3c0.6,0,1-0.4,1-1v-3C11-24.6,10.6-25,10-25
		L10-25z"/>
</g>
<g>
	<path class="st0" d="M17-24v3h-3v-3H17 M17-25h-3c-0.6,0-1,0.4-1,1v3c0,0.6,0.4,1,1,1h3c0.6,0,1-0.4,1-1v-3C18-24.6,17.6-25,17-25
		L17-25z"/>
</g>
<g>
	<path class="st0" d="M42-27.8l9.1,5.8L42-16.2L32.9-22L42-27.8 M42-29l-11,7l11,7l11-7L42-29L42-29z"/>
</g>
<g>
	<polygon class="st0" points="42,-12 31.8,-18.5 31,-18 42,-11 53,-18 52.2,-18.5 	"/>
</g>
<g>
	<polygon class="st0" points="42,-8 31.8,-14.5 31,-14 42,-7 53,-14 52.2,-14.5 	"/>
</g>
<line class="st2" x1="7" y1="12.5" x2="17" y2="12.5"/>
<line class="st2" x1="7" y1="15.5" x2="17" y2="15.5"/>
<line class="st2" x1="7" y1="18.5" x2="12" y2="18.5"/>
<g>
	<path class="st3" d="M10,10H7c-0.6,0-1-0.4-1-1V6c0-0.6,0.4-1,1-1h3c0.6,0,1,0.4,1,1v3C11,9.6,10.6,10,10,10z"/>
</g>
<g>
	<path class="st3" d="M17,10h-3c-0.6,0-1-0.4-1-1V6c0-0.6,0.4-1,1-1h3c0.6,0,1,0.4,1,1v3C18,9.6,17.6,10,17,10z"/>
</g>
<polygon class="st0" points="42,15 31,8 42,1 53,8 "/>
<g>
	<polygon class="st0" points="42,18 31.8,11.5 31,12 42,19 53,12 52.2,11.5 	"/>
</g>
<g>
	<polygon class="st0" points="42,22 31.8,15.5 31,16 42,23 53,16 52.2,15.5 	"/>
</g>
<path class="st4" d="M19,53H5c-1.1,0-2-0.9-2-2V33c0-1.1,0.9-2,2-2h14c1.1,0,2,0.9,2,2v18C21,52.1,20.1,53,19,53z"/>
<line class="st2" x1="7" y1="42.5" x2="17" y2="42.5"/>
<line class="st2" x1="7" y1="45.5" x2="17" y2="45.5"/>
<line class="st2" x1="7" y1="48.5" x2="12" y2="48.5"/>
<g>
	<path class="st3" d="M10,40H7c-0.6,0-1-0.4-1-1v-3c0-0.6,0.4-1,1-1h3c0.6,0,1,0.4,1,1v3C11,39.6,10.6,40,10,40z"/>
</g>
<g>
	<path class="st3" d="M17,40h-3c-0.6,0-1-0.4-1-1v-3c0-0.6,0.4-1,1-1h3c0.6,0,1,0.4,1,1v3C18,39.6,17.6,40,17,40z"/>
</g>
<polygon class="st4" points="42,45 31,38 42,31 53,38 "/>
<polygon class="st4" points="42,48 31.8,41.5 31,42 42,49 53,42 52.2,41.5 "/>
<polygon class="st4" points="42,52 31.8,45.5 31,46 42,53 53,46 52.2,45.5 "/>
<g>
	<path class="st5" d="M72-27c2.5,0,4.5,2,4.5,4.5S74.5-18,72-18s-4.5-2-4.5-4.5S69.5-27,72-27 M72-28c-3,0-5.5,2.5-5.5,5.5
		S69-17,72-17s5.5-2.5,5.5-5.5S75-28,72-28L72-28z"/>
</g>
<path class="st6" d="M64-9.5c0-4.4,3.6-8,8-8s8,3.6,8,8"/>
<g>
	<g>
		<path class="st4" d="M72,3c2.5,0,4.5,2,4.5,4.5S74.5,12,72,12s-4.5-2-4.5-4.5S69.5,3,72,3 M72,2c-3,0-5.5,2.5-5.5,5.5S69,13,72,13
			s5.5-2.5,5.5-5.5S75,2,72,2L72,2z"/>
	</g>
</g>
<path class="st7" d="M64,20.5c0-4.4,3.6-8,8-8s8,3.6,8,8"/>
<g>
	<g>
		<path class="st5" d="M100.3-25.5v5.8h-5.8v-5.8H100.3 M100.3-26.5h-5.8c-0.6,0-1,0.4-1,1v5.8c0,0.6,0.4,1,1,1h5.8c0.6,0,1-0.4,1-1
			v-5.8C101.3-26.1,100.8-26.5,100.3-26.5L100.3-26.5z"/>
	</g>
	<g>
		<path class="st5" d="M109.5-25.5v5.8h-5.8v-5.8H109.5 M109.5-26.5h-5.8c-0.6,0-1,0.4-1,1v5.8c0,0.6,0.4,1,1,1h5.8c0.6,0,1-0.4,1-1
			v-5.8C110.5-26.1,110.1-26.5,109.5-26.5L109.5-26.5z"/>
	</g>
	<g>
		<path class="st5" d="M109.5-16.3v5.8h-5.8v-5.8H109.5 M109.5-17.3h-5.8c-0.6,0-1,0.4-1,1v5.8c0,0.6,0.4,1,1,1h5.8c0.6,0,1-0.4,1-1
			v-5.8C110.5-16.8,110.1-17.3,109.5-17.3L109.5-17.3z"/>
	</g>
	<g>
		<path class="st5" d="M100.3-16.3v5.8h-5.8v-5.8H100.3 M100.3-17.3h-5.8c-0.6,0-1,0.4-1,1v5.8c0,0.6,0.4,1,1,1h5.8c0.6,0,1-0.4,1-1
			v-5.8C101.3-16.8,100.8-17.3,100.3-17.3L100.3-17.3z"/>
	</g>
</g>
<g>
	<g>
		<path class="st4" d="M100.3,4.5v5.8h-5.8V4.5H100.3 M100.3,3.5h-5.8c-0.6,0-1,0.4-1,1v5.8c0,0.6,0.4,1,1,1h5.8c0.6,0,1-0.4,1-1
			V4.5C101.3,3.9,100.8,3.5,100.3,3.5L100.3,3.5z"/>
	</g>
	<g>
		<path class="st4" d="M109.5,4.5v5.8h-5.8V4.5H109.5 M109.5,3.5h-5.8c-0.6,0-1,0.4-1,1v5.8c0,0.6,0.4,1,1,1h5.8c0.6,0,1-0.4,1-1
			V4.5C110.5,3.9,110.1,3.5,109.5,3.5L109.5,3.5z"/>
	</g>
	<g>
		<path class="st4" d="M109.5,13.7v5.8h-5.8v-5.8H109.5 M109.5,12.7h-5.8c-0.6,0-1,0.4-1,1v5.8c0,0.6,0.4,1,1,1h5.8c0.6,0,1-0.4,1-1
			v-5.8C110.5,13.2,110.1,12.7,109.5,12.7L109.5,12.7z"/>
	</g>
	<g>
		<path class="st4" d="M100.3,13.7v5.8h-5.8v-5.8H100.3 M100.3,12.7h-5.8c-0.6,0-1,0.4-1,1v5.8c0,0.6,0.4,1,1,1h5.8c0.6,0,1-0.4,1-1
			v-5.8C101.3,13.2,100.8,12.7,100.3,12.7L100.3,12.7z"/>
	</g>
</g>
<polyline class="st8" points="141,-15 132,-9 123,-15 "/>
<polyline class="st8" points="141,-18 132,-12 123,-18 "/>
<g>
	<path class="st5" d="M132-25.8l7.2,4.8l-7.2,4.8l-7.2-4.8L132-25.8 M132-27l-9,6l9,6l9-6L132-27L132-27z"/>
</g>
<polyline class="st7" points="141,15 132,21 123,15 "/>
<polyline class="st7" points="141,12 132,18 123,12 "/>
<g>
	<path class="st4" d="M132,4.2l7.2,4.8l-7.2,4.8L124.8,9L132,4.2 M132,3l-9,6l9,6l9-6L132,3L132,3z"/>
</g>
<g>
	<g>
		<path class="st5" d="M164.7-9.5c-0.3,0-0.6-0.1-0.9-0.4c-0.3-0.3-1.2-1.1-1.9-1.1c-0.7,0-1.6,0.8-1.9,1.1
			c-0.2,0.2-0.5,0.4-0.8,0.4c-0.2,0-0.3,0-0.4-0.1l0,0l-2.2-1.2l0,0c-0.4-0.3-0.6-0.8-0.4-1.3c0,0,0.2-0.5,0.2-0.9
			c0-1.3-1-2.3-2.3-2.3H154l0,0c-0.4,0-0.7-0.3-0.8-0.8c0,0-0.2-1-0.2-1.8c0-0.8,0.2-1.7,0.2-1.8c0.1-0.5,0.4-0.8,0.8-0.8h0.1
			c1.3,0,2.3-1.1,2.3-2.3c0-0.4-0.2-0.9-0.2-0.9c-0.2-0.4,0-1,0.4-1.3l0,0l2.3-1.3l0,0c0.1-0.1,0.3-0.1,0.4-0.1
			c0.3,0,0.6,0.1,0.8,0.3c0.3,0.3,1.1,1,1.9,1c0.7,0,1.6-0.7,1.8-1c0.2-0.2,0.5-0.3,0.8-0.3c0.2,0,0.3,0,0.4,0.1l0,0l2.3,1.3l0,0
			c0.4,0.3,0.6,0.8,0.4,1.3c0,0-0.2,0.5-0.2,0.9c0,1.3,1,2.3,2.3,2.3h0.1c0.4,0,0.7,0.3,0.8,0.8c0,0,0.2,1,0.2,1.8
			c0,0.8-0.2,1.7-0.2,1.8c-0.1,0.5-0.4,0.8-0.8,0.8H170c-1.3,0-2.3,1.1-2.3,2.3c0,0.4,0.2,0.9,0.2,0.9c0.2,0.4,0,1-0.4,1.3l0,0
			l-2.3,1.3l0,0C165-9.5,164.8-9.5,164.7-9.5L164.7-9.5z M164.6-10.6C164.6-10.6,164.7-10.6,164.6-10.6L164.6-10.6l2.2-1.2
			c-0.1-0.1-0.3-0.7-0.3-1.3c0-1.8,1.4-3.3,3.2-3.4c0-0.1,0.2-0.9,0.2-1.5c0-0.6-0.1-1.4-0.2-1.5c-1.8-0.1-3.2-1.6-3.2-3.4
			c0-0.6,0.2-1.2,0.3-1.3l-2.1-1.2c0,0,0,0,0,0c0,0-0.1,0-0.1,0c0,0-0.3,0.3-0.8,0.7c-0.6,0.5-1.3,0.7-1.8,0.7
			c-0.6,0-1.2-0.2-1.8-0.7c-0.4-0.3-0.7-0.6-0.8-0.7c0,0,0,0-0.1,0c0,0,0,0,0,0l-2.2,1.2c0.1,0.1,0.3,0.7,0.3,1.3
			c0,1.8-1.4,3.3-3.2,3.4c0,0.1-0.2,0.9-0.2,1.5c0,0.6,0.1,1.4,0.2,1.5c1.8,0.1,3.2,1.6,3.2,3.4c0,0.6-0.2,1.2-0.3,1.3l2.1,1.2
			c0,0,0,0,0,0c0,0,0.1,0,0.1,0c0,0,0.3-0.4,0.8-0.7c0.7-0.5,1.3-0.7,1.9-0.7c0.6,0,1.2,0.3,1.9,0.7C164.3-11,164.6-10.6,164.6-10.6
			L164.6-10.6z M162-14.9c-1.7,0-3.1-1.4-3.1-3.1c0-1.7,1.4-3.1,3.1-3.1c1.7,0,3.1,1.4,3.1,3.1C165.1-16.3,163.7-14.9,162-14.9
			L162-14.9z M162-20.1c-1.1,0-2.1,0.9-2.1,2.1c0,1.1,0.9,2.1,2.1,2.1s2.1-0.9,2.1-2.1C164-19.1,163.1-20.1,162-20.1L162-20.1z
			 M162-20.1"/>
	</g>
</g>
<g>
	<g>
		<path class="st4" d="M164.7,20.5c-0.3,0-0.6-0.1-0.9-0.4c-0.3-0.3-1.2-1.1-1.9-1.1c-0.7,0-1.6,0.8-1.9,1.1
			c-0.2,0.2-0.5,0.4-0.8,0.4c-0.2,0-0.3,0-0.4-0.1l0,0l-2.2-1.2l0,0c-0.4-0.3-0.6-0.8-0.4-1.3c0,0,0.2-0.5,0.2-0.9
			c0-1.3-1-2.3-2.3-2.3H154l0,0c-0.4,0-0.7-0.3-0.8-0.8c0,0-0.2-1-0.2-1.8c0-0.8,0.2-1.7,0.2-1.8c0.1-0.5,0.4-0.8,0.8-0.8h0.1
			c1.3,0,2.3-1.1,2.3-2.3c0-0.4-0.2-0.9-0.2-0.9c-0.2-0.4,0-1,0.4-1.3l0,0l2.3-1.3l0,0c0.1-0.1,0.3-0.1,0.4-0.1
			c0.3,0,0.6,0.1,0.8,0.3c0.3,0.3,1.1,1,1.9,1c0.7,0,1.6-0.7,1.8-1c0.2-0.2,0.5-0.3,0.8-0.3c0.2,0,0.3,0,0.4,0.1l0,0l2.3,1.3l0,0
			c0.4,0.3,0.6,0.8,0.4,1.3c0,0-0.2,0.5-0.2,0.9c0,1.3,1,2.3,2.3,2.3h0.1c0.4,0,0.7,0.3,0.8,0.8c0,0,0.2,1,0.2,1.8
			c0,0.8-0.2,1.7-0.2,1.8c-0.1,0.5-0.4,0.8-0.8,0.8H170c-1.3,0-2.3,1.1-2.3,2.3c0,0.4,0.2,0.9,0.2,0.9c0.2,0.4,0,1-0.4,1.3l0,0
			l-2.3,1.3l0,0C165,20.5,164.8,20.5,164.7,20.5L164.7,20.5z M164.6,19.4C164.6,19.4,164.7,19.4,164.6,19.4L164.6,19.4l2.2-1.2
			c-0.1-0.1-0.3-0.7-0.3-1.3c0-1.8,1.4-3.3,3.2-3.4c0-0.1,0.2-0.9,0.2-1.5c0-0.6-0.1-1.4-0.2-1.5c-1.8-0.1-3.2-1.6-3.2-3.4
			c0-0.6,0.2-1.2,0.3-1.3l-2.1-1.2c0,0,0,0,0,0c0,0-0.1,0-0.1,0c0,0-0.3,0.3-0.8,0.7c-0.6,0.5-1.3,0.7-1.8,0.7
			c-0.6,0-1.2-0.2-1.8-0.7c-0.4-0.3-0.7-0.6-0.8-0.7c0,0,0,0-0.1,0c0,0,0,0,0,0l-2.2,1.2c0.1,0.1,0.3,0.7,0.3,1.3
			c0,1.8-1.4,3.3-3.2,3.4c0,0.1-0.2,0.9-0.2,1.5c0,0.6,0.1,1.4,0.2,1.5c1.8,0.1,3.2,1.6,3.2,3.4c0,0.6-0.2,1.2-0.3,1.3l2.1,1.2
			c0,0,0,0,0,0c0,0,0.1,0,0.1,0c0,0,0.3-0.4,0.8-0.7c0.7-0.5,1.3-0.7,1.9-0.7c0.6,0,1.2,0.3,1.9,0.7C164.3,19,164.6,19.4,164.6,19.4
			L164.6,19.4z M162,15.1c-1.7,0-3.1-1.4-3.1-3.1c0-1.7,1.4-3.1,3.1-3.1c1.7,0,3.1,1.4,3.1,3.1C165.1,13.7,163.7,15.1,162,15.1
			L162,15.1z M162,9.9c-1.1,0-2.1,0.9-2.1,2.1c0,1.1,0.9,2.1,2.1,2.1s2.1-0.9,2.1-2.1C164,10.9,163.1,9.9,162,9.9L162,9.9z M162,9.9
			"/>
	</g>
</g>
<g>
	<g>
		<path class="st4" d="M192,12.3c-0.5,0-0.8-0.4-0.8-0.8V2.8c0-0.5,0.4-0.8,0.8-0.8c0.5,0,0.8,0.4,0.8,0.8v8.6
			C192.9,11.9,192.5,12.3,192,12.3L192,12.3z M192,22c-2.4,0-4.7-0.9-6.4-2.6c-2-2-3-4.9-2.5-7.7c0.4-2.8,2.2-5.3,4.7-6.6l0.1,0
			c0.3-0.1,0.6,0,0.8,0.3c0.2,0.3,0.1,0.6-0.1,0.8l0,0h0c0,0-0.1,0-0.1,0.1c-2.6,1.5-4.2,4.2-4.2,6.8c0,4,3.8,7.8,7.8,7.8
			c4,0,7.8-3.8,7.8-7.8c0-2.7-1.7-5.4-4.3-6.9v0L195.5,6c-0.2-0.2-0.3-0.5-0.1-0.8c0.2-0.3,0.5-0.4,0.8-0.3h0c0.1,0,0.1,0,0.2,0.1h0
			c2.5,1.4,4.2,3.8,4.6,6.6c0.4,2.8-0.5,5.7-2.5,7.7C196.7,21,194.4,22,192,22L192,22z M192,22"/>
	</g>
</g>
<g>
	<g>
		<path class="st5" d="M192-17.7c-0.5,0-0.8-0.4-0.8-0.8v-8.6c0-0.5,0.4-0.8,0.8-0.8c0.5,0,0.8,0.4,0.8,0.8v8.6
			C192.9-18.1,192.5-17.7,192-17.7L192-17.7z M192-8c-2.4,0-4.7-0.9-6.4-2.6c-2-2-3-4.9-2.5-7.7c0.4-2.8,2.2-5.3,4.7-6.6l0.1,0
			c0.3-0.1,0.6,0,0.8,0.3c0.2,0.3,0.1,0.6-0.1,0.8l0,0h0c0,0-0.1,0-0.1,0.1c-2.6,1.5-4.2,4.2-4.2,6.8c0,4,3.8,7.8,7.8,7.8
			c4,0,7.8-3.8,7.8-7.8c0-2.7-1.7-5.4-4.3-6.9v0l-0.1-0.1c-0.2-0.2-0.3-0.5-0.1-0.8c0.2-0.3,0.5-0.4,0.8-0.3h0c0.1,0,0.1,0,0.2,0.1
			h0c2.5,1.4,4.2,3.8,4.6,6.6c0.4,2.8-0.5,5.7-2.5,7.7C196.7-9,194.4-8,192-8L192-8z M192-8"/>
	</g>
</g>
<line class="st9" x1="247.3" y1="-7.9" x2="263.1" y2="-7.9"/>
<line class="st9" x1="247.3" y1="-13.9" x2="263.1" y2="-13.9"/>
<line class="st9" x1="247.3" y1="-19.9" x2="263.1" y2="-19.9"/>
<path class="st10" d="M228.1-6.9c0-10,8-18.1,18-18.1"/>
<ellipse class="st11" cx="246.1" cy="-36" rx="10.9" ry="11"/>
<g>
	<line class="st12" x1="240.6" y1="10.1" x2="245.6" y2="10.1"/>
	<g>
		<g>
			<defs>
				<rect id="SVGID_1_" x="225.6" y="0.6" width="40" height="40"/>
			</defs>
			<clipPath id="SVGID_2_">
				<use xlink:href="#SVGID_1_"  style="overflow:visible;"/>
			</clipPath>
			<path class="st13" d="M264.2,37.8h-1.8V16c0-1.8-1.4-3.2-3.2-3.2h-8.4V3.9c0-1.8-1.5-3.3-3.3-3.3h-15.6c-1.8,0-3.3,1.5-3.3,3.3
				v33.9h-1.5c-0.8,0-1.4,0.6-1.4,1.4c0,0.8,0.6,1.4,1.4,1.4h37.2c0.8,0,1.4-0.6,1.4-1.4C265.6,38.4,265,37.8,264.2,37.8L264.2,37.8
				z M247.9,37.8h-16.7V4.4c0-0.6,0.5-1.1,1.1-1.1h14.5c0.6,0,1.1,0.5,1.1,1.1V37.8z M259.6,37.8h-8.9V15.5h7.6
				c0.7,0,1.3,0.6,1.3,1.3V37.8z M259.6,37.8"/>
		</g>
	</g>
	<line class="st12" x1="233.6" y1="27.1" x2="238.6" y2="27.1"/>
	<line class="st12" x1="252.6" y1="31.1" x2="257.6" y2="31.1"/>
	<line class="st12" x1="252.6" y1="23.1" x2="257.6" y2="23.1"/>
	<line class="st12" x1="240.6" y1="27.1" x2="245.6" y2="27.1"/>
	<line class="st12" x1="233.6" y1="10.1" x2="238.6" y2="10.1"/>
	<line class="st12" x1="233.6" y1="19.1" x2="238.6" y2="19.1"/>
	<line class="st12" x1="240.6" y1="19.1" x2="245.6" y2="19.1"/>
</g>
</svg>
