<?xml version="1.0" encoding="utf-8"?>
<!-- Generator: Adobe Illustrator 21.0.0, SVG Export Plug-In . SVG Version: 6.00 Build 0)  -->
<svg version="1.1" id="图层_1" xmlns="http://www.w3.org/2000/svg" xmlns:xlink="http://www.w3.org/1999/xlink" x="0px" y="0px"
	 viewBox="0 0 144 54" style="enable-background:new 0 0 144 54;" xml:space="preserve">
<style type="text/css">
	.st0{fill:#777F99;}
	.st1{fill:none;stroke:#777F99;stroke-linejoin:bevel;stroke-miterlimit:10;}
	.st2{fill:#4488EE;}
	.st3{fill:none;stroke:#777F99;stroke-linecap:round;stroke-linejoin:round;stroke-miterlimit:10;}
	.st4{fill:none;stroke:#4488EE;stroke-miterlimit:10;}
	.st5{fill:none;stroke:#777F99;stroke-miterlimit:10;}
	.st6{fill:none;stroke:#777F99;stroke-width:3;stroke-linejoin:bevel;stroke-miterlimit:10;}
	.st7{fill:none;stroke:#777F99;stroke-width:2.6;stroke-linecap:round;stroke-linejoin:round;stroke-miterlimit:10;}
	.st8{fill:none;stroke:#777F99;stroke-width:2.6;stroke-miterlimit:10;}
	.st9{fill:none;stroke:#777F99;stroke-width:4;stroke-linejoin:bevel;stroke-miterlimit:10;}
	.st10{clip-path:url(#SVGID_2_);fill:#777F99;}
</style>
<g>
</g>
<g>
	<path class="st0" d="M-41,2c0.6,0,1,0.4,1,1v18c0,0.6-0.4,1-1,1h-14c-0.6,0-1-0.4-1-1V3c0-0.6,0.4-1,1-1H-41 M-41,1h-14
		c-1.1,0-2,0.9-2,2v18c0,1.1,0.9,2,2,2h14c1.1,0,2-0.9,2-2V3C-39,1.9-39.9,1-41,1L-41,1z"/>
</g>
<g>
</g>
<g>
</g>
<g>
</g>
<g>
</g>
<g>
</g>
<g>
</g>
<g>
</g>
<g>
</g>
<g>
</g>
<g>
</g>
<g>
</g>
<g>
</g>
<g>
</g>
<g>
</g>
<g>
</g>
<g>
</g>
<g>
</g>
<line class="st1" x1="-53" y1="12.5" x2="-43" y2="12.5"/>
<line class="st1" x1="-53" y1="15.5" x2="-43" y2="15.5"/>
<line class="st1" x1="-53" y1="18.5" x2="-48" y2="18.5"/>
<g>
	<path class="st0" d="M-50,6v3h-3V6H-50 M-50,5h-3c-0.6,0-1,0.4-1,1v3c0,0.6,0.4,1,1,1h3c0.6,0,1-0.4,1-1V6C-49,5.4-49.4,5-50,5
		L-50,5z"/>
</g>
<g>
	<path class="st0" d="M-43,6v3h-3V6H-43 M-43,5h-3c-0.6,0-1,0.4-1,1v3c0,0.6,0.4,1,1,1h3c0.6,0,1-0.4,1-1V6C-42,5.4-42.4,5-43,5
		L-43,5z"/>
</g>
<g>
	<path class="st0" d="M-18,2.2L-8.9,8l-9.1,5.8L-27.1,8L-18,2.2 M-18,1l-11,7l11,7l11-7L-18,1L-18,1z"/>
</g>
<g>
	<polygon class="st0" points="-18,18 -28.2,11.5 -29,12 -18,19 -7,12 -7.8,11.5 	"/>
</g>
<g>
	<polygon class="st0" points="-18,22 -28.2,15.5 -29,16 -18,23 -7,16 -7.8,15.5 	"/>
</g>
<path class="st0" d="M-41,31h-14c-1.1,0-2,0.9-2,2v18c0,1.1,0.9,2,2,2h14c1.1,0,2-0.9,2-2V33C-39,31.9-39.9,31-41,31z M-54,39v-3
	c0-0.6,0.4-1,1-1h3c0.6,0,1,0.4,1,1v3c0,0.6-0.4,1-1,1h-3C-53.6,40-54,39.6-54,39z M-48,49h-5v-1h5V49z M-43,46h-10v-1h10V46z
	 M-43,43h-10v-1h10V43z M-42,39c0,0.6-0.4,1-1,1h-3c-0.6,0-1-0.4-1-1v-3c0-0.6,0.4-1,1-1h3c0.6,0,1,0.4,1,1V39z"/>
<polygon class="st0" points="-18,45 -29,38 -18,31 -7,38 "/>
<g>
	<polygon class="st0" points="-18,48 -28.2,41.5 -29,42 -18,49 -7,42 -7.8,41.5 	"/>
</g>
<g>
	<polygon class="st0" points="-18,52 -28.2,45.5 -29,46 -18,53 -7,46 -7.8,45.5 	"/>
</g>
<path class="st2" d="M-41,61h-14c-1.1,0-2,0.9-2,2v18c0,1.1,0.9,2,2,2h14c1.1,0,2-0.9,2-2V63C-39,61.9-39.9,61-41,61z M-54,69v-3
	c0-0.6,0.4-1,1-1h3c0.6,0,1,0.4,1,1v3c0,0.6-0.4,1-1,1h-3C-53.6,70-54,69.6-54,69z M-48,79h-5v-1h5V79z M-43,76h-10v-1h10V76z
	 M-43,73h-10v-1h10V73z M-42,69c0,0.6-0.4,1-1,1h-3c-0.6,0-1-0.4-1-1v-3c0-0.6,0.4-1,1-1h3c0.6,0,1,0.4,1,1V69z"/>
<polygon class="st2" points="-18,75 -29,68 -18,61 -7,68 "/>
<polygon class="st2" points="-18,78 -28.2,71.5 -29,72 -18,79 -7,72 -7.8,71.5 "/>
<polygon class="st2" points="-18,82 -28.2,75.5 -29,76 -18,83 -7,76 -7.8,75.5 "/>
<g>
	<path class="st0" d="M12,3c2.5,0,4.5,2,4.5,4.5S14.5,12,12,12s-4.5-2-4.5-4.5S9.5,3,12,3 M12,2C9,2,6.5,4.5,6.5,7.5S9,13,12,13
		s5.5-2.5,5.5-5.5S15,2,12,2L12,2z"/>
</g>
<path class="st3" d="M4,20.5c0-4.4,3.6-8,8-8s8,3.6,8,8"/>
<g>
	<g>
		<path class="st2" d="M12,33c2.5,0,4.5,2,4.5,4.5S14.5,42,12,42s-4.5-2-4.5-4.5S9.5,33,12,33 M12,32c-3,0-5.5,2.5-5.5,5.5
			S9,43,12,43s5.5-2.5,5.5-5.5S15,32,12,32L12,32z"/>
	</g>
</g>
<path class="st4" d="M4,50.5c0-4.4,3.6-8,8-8s8,3.6,8,8"/>
<g>
	<g>
		<path class="st0" d="M40.3,4.5v5.8h-5.8V4.5H40.3 M40.3,3.5h-5.8c-0.6,0-1,0.4-1,1v5.8c0,0.6,0.4,1,1,1h5.8c0.6,0,1-0.4,1-1V4.5
			C41.3,3.9,40.8,3.5,40.3,3.5L40.3,3.5z"/>
	</g>
	<g>
		<path class="st0" d="M49.5,4.5v5.8h-5.8V4.5H49.5 M49.5,3.5h-5.8c-0.6,0-1,0.4-1,1v5.8c0,0.6,0.4,1,1,1h5.8c0.6,0,1-0.4,1-1V4.5
			C50.5,3.9,50.1,3.5,49.5,3.5L49.5,3.5z"/>
	</g>
	<g>
		<path class="st0" d="M49.5,13.7v5.8h-5.8v-5.8H49.5 M49.5,12.7h-5.8c-0.6,0-1,0.4-1,1v5.8c0,0.6,0.4,1,1,1h5.8c0.6,0,1-0.4,1-1
			v-5.8C50.5,13.2,50.1,12.7,49.5,12.7L49.5,12.7z"/>
	</g>
	<g>
		<path class="st0" d="M40.3,13.7v5.8h-5.8v-5.8H40.3 M40.3,12.7h-5.8c-0.6,0-1,0.4-1,1v5.8c0,0.6,0.4,1,1,1h5.8c0.6,0,1-0.4,1-1
			v-5.8C41.3,13.2,40.8,12.7,40.3,12.7L40.3,12.7z"/>
	</g>
</g>
<g>
	<g>
		<path class="st2" d="M40.3,34.5v5.8h-5.8v-5.8H40.3 M40.3,33.5h-5.8c-0.6,0-1,0.4-1,1v5.8c0,0.6,0.4,1,1,1h5.8c0.6,0,1-0.4,1-1
			v-5.8C41.3,33.9,40.8,33.5,40.3,33.5L40.3,33.5z"/>
	</g>
	<g>
		<path class="st2" d="M49.5,34.5v5.8h-5.8v-5.8H49.5 M49.5,33.5h-5.8c-0.6,0-1,0.4-1,1v5.8c0,0.6,0.4,1,1,1h5.8c0.6,0,1-0.4,1-1
			v-5.8C50.5,33.9,50.1,33.5,49.5,33.5L49.5,33.5z"/>
	</g>
	<g>
		<path class="st2" d="M49.5,43.7v5.8h-5.8v-5.8H49.5 M49.5,42.7h-5.8c-0.6,0-1,0.4-1,1v5.8c0,0.6,0.4,1,1,1h5.8c0.6,0,1-0.4,1-1
			v-5.8C50.5,43.2,50.1,42.7,49.5,42.7L49.5,42.7z"/>
	</g>
	<g>
		<path class="st2" d="M40.3,43.7v5.8h-5.8v-5.8H40.3 M40.3,42.7h-5.8c-0.6,0-1,0.4-1,1v5.8c0,0.6,0.4,1,1,1h5.8c0.6,0,1-0.4,1-1
			v-5.8C41.3,43.2,40.8,42.7,40.3,42.7L40.3,42.7z"/>
	</g>
</g>
<polyline class="st5" points="81,15 72,21 63,15 "/>
<polyline class="st5" points="81,12 72,18 63,12 "/>
<g>
	<path class="st0" d="M72,4.2L79.2,9L72,13.8L64.8,9L72,4.2 M72,3l-9,6l9,6l9-6L72,3L72,3z"/>
</g>
<polyline class="st4" points="81,45 72,51 63,45 "/>
<polyline class="st4" points="81,42 72,48 63,42 "/>
<g>
	<path class="st2" d="M72,34.2l7.2,4.8L72,43.8L64.8,39L72,34.2 M72,33l-9,6l9,6l9-6L72,33L72,33z"/>
</g>
<g>
	<g>
		<path class="st0" d="M104.7,20.5c-0.3,0-0.6-0.1-0.9-0.4c-0.3-0.3-1.2-1.1-1.9-1.1c-0.7,0-1.6,0.8-1.9,1.1
			c-0.2,0.2-0.5,0.4-0.8,0.4c-0.2,0-0.3,0-0.4-0.1l0,0l-2.2-1.2l0,0c-0.4-0.3-0.6-0.8-0.4-1.3c0,0,0.2-0.5,0.2-0.9
			c0-1.3-1-2.3-2.3-2.3H94l0,0c-0.4,0-0.7-0.3-0.8-0.8c0,0-0.2-1-0.2-1.8c0-0.8,0.2-1.7,0.2-1.8c0.1-0.5,0.4-0.8,0.8-0.8H94
			c1.3,0,2.3-1.1,2.3-2.3c0-0.4-0.2-0.9-0.2-0.9c-0.2-0.4,0-1,0.4-1.3l0,0l2.3-1.3l0,0c0.1-0.1,0.3-0.1,0.4-0.1
			c0.3,0,0.6,0.1,0.8,0.3c0.3,0.3,1.1,1,1.9,1c0.7,0,1.6-0.7,1.8-1c0.2-0.2,0.5-0.3,0.8-0.3c0.2,0,0.3,0,0.4,0.1l0,0l2.3,1.3l0,0
			c0.4,0.3,0.6,0.8,0.4,1.3c0,0-0.2,0.5-0.2,0.9c0,1.3,1,2.3,2.3,2.3h0.1c0.4,0,0.7,0.3,0.8,0.8c0,0,0.2,1,0.2,1.8
			c0,0.8-0.2,1.7-0.2,1.8c-0.1,0.5-0.4,0.8-0.8,0.8H110c-1.3,0-2.3,1.1-2.3,2.3c0,0.4,0.2,0.9,0.2,0.9c0.2,0.4,0,1-0.4,1.3l0,0
			l-2.3,1.3l0,0C105,20.5,104.8,20.5,104.7,20.5L104.7,20.5z M104.6,19.4C104.6,19.4,104.7,19.4,104.6,19.4L104.6,19.4l2.2-1.2
			c-0.1-0.1-0.3-0.7-0.3-1.3c0-1.8,1.4-3.3,3.2-3.4c0-0.1,0.2-0.9,0.2-1.5c0-0.6-0.1-1.4-0.2-1.5c-1.8-0.1-3.2-1.6-3.2-3.4
			c0-0.6,0.2-1.2,0.3-1.3l-2.1-1.2c0,0,0,0,0,0c0,0-0.1,0-0.1,0c0,0-0.3,0.3-0.8,0.7c-0.6,0.5-1.3,0.7-1.8,0.7
			c-0.6,0-1.2-0.2-1.8-0.7c-0.4-0.3-0.7-0.6-0.8-0.7c0,0,0,0-0.1,0c0,0,0,0,0,0l-2.2,1.2c0.1,0.1,0.3,0.7,0.3,1.3
			c0,1.8-1.4,3.3-3.2,3.4c0,0.1-0.2,0.9-0.2,1.5c0,0.6,0.1,1.4,0.2,1.5c1.8,0.1,3.2,1.6,3.2,3.4c0,0.6-0.2,1.2-0.3,1.3l2.1,1.2
			c0,0,0,0,0,0c0,0,0.1,0,0.1,0c0,0,0.3-0.4,0.8-0.7c0.7-0.5,1.3-0.7,1.9-0.7c0.6,0,1.2,0.3,1.9,0.7C104.3,19,104.6,19.4,104.6,19.4
			L104.6,19.4z M102,15.1c-1.7,0-3.1-1.4-3.1-3.1c0-1.7,1.4-3.1,3.1-3.1c1.7,0,3.1,1.4,3.1,3.1C105.1,13.7,103.7,15.1,102,15.1
			L102,15.1z M102,9.9c-1.1,0-2.1,0.9-2.1,2.1c0,1.1,0.9,2.1,2.1,2.1s2.1-0.9,2.1-2.1C104,10.9,103.1,9.9,102,9.9L102,9.9z M102,9.9
			"/>
	</g>
</g>
<g>
	<g>
		<path class="st2" d="M104.7,50.5c-0.3,0-0.6-0.1-0.9-0.4c-0.3-0.3-1.2-1.1-1.9-1.1c-0.7,0-1.6,0.8-1.9,1.1
			c-0.2,0.2-0.5,0.4-0.8,0.4c-0.2,0-0.3,0-0.4-0.1l0,0l-2.2-1.2l0,0c-0.4-0.3-0.6-0.8-0.4-1.3c0,0,0.2-0.5,0.2-0.9
			c0-1.3-1-2.3-2.3-2.3H94l0,0c-0.4,0-0.7-0.3-0.8-0.8c0,0-0.2-1-0.2-1.8c0-0.8,0.2-1.7,0.2-1.8c0.1-0.5,0.4-0.8,0.8-0.8H94
			c1.3,0,2.3-1.1,2.3-2.3c0-0.4-0.2-0.9-0.2-0.9c-0.2-0.4,0-1,0.4-1.3l0,0l2.3-1.3l0,0c0.1-0.1,0.3-0.1,0.4-0.1
			c0.3,0,0.6,0.1,0.8,0.3c0.3,0.3,1.1,1,1.9,1c0.7,0,1.6-0.7,1.8-1c0.2-0.2,0.5-0.3,0.8-0.3c0.2,0,0.3,0,0.4,0.1l0,0l2.3,1.3l0,0
			c0.4,0.3,0.6,0.8,0.4,1.3c0,0-0.2,0.5-0.2,0.9c0,1.3,1,2.3,2.3,2.3h0.1c0.4,0,0.7,0.3,0.8,0.8c0,0,0.2,1,0.2,1.8
			c0,0.8-0.2,1.7-0.2,1.8c-0.1,0.5-0.4,0.8-0.8,0.8H110c-1.3,0-2.3,1.1-2.3,2.3c0,0.4,0.2,0.9,0.2,0.9c0.2,0.4,0,1-0.4,1.3l0,0
			l-2.3,1.3l0,0C105,50.5,104.8,50.5,104.7,50.5L104.7,50.5z M104.6,49.4C104.6,49.4,104.7,49.4,104.6,49.4L104.6,49.4l2.2-1.2
			c-0.1-0.1-0.3-0.7-0.3-1.3c0-1.8,1.4-3.3,3.2-3.4c0-0.1,0.2-0.9,0.2-1.5c0-0.6-0.1-1.4-0.2-1.5c-1.8-0.1-3.2-1.6-3.2-3.4
			c0-0.6,0.2-1.2,0.3-1.3l-2.1-1.2c0,0,0,0,0,0c0,0-0.1,0-0.1,0c0,0-0.3,0.3-0.8,0.7c-0.6,0.5-1.3,0.7-1.8,0.7
			c-0.6,0-1.2-0.2-1.8-0.7c-0.4-0.3-0.7-0.6-0.8-0.7c0,0,0,0-0.1,0c0,0,0,0,0,0l-2.2,1.2c0.1,0.1,0.3,0.7,0.3,1.3
			c0,1.8-1.4,3.3-3.2,3.4c0,0.1-0.2,0.9-0.2,1.5c0,0.6,0.1,1.4,0.2,1.5c1.8,0.1,3.2,1.6,3.2,3.4c0,0.6-0.2,1.2-0.3,1.3l2.1,1.2
			c0,0,0,0,0,0c0,0,0.1,0,0.1,0c0,0,0.3-0.4,0.8-0.7c0.7-0.5,1.3-0.7,1.9-0.7c0.6,0,1.2,0.3,1.9,0.7C104.3,49,104.6,49.4,104.6,49.4
			L104.6,49.4z M102,45.1c-1.7,0-3.1-1.4-3.1-3.1c0-1.7,1.4-3.1,3.1-3.1c1.7,0,3.1,1.4,3.1,3.1C105.1,43.7,103.7,45.1,102,45.1
			L102,45.1z M102,39.9c-1.1,0-2.1,0.9-2.1,2.1c0,1.1,0.9,2.1,2.1,2.1s2.1-0.9,2.1-2.1C104,40.9,103.1,39.9,102,39.9L102,39.9z
			 M102,39.9"/>
	</g>
</g>
<g>
	<g>
		<path class="st2" d="M132,42.3c-0.5,0-0.8-0.4-0.8-0.8v-8.6c0-0.5,0.4-0.8,0.8-0.8c0.5,0,0.8,0.4,0.8,0.8v8.6
			C132.9,41.9,132.5,42.3,132,42.3L132,42.3z M132,52c-2.4,0-4.7-0.9-6.4-2.6c-2-2-3-4.9-2.5-7.7c0.4-2.8,2.2-5.3,4.7-6.6l0.1,0
			c0.3-0.1,0.6,0,0.8,0.3c0.2,0.3,0.1,0.6-0.1,0.8l0,0h0c0,0-0.1,0-0.1,0.1c-2.6,1.5-4.2,4.2-4.2,6.8c0,4,3.8,7.8,7.8,7.8
			c4,0,7.8-3.8,7.8-7.8c0-2.7-1.7-5.4-4.3-6.9v0l-0.1-0.1c-0.2-0.2-0.3-0.5-0.1-0.8c0.2-0.3,0.5-0.4,0.8-0.3h0c0.1,0,0.1,0,0.2,0.1
			h0c2.5,1.4,4.2,3.8,4.6,6.6c0.4,2.8-0.5,5.7-2.5,7.7C136.7,51,134.4,52,132,52L132,52z M132,52"/>
	</g>
</g>
<g>
	<g>
		<path class="st0" d="M132,12.3c-0.5,0-0.8-0.4-0.8-0.8V2.8c0-0.5,0.4-0.8,0.8-0.8c0.5,0,0.8,0.4,0.8,0.8v8.6
			C132.9,11.9,132.5,12.3,132,12.3L132,12.3z M132,22c-2.4,0-4.7-0.9-6.4-2.6c-2-2-3-4.9-2.5-7.7c0.4-2.8,2.2-5.3,4.7-6.6l0.1,0
			c0.3-0.1,0.6,0,0.8,0.3c0.2,0.3,0.1,0.6-0.1,0.8l0,0h0c0,0-0.1,0-0.1,0.1c-2.6,1.5-4.2,4.2-4.2,6.8c0,4,3.8,7.8,7.8,7.8
			c4,0,7.8-3.8,7.8-7.8c0-2.7-1.7-5.4-4.3-6.9v0L135.5,6c-0.2-0.2-0.3-0.5-0.1-0.8c0.2-0.3,0.5-0.4,0.8-0.3h0c0.1,0,0.1,0,0.2,0.1h0
			c2.5,1.4,4.2,3.8,4.6,6.6c0.4,2.8-0.5,5.7-2.5,7.7C136.7,21,134.4,22,132,22L132,22z M132,22"/>
	</g>
</g>
<line class="st6" x1="187.3" y1="22.1" x2="203.1" y2="22.1"/>
<line class="st6" x1="187.3" y1="16.1" x2="203.1" y2="16.1"/>
<line class="st6" x1="187.3" y1="10.1" x2="203.1" y2="10.1"/>
<path class="st7" d="M168.1,23.1c0-10,8-18.1,18-18.1"/>
<ellipse class="st8" cx="186.1" cy="-6" rx="10.9" ry="11"/>
<g>
	<line class="st9" x1="180.6" y1="40.1" x2="185.6" y2="40.1"/>
	<g>
		<g>
			<defs>
				<rect id="SVGID_1_" x="165.6" y="30.6" width="40" height="40"/>
			</defs>
			<clipPath id="SVGID_2_">
				<use xlink:href="#SVGID_1_"  style="overflow:visible;"/>
			</clipPath>
			<path class="st10" d="M204.2,67.8h-1.8V46c0-1.8-1.4-3.2-3.2-3.2h-8.4v-8.9c0-1.8-1.5-3.3-3.3-3.3h-15.6c-1.8,0-3.3,1.5-3.3,3.3
				v33.9h-1.5c-0.8,0-1.4,0.6-1.4,1.4c0,0.8,0.6,1.4,1.4,1.4h37.2c0.8,0,1.4-0.6,1.4-1.4C205.6,68.4,205,67.8,204.2,67.8L204.2,67.8
				z M187.9,67.8h-16.7V34.4c0-0.6,0.5-1.1,1.1-1.1h14.5c0.6,0,1.1,0.5,1.1,1.1V67.8z M199.6,67.8h-8.9V45.5h7.6
				c0.7,0,1.3,0.6,1.3,1.3V67.8z M199.6,67.8"/>
		</g>
	</g>
	<line class="st9" x1="173.6" y1="57.1" x2="178.6" y2="57.1"/>
	<line class="st9" x1="192.6" y1="61.1" x2="197.6" y2="61.1"/>
	<line class="st9" x1="192.6" y1="53.1" x2="197.6" y2="53.1"/>
	<line class="st9" x1="180.6" y1="57.1" x2="185.6" y2="57.1"/>
	<line class="st9" x1="173.6" y1="40.1" x2="178.6" y2="40.1"/>
	<line class="st9" x1="173.6" y1="49.1" x2="178.6" y2="49.1"/>
	<line class="st9" x1="180.6" y1="49.1" x2="185.6" y2="49.1"/>
</g>
</svg>
