<?xml version="1.0" encoding="utf-8"?>
<!-- Generator: Adobe Illustrator 21.0.0, SVG Export Plug-In . SVG Version: 6.00 Build 0)  -->
<svg version="1.1" id="图层_3" xmlns="http://www.w3.org/2000/svg" xmlns:xlink="http://www.w3.org/1999/xlink" x="0px" y="0px"
	 viewBox="0 0 186 40" style="enable-background:new 0 0 186 40;" xml:space="preserve">
<style type="text/css">
	.st0{fill:#0066FF;}
	.st1{fill:#0066CC;}
	.st2{fill:#33EECC;}
	.st3{fill:url(#SVGID_1_);}
</style>
<g>
	<g>
		<path class="st0" d="M5,40V12.5h12.5C24.4,12.5,30,18.1,30,25v2.5C30,34.4,24.4,40,17.5,40H5z"/>
		<g>
			<path class="st1" d="M5,30V15h20v2.5C25,24.4,19.4,30,12.5,30H5z"/>
		</g>
		<g>
			<path class="st2" d="M0,27.5V0h12.5C19.4,0,25,5.6,25,12.5V15c0,6.9-5.6,12.5-12.5,12.5H0z"/>
		</g>
		<linearGradient id="SVGID_1_" gradientUnits="userSpaceOnUse" x1="5" y1="26.25" x2="30" y2="26.25">
			<stop  offset="0" style="stop-color:#0066FF;stop-opacity:0"/>
			<stop  offset="1" style="stop-color:#0066FF"/>
		</linearGradient>
		<path class="st3" d="M5,40V12.5h12.5C24.4,12.5,30,18.1,30,25v2.5C30,34.4,24.4,40,17.5,40H5z"/>
	</g>
	<path class="st0" d="M53.5,21.5c-0.7-0.9-1.5-1.5-2.4-1.9c2-0.4,3.4-1.1,4.4-2.2c1-1,1.4-2.4,1.4-4.1c0-0.8-0.1-1.6-0.4-2.4
		c-0.3-0.7-0.7-1.4-1.3-2s-1.2-1-1.9-1.3c-0.6-0.3-1.3-0.4-2-0.5C50.7,7.1,49.8,7,48.7,7H38.4V28c0,1.3,1,2.3,2.3,2.3H43V20.1h1.6
		c0.8,0,1.5,0.1,2,0.3c0.5,0.2,1.1,0.6,1.6,1.2c0.5,0.6,1.1,1.5,1.8,2.6l2.8,4.9c0.5,1,1.7,1.3,2.7,0.8l2.6-1.3c0,0-2-3.6-2.6-4.5
		C55,23.3,54.3,22.4,53.5,21.5z M50,16.5c-0.8,0.2-1.7,0.3-2.8,0.3H43v-6.3h4.3c1.6,0,2.7,0.1,3.2,0.3c0.6,0.2,1,0.6,1.3,1.1
		c0.3,0.5,0.5,1,0.5,1.7c0,0.8-0.2,1.4-0.6,1.9C51.3,16,50.7,16.3,50,16.5z"/>
	<path class="st0" d="M73.1,11.7h-2.7V20c0,2.2-0.1,3.6-0.4,4.3c-0.3,0.7-0.8,1.3-1.5,1.8c-0.7,0.5-1.4,0.7-2.2,0.7
		c-0.8,0-1.4-0.2-1.9-0.6c-0.5-0.4-0.8-1-1-1.7c-0.2-0.7-0.3-1.6-0.3-2.7v-8.1c0-1-0.8-1.9-1.9-1.9h-2.7v11.8c0,1.8,0.3,3.2,0.9,4.2
		c0.5,0.8,1.2,1.4,2,1.9c0.9,0.5,1.9,0.7,3,0.7c0.9,0,1.7-0.1,2.4-0.3c0.7-0.2,1.4-0.6,2-1c0.6-0.5,1.2-1,1.7-1.7v1.3
		c0,1.1,0.9,1.9,1.9,1.9H75V13.6C75,12.5,74.1,11.7,73.1,11.7z"/>
	<path class="st0" d="M92.5,14.7c-0.5-1-1.2-1.7-2.1-2.2c-0.9-0.5-2-0.8-3.2-0.8c-1.2,0-2.3,0.2-3.3,0.7c-1,0.5-1.8,1.3-2.6,2.3
		v-1.2c0-1-0.8-1.9-1.9-1.9H77v16.7c0,1.1,0.9,1.9,1.9,1.9h2.7v-8.5c0-1.9,0.1-3.1,0.3-3.8c0.3-0.8,0.8-1.5,1.5-2
		c0.7-0.5,1.4-0.7,2.2-0.7c1.2,0,2.2,0.6,2.6,1.4c0.4,0.8,0.5,1.7,0.5,3.2v8.5c0,1.1,0.9,1.9,1.9,1.9h2.6V19c0-1,0-1.8-0.1-2.5
		C93,15.9,92.8,15.3,92.5,14.7z"/>
	<path class="st0" d="M109.6,11.7H107V20c0,2.2-0.1,3.6-0.4,4.3c-0.3,0.7-0.8,1.3-1.5,1.8c-0.7,0.5-1.4,0.7-2.2,0.7
		c-0.8,0-1.4-0.2-1.9-0.6c-0.5-0.4-0.8-1-1-1.7c-0.2-0.7-0.3-1.6-0.3-2.7v-8.1c0-1-0.8-1.9-1.9-1.9h-2.7v11.8c0,1.8,0.3,3.2,0.9,4.2
		c0.5,0.8,1.2,1.4,2,1.9c0.9,0.5,1.9,0.7,3,0.7c0.9,0,1.7-0.1,2.4-0.3c0.7-0.2,1.4-0.6,2-1c0.6-0.5,1.2-1,1.7-1.7v1.3
		c0,1.1,0.9,1.9,1.9,1.9h2.4V13.6C111.5,12.5,110.7,11.7,109.6,11.7z"/>
	<path class="st0" d="M127.5,12.8c-1.2-0.7-2.5-1.1-3.9-1.1c-1.2,0-2.2,0.2-3.1,0.7c-0.9,0.5-1.8,1.3-2.7,2.3v-1.2
		c0-1-0.8-1.9-1.9-1.9h-2.4v24c0,1.1,0.9,1.9,1.9,1.9h2.4V27.2c0.8,1,1.6,1.8,2.5,2.3c0.9,0.5,2,0.8,3.3,0.8c1.1,0,2.1-0.2,3-0.6
		c0.9-0.4,1.8-1,2.5-1.8c0.7-0.8,1.2-1.8,1.6-3c0.4-1.2,0.6-2.5,0.6-3.9c0-1.9-0.3-3.6-1-5C129.6,14.6,128.7,13.5,127.5,12.8z
		 M126.2,24.1c-0.4,0.9-0.9,1.5-1.6,2c-0.6,0.4-1.4,0.7-2.1,0.7c-1.3,0-2.3-0.5-3.2-1.5c-0.9-1-1.3-2.4-1.3-4.2
		c0-1.9,0.4-3.4,1.3-4.4c0.9-1,1.9-1.5,3.2-1.5c0.8,0,1.5,0.2,2.2,0.7c0.7,0.5,1.2,1.1,1.5,2c0.4,0.9,0.6,1.9,0.6,3.1
		C126.8,22.2,126.6,23.2,126.2,24.1z"/>
	<path class="st0" d="M159.9,26.1V12c0-0.9-0.8-1.7-1.7-1.7h-3.9V8c0-0.9-0.8-1.7-1.7-1.7h-3.1v4H144v14c0,0.9,0.8,1.7,1.7,1.7h3.9
		v3.4c0,0.9,0.8,1.7,1.7,1.7h3.1v-5.1H159.9z M149.5,24.1h-0.7c-0.3,0-0.5-0.2-0.5-0.5V12.3h0.7c0.3,0,0.5,0.2,0.5,0.5V24.1z
		 M154.3,23.6V12.3h0.7c0.3,0,0.5,0.2,0.5,0.5v11.2h-0.7C154.6,24.1,154.3,23.8,154.3,23.6z"/>
	<path class="st0" d="M142.8,15.7L142.1,9c-0.1-1.1-1.1-2-2.2-2h-2.8l0.8,8.7H142.8z"/>
	<path class="st0" d="M141.5,29.9l1-10.5c0.1-0.9-0.6-1.7-1.5-1.7h-3.1l-1,10.5c-0.1,0.9,0.6,1.7,1.5,1.7H141.5z"/>
	<g>
		<path class="st0" d="M186,8.7v-1c0-0.4-0.3-0.8-0.8-0.8h-22.9v1.8h9.3v1h-9.1V15c0,0.9,0.7,1.6,1.6,1.6h3.1v-5.1h4
			c0.3,0,0.5,0.2,0.5,0.5V15c0,0.9,0.7,1.6,1.6,1.6h3.6v-5.1h4c0.3,0,0.5,0.2,0.5,0.5V15c0,0.9,0.7,1.6,1.6,1.6h3.1v-5.3
			c0-0.9-0.7-1.6-1.6-1.6h-7.5v-1H186z"/>
		<path class="st0" d="M170.1,11.8h-2.5l0.3,1.5c0.1,0.3,0.3,0.5,0.6,0.5h2.5l-0.3-1.5C170.6,12,170.4,11.8,170.1,11.8z"/>
		<path class="st0" d="M168.5,16.3h2.5l-0.3-1.5c-0.1-0.3-0.3-0.5-0.6-0.5h-2.5l0.3,1.5C167.9,16.1,168.2,16.3,168.5,16.3z"/>
		<path class="st0" d="M165.7,19.8h4.5l-0.6-1.9c-0.1-0.4-0.5-0.7-0.9-0.7h-4.5l0.6,1.9C164.9,19.5,165.3,19.8,165.7,19.8z"/>
		<path class="st0" d="M179,19.8h4.3l0.6-1.7c0.1-0.4-0.2-0.9-0.6-0.9H179l-0.6,1.7C178.2,19.3,178.6,19.8,179,19.8z"/>
		<path class="st0" d="M179.9,11.8h-2.2l-0.2,1.3c-0.1,0.4,0.2,0.8,0.6,0.8h2.2l0.2-1.3C180.7,12.2,180.3,11.8,179.9,11.8z"/>
		<path class="st0" d="M180.3,16.3l0.2-1.3c0.1-0.4-0.2-0.8-0.6-0.8h-2.2l-0.2,1.3c-0.1,0.4,0.2,0.8,0.6,0.8H180.3z"/>
		<path class="st0" d="M175.3,17.1h-3.8v3.1h-8.5v8.4c0,0.9,0.7,1.6,1.6,1.6h3.6v-2.8h11.4c0.2,0,0.4,0.2,0.4,0.4v0.6h-2.8v0.9
			c0,0.5,0.4,0.8,0.8,0.8h7.2v-8.4c0-0.9-0.7-1.6-1.6-1.6h-6.9v-1.7C176.7,17.7,176.1,17.1,175.3,17.1z M168.3,25.3v-0.6h11.4
			c0.2,0,0.4,0.2,0.4,0.4v0.6h-11.4C168.4,25.7,168.3,25.5,168.3,25.3z M180,22.3V23h-11.4c-0.2,0-0.4-0.2-0.4-0.4V22h11.4
			C179.9,22,180,22.1,180,22.3z"/>
	</g>
</g>
</svg>
