<?xml version="1.0" encoding="utf-8"?>
<!-- Generator: Adobe Illustrator 21.0.0, SVG Export Plug-In . SVG Version: 6.00 Build 0)  -->
<svg version="1.1" id="图层_1" xmlns="http://www.w3.org/2000/svg" xmlns:xlink="http://www.w3.org/1999/xlink" x="0px" y="0px"
	 viewBox="0 0 45 45" style="enable-background:new 0 0 45 45;" xml:space="preserve">
<style type="text/css">
	.st0{fill:#777F99;}
	.st1{fill:none;stroke:#777F99;stroke-linejoin:bevel;stroke-miterlimit:10;}
	.st2{fill:none;stroke:#FFFFFF;stroke-linejoin:bevel;stroke-miterlimit:10;}
	.st3{fill:#FFFFFF;}
	.st4{fill:#4488EE;}
	.st5{fill:#333333;}
	.st6{fill:none;stroke:#333333;stroke-linecap:round;stroke-linejoin:round;stroke-miterlimit:10;}
	.st7{fill:none;stroke:#4488EE;stroke-miterlimit:10;}
	.st8{fill:none;stroke:#333333;stroke-miterlimit:10;}
	.st9{fill:none;stroke:#777F99;stroke-width:3;stroke-linejoin:bevel;stroke-miterlimit:10;}
	.st10{fill:none;stroke:#777F99;stroke-width:2.6;stroke-linecap:round;stroke-linejoin:round;stroke-miterlimit:10;}
	.st11{fill:none;stroke:#777F99;stroke-width:2.6;stroke-miterlimit:10;}
	.st12{fill:none;stroke:#777F99;stroke-width:4;stroke-linejoin:bevel;stroke-miterlimit:10;}
	.st13{clip-path:url(#SVGID_2_);fill:#777F99;}
</style>
<g>
</g>
<g>
	<path class="st0" d="M-203.5,21.5c0.6,0,1,0.4,1,1v18c0,0.6-0.4,1-1,1h-14c-0.6,0-1-0.4-1-1v-18c0-0.6,0.4-1,1-1H-203.5
		 M-203.5,20.5h-14c-1.1,0-2,0.9-2,2v18c0,1.1,0.9,2,2,2h14c1.1,0,2-0.9,2-2v-18C-201.5,21.4-202.4,20.5-203.5,20.5L-203.5,20.5z"/>
</g>
<path class="st0" d="M-203.5,72.5h-14c-1.1,0-2-0.9-2-2v-18c0-1.1,0.9-2,2-2h14c1.1,0,2,0.9,2,2v18
	C-201.5,71.6-202.4,72.5-203.5,72.5z"/>
<g>
</g>
<g>
</g>
<g>
</g>
<g>
</g>
<g>
</g>
<g>
</g>
<g>
</g>
<g>
</g>
<g>
</g>
<g>
</g>
<g>
</g>
<g>
</g>
<g>
</g>
<g>
</g>
<g>
</g>
<g>
</g>
<g>
</g>
<line class="st1" x1="-215.5" y1="32" x2="-205.5" y2="32"/>
<line class="st1" x1="-215.5" y1="35" x2="-205.5" y2="35"/>
<line class="st1" x1="-215.5" y1="38" x2="-210.5" y2="38"/>
<g>
	<path class="st0" d="M-212.5,25.5v3h-3v-3H-212.5 M-212.5,24.5h-3c-0.6,0-1,0.4-1,1v3c0,0.6,0.4,1,1,1h3c0.6,0,1-0.4,1-1v-3
		C-211.5,24.9-211.9,24.5-212.5,24.5L-212.5,24.5z"/>
</g>
<g>
	<path class="st0" d="M-205.5,25.5v3h-3v-3H-205.5 M-205.5,24.5h-3c-0.6,0-1,0.4-1,1v3c0,0.6,0.4,1,1,1h3c0.6,0,1-0.4,1-1v-3
		C-204.5,24.9-204.9,24.5-205.5,24.5L-205.5,24.5z"/>
</g>
<g>
	<path class="st0" d="M-180.5,21.7l9.1,5.8l-9.1,5.8l-9.1-5.8L-180.5,21.7 M-180.5,20.5l-11,7l11,7l11-7L-180.5,20.5L-180.5,20.5z"
		/>
</g>
<g>
	<polygon class="st0" points="-180.5,37.5 -190.7,31 -191.5,31.5 -180.5,38.5 -169.5,31.5 -170.3,31 	"/>
</g>
<g>
	<polygon class="st0" points="-180.5,41.5 -190.7,35 -191.5,35.5 -180.5,42.5 -169.5,35.5 -170.3,35 	"/>
</g>
<line class="st2" x1="-215.5" y1="62" x2="-205.5" y2="62"/>
<line class="st2" x1="-215.5" y1="65" x2="-205.5" y2="65"/>
<line class="st2" x1="-215.5" y1="68" x2="-210.5" y2="68"/>
<g>
	<path class="st3" d="M-212.5,59.5h-3c-0.6,0-1-0.4-1-1v-3c0-0.6,0.4-1,1-1h3c0.6,0,1,0.4,1,1v3C-211.5,59.1-211.9,59.5-212.5,59.5z
		"/>
</g>
<g>
	<path class="st3" d="M-205.5,59.5h-3c-0.6,0-1-0.4-1-1v-3c0-0.6,0.4-1,1-1h3c0.6,0,1,0.4,1,1v3C-204.5,59.1-204.9,59.5-205.5,59.5z
		"/>
</g>
<polygon class="st0" points="-180.5,64.5 -191.5,57.5 -180.5,50.5 -169.5,57.5 "/>
<g>
	<polygon class="st0" points="-180.5,67.5 -190.7,61 -191.5,61.5 -180.5,68.5 -169.5,61.5 -170.3,61 	"/>
</g>
<g>
	<polygon class="st0" points="-180.5,71.5 -190.7,65 -191.5,65.5 -180.5,72.5 -169.5,65.5 -170.3,65 	"/>
</g>
<path class="st4" d="M-203.5,102.5h-14c-1.1,0-2-0.9-2-2v-18c0-1.1,0.9-2,2-2h14c1.1,0,2,0.9,2,2v18
	C-201.5,101.6-202.4,102.5-203.5,102.5z"/>
<line class="st2" x1="-215.5" y1="92" x2="-205.5" y2="92"/>
<line class="st2" x1="-215.5" y1="95" x2="-205.5" y2="95"/>
<line class="st2" x1="-215.5" y1="98" x2="-210.5" y2="98"/>
<g>
	<path class="st3" d="M-212.5,89.5h-3c-0.6,0-1-0.4-1-1v-3c0-0.6,0.4-1,1-1h3c0.6,0,1,0.4,1,1v3C-211.5,89.1-211.9,89.5-212.5,89.5z
		"/>
</g>
<g>
	<path class="st3" d="M-205.5,89.5h-3c-0.6,0-1-0.4-1-1v-3c0-0.6,0.4-1,1-1h3c0.6,0,1,0.4,1,1v3C-204.5,89.1-204.9,89.5-205.5,89.5z
		"/>
</g>
<polygon class="st4" points="-180.5,94.5 -191.5,87.5 -180.5,80.5 -169.5,87.5 "/>
<polygon class="st4" points="-180.5,97.5 -190.7,91 -191.5,91.5 -180.5,98.5 -169.5,91.5 -170.3,91 "/>
<polygon class="st4" points="-180.5,101.5 -190.7,95 -191.5,95.5 -180.5,102.5 -169.5,95.5 -170.3,95 "/>
<g>
	<path class="st5" d="M-150.5,22.5c2.5,0,4.5,2,4.5,4.5s-2,4.5-4.5,4.5s-4.5-2-4.5-4.5S-153,22.5-150.5,22.5 M-150.5,21.5
		c-3,0-5.5,2.5-5.5,5.5s2.5,5.5,5.5,5.5S-145,30-145,27S-147.5,21.5-150.5,21.5L-150.5,21.5z"/>
</g>
<path class="st6" d="M-158.5,40c0-4.4,3.6-8,8-8s8,3.6,8,8"/>
<g>
	<g>
		<path class="st4" d="M-150.5,52.5c2.5,0,4.5,2,4.5,4.5s-2,4.5-4.5,4.5s-4.5-2-4.5-4.5S-153,52.5-150.5,52.5 M-150.5,51.5
			c-3,0-5.5,2.5-5.5,5.5s2.5,5.5,5.5,5.5S-145,60-145,57S-147.5,51.5-150.5,51.5L-150.5,51.5z"/>
	</g>
</g>
<path class="st7" d="M-158.5,70c0-4.4,3.6-8,8-8s8,3.6,8,8"/>
<g>
	<g>
		<path class="st5" d="M-122.2,24v5.8h-5.8V24H-122.2 M-122.2,23h-5.8c-0.6,0-1,0.4-1,1v5.8c0,0.6,0.4,1,1,1h5.8c0.6,0,1-0.4,1-1V24
			C-121.2,23.4-121.7,23-122.2,23L-122.2,23z"/>
	</g>
	<g>
		<path class="st5" d="M-113,24v5.8h-5.8V24H-113 M-113,23h-5.8c-0.6,0-1,0.4-1,1v5.8c0,0.6,0.4,1,1,1h5.8c0.6,0,1-0.4,1-1V24
			C-112,23.4-112.4,23-113,23L-113,23z"/>
	</g>
	<g>
		<path class="st5" d="M-113,33.2V39h-5.8v-5.8H-113 M-113,32.2h-5.8c-0.6,0-1,0.4-1,1V39c0,0.6,0.4,1,1,1h5.8c0.6,0,1-0.4,1-1v-5.8
			C-112,32.7-112.4,32.2-113,32.2L-113,32.2z"/>
	</g>
	<g>
		<path class="st5" d="M-122.2,33.2V39h-5.8v-5.8H-122.2 M-122.2,32.2h-5.8c-0.6,0-1,0.4-1,1V39c0,0.6,0.4,1,1,1h5.8
			c0.6,0,1-0.4,1-1v-5.8C-121.2,32.7-121.7,32.2-122.2,32.2L-122.2,32.2z"/>
	</g>
</g>
<g>
	<g>
		<path class="st4" d="M-122.2,54v5.8h-5.8V54H-122.2 M-122.2,53h-5.8c-0.6,0-1,0.4-1,1v5.8c0,0.6,0.4,1,1,1h5.8c0.6,0,1-0.4,1-1V54
			C-121.2,53.4-121.7,53-122.2,53L-122.2,53z"/>
	</g>
	<g>
		<path class="st4" d="M-113,54v5.8h-5.8V54H-113 M-113,53h-5.8c-0.6,0-1,0.4-1,1v5.8c0,0.6,0.4,1,1,1h5.8c0.6,0,1-0.4,1-1V54
			C-112,53.4-112.4,53-113,53L-113,53z"/>
	</g>
	<g>
		<path class="st4" d="M-113,63.2V69h-5.8v-5.8H-113 M-113,62.2h-5.8c-0.6,0-1,0.4-1,1V69c0,0.6,0.4,1,1,1h5.8c0.6,0,1-0.4,1-1v-5.8
			C-112,62.7-112.4,62.2-113,62.2L-113,62.2z"/>
	</g>
	<g>
		<path class="st4" d="M-122.2,63.2V69h-5.8v-5.8H-122.2 M-122.2,62.2h-5.8c-0.6,0-1,0.4-1,1V69c0,0.6,0.4,1,1,1h5.8
			c0.6,0,1-0.4,1-1v-5.8C-121.2,62.7-121.7,62.2-122.2,62.2L-122.2,62.2z"/>
	</g>
</g>
<polyline class="st8" points="-81.5,34.5 -90.5,40.5 -99.5,34.5 "/>
<polyline class="st8" points="-81.5,31.5 -90.5,37.5 -99.5,31.5 "/>
<g>
	<path class="st5" d="M-90.5,23.7l7.2,4.8l-7.2,4.8l-7.2-4.8L-90.5,23.7 M-90.5,22.5l-9,6l9,6l9-6L-90.5,22.5L-90.5,22.5z"/>
</g>
<polyline class="st7" points="-81.5,64.5 -90.5,70.5 -99.5,64.5 "/>
<polyline class="st7" points="-81.5,61.5 -90.5,67.5 -99.5,61.5 "/>
<g>
	<path class="st4" d="M-90.5,53.7l7.2,4.8l-7.2,4.8l-7.2-4.8L-90.5,53.7 M-90.5,52.5l-9,6l9,6l9-6L-90.5,52.5L-90.5,52.5z"/>
</g>
<g>
	<g>
		<path class="st5" d="M-57.8,40c-0.3,0-0.6-0.1-0.9-0.4c-0.3-0.3-1.2-1.1-1.9-1.1c-0.7,0-1.6,0.8-1.9,1.1c-0.2,0.2-0.5,0.4-0.8,0.4
			c-0.2,0-0.3,0-0.4-0.1l0,0l-2.2-1.2l0,0c-0.4-0.3-0.6-0.8-0.4-1.3c0,0,0.2-0.5,0.2-0.9c0-1.3-1-2.3-2.3-2.3h-0.1l0,0
			c-0.4,0-0.7-0.3-0.8-0.8c0,0-0.2-1-0.2-1.8c0-0.8,0.2-1.7,0.2-1.8c0.1-0.5,0.4-0.8,0.8-0.8h0.1c1.3,0,2.3-1.1,2.3-2.3
			c0-0.4-0.2-0.9-0.2-0.9c-0.2-0.4,0-1,0.4-1.3l0,0l2.3-1.3l0,0c0.1-0.1,0.3-0.1,0.4-0.1c0.3,0,0.6,0.1,0.8,0.3c0.3,0.3,1.1,1,1.9,1
			c0.7,0,1.6-0.7,1.8-1c0.2-0.2,0.5-0.3,0.8-0.3c0.2,0,0.3,0,0.4,0.1l0,0l2.3,1.3l0,0c0.4,0.3,0.6,0.8,0.4,1.3c0,0-0.2,0.5-0.2,0.9
			c0,1.3,1,2.3,2.3,2.3h0.1c0.4,0,0.7,0.3,0.8,0.8c0,0,0.2,1,0.2,1.8c0,0.8-0.2,1.7-0.2,1.8c-0.1,0.5-0.4,0.8-0.8,0.8h-0.1
			c-1.3,0-2.3,1.1-2.3,2.3c0,0.4,0.2,0.9,0.2,0.9c0.2,0.4,0,1-0.4,1.3l0,0l-2.3,1.3l0,0C-57.5,40-57.7,40-57.8,40L-57.8,40z
			 M-57.9,38.9C-57.9,38.9-57.8,38.9-57.9,38.9L-57.9,38.9l2.2-1.2c-0.1-0.1-0.3-0.7-0.3-1.3c0-1.8,1.4-3.3,3.2-3.4
			c0-0.1,0.2-0.9,0.2-1.5c0-0.6-0.1-1.4-0.2-1.5c-1.8-0.1-3.2-1.6-3.2-3.4c0-0.6,0.2-1.2,0.3-1.3l-2.1-1.2c0,0,0,0,0,0
			c0,0-0.1,0-0.1,0c0,0-0.3,0.3-0.8,0.7c-0.6,0.5-1.3,0.7-1.8,0.7c-0.6,0-1.2-0.2-1.8-0.7c-0.4-0.3-0.7-0.6-0.8-0.7c0,0,0,0-0.1,0
			c0,0,0,0,0,0l-2.2,1.2c0.1,0.1,0.3,0.7,0.3,1.3c0,1.8-1.4,3.3-3.2,3.4c0,0.1-0.2,0.9-0.2,1.5c0,0.6,0.1,1.4,0.2,1.5
			c1.8,0.1,3.2,1.6,3.2,3.4c0,0.6-0.2,1.2-0.3,1.3l2.1,1.2c0,0,0,0,0,0c0,0,0.1,0,0.1,0c0,0,0.3-0.4,0.8-0.7
			c0.7-0.5,1.3-0.7,1.9-0.7c0.6,0,1.2,0.3,1.9,0.7C-58.2,38.5-57.9,38.9-57.9,38.9L-57.9,38.9z M-60.5,34.6c-1.7,0-3.1-1.4-3.1-3.1
			c0-1.7,1.4-3.1,3.1-3.1c1.7,0,3.1,1.4,3.1,3.1C-57.4,33.2-58.8,34.6-60.5,34.6L-60.5,34.6z M-60.5,29.4c-1.1,0-2.1,0.9-2.1,2.1
			c0,1.1,0.9,2.1,2.1,2.1s2.1-0.9,2.1-2.1C-58.5,30.4-59.4,29.4-60.5,29.4L-60.5,29.4z M-60.5,29.4"/>
	</g>
</g>
<g>
	<g>
		<path class="st4" d="M-57.8,70c-0.3,0-0.6-0.1-0.9-0.4c-0.3-0.3-1.2-1.1-1.9-1.1c-0.7,0-1.6,0.8-1.9,1.1c-0.2,0.2-0.5,0.4-0.8,0.4
			c-0.2,0-0.3,0-0.4-0.1l0,0l-2.2-1.2l0,0c-0.4-0.3-0.6-0.8-0.4-1.3c0,0,0.2-0.5,0.2-0.9c0-1.3-1-2.3-2.3-2.3h-0.1l0,0
			c-0.4,0-0.7-0.3-0.8-0.8c0,0-0.2-1-0.2-1.8c0-0.8,0.2-1.7,0.2-1.8c0.1-0.5,0.4-0.8,0.8-0.8h0.1c1.3,0,2.3-1.1,2.3-2.3
			c0-0.4-0.2-0.9-0.2-0.9c-0.2-0.4,0-1,0.4-1.3l0,0l2.3-1.3l0,0c0.1-0.1,0.3-0.1,0.4-0.1c0.3,0,0.6,0.1,0.8,0.3c0.3,0.3,1.1,1,1.9,1
			c0.7,0,1.6-0.7,1.8-1c0.2-0.2,0.5-0.3,0.8-0.3c0.2,0,0.3,0,0.4,0.1l0,0l2.3,1.3l0,0c0.4,0.3,0.6,0.8,0.4,1.3c0,0-0.2,0.5-0.2,0.9
			c0,1.3,1,2.3,2.3,2.3h0.1c0.4,0,0.7,0.3,0.8,0.8c0,0,0.2,1,0.2,1.8c0,0.8-0.2,1.7-0.2,1.8c-0.1,0.5-0.4,0.8-0.8,0.8h-0.1
			c-1.3,0-2.3,1.1-2.3,2.3c0,0.4,0.2,0.9,0.2,0.9c0.2,0.4,0,1-0.4,1.3l0,0l-2.3,1.3l0,0C-57.5,70-57.7,70-57.8,70L-57.8,70z
			 M-57.9,68.9C-57.9,68.9-57.8,68.9-57.9,68.9L-57.9,68.9l2.2-1.2c-0.1-0.1-0.3-0.7-0.3-1.3c0-1.8,1.4-3.3,3.2-3.4
			c0-0.1,0.2-0.9,0.2-1.5c0-0.6-0.1-1.4-0.2-1.5c-1.8-0.1-3.2-1.6-3.2-3.4c0-0.6,0.2-1.2,0.3-1.3l-2.1-1.2c0,0,0,0,0,0
			c0,0-0.1,0-0.1,0c0,0-0.3,0.3-0.8,0.7c-0.6,0.5-1.3,0.7-1.8,0.7c-0.6,0-1.2-0.2-1.8-0.7c-0.4-0.3-0.7-0.6-0.8-0.7c0,0,0,0-0.1,0
			c0,0,0,0,0,0l-2.2,1.2c0.1,0.1,0.3,0.7,0.3,1.3c0,1.8-1.4,3.3-3.2,3.4c0,0.1-0.2,0.9-0.2,1.5c0,0.6,0.1,1.4,0.2,1.5
			c1.8,0.1,3.2,1.6,3.2,3.4c0,0.6-0.2,1.2-0.3,1.3l2.1,1.2c0,0,0,0,0,0c0,0,0.1,0,0.1,0c0,0,0.3-0.4,0.8-0.7
			c0.7-0.5,1.3-0.7,1.9-0.7c0.6,0,1.2,0.3,1.9,0.7C-58.2,68.5-57.9,68.9-57.9,68.9L-57.9,68.9z M-60.5,64.6c-1.7,0-3.1-1.4-3.1-3.1
			c0-1.7,1.4-3.1,3.1-3.1c1.7,0,3.1,1.4,3.1,3.1C-57.4,63.2-58.8,64.6-60.5,64.6L-60.5,64.6z M-60.5,59.4c-1.1,0-2.1,0.9-2.1,2.1
			c0,1.1,0.9,2.1,2.1,2.1s2.1-0.9,2.1-2.1C-58.5,60.4-59.4,59.4-60.5,59.4L-60.5,59.4z M-60.5,59.4"/>
	</g>
</g>
<g>
	<g>
		<path class="st4" d="M-30.5,61.8c-0.5,0-0.8-0.4-0.8-0.8v-8.6c0-0.5,0.4-0.8,0.8-0.8c0.5,0,0.8,0.4,0.8,0.8v8.6
			C-29.6,61.4-30,61.8-30.5,61.8L-30.5,61.8z M-30.5,71.5c-2.4,0-4.7-0.9-6.4-2.6c-2-2-3-4.9-2.5-7.7c0.4-2.8,2.2-5.3,4.7-6.6l0.1,0
			c0.3-0.1,0.6,0,0.8,0.3c0.2,0.3,0.1,0.6-0.1,0.8l0,0h0c0,0-0.1,0-0.1,0.1c-2.6,1.5-4.2,4.2-4.2,6.8c0,4,3.8,7.8,7.8,7.8
			c4,0,7.8-3.8,7.8-7.8c0-2.7-1.7-5.4-4.3-6.9v0l-0.1-0.1c-0.2-0.2-0.3-0.5-0.1-0.8c0.2-0.3,0.5-0.4,0.8-0.3h0c0.1,0,0.1,0,0.2,0.1
			h0c2.5,1.4,4.2,3.8,4.6,6.6c0.4,2.8-0.5,5.7-2.5,7.7C-25.8,70.5-28.1,71.5-30.5,71.5L-30.5,71.5z M-30.5,71.5"/>
	</g>
</g>
<g>
	<g>
		<path class="st5" d="M-30.5,31.8c-0.5,0-0.8-0.4-0.8-0.8v-8.6c0-0.5,0.4-0.8,0.8-0.8c0.5,0,0.8,0.4,0.8,0.8v8.6
			C-29.6,31.4-30,31.8-30.5,31.8L-30.5,31.8z M-30.5,41.5c-2.4,0-4.7-0.9-6.4-2.6c-2-2-3-4.9-2.5-7.7c0.4-2.8,2.2-5.3,4.7-6.6l0.1,0
			c0.3-0.1,0.6,0,0.8,0.3c0.2,0.3,0.1,0.6-0.1,0.8l0,0h0c0,0-0.1,0-0.1,0.1c-2.6,1.5-4.2,4.2-4.2,6.8c0,4,3.8,7.8,7.8,7.8
			c4,0,7.8-3.8,7.8-7.8c0-2.7-1.7-5.4-4.3-6.9v0l-0.1-0.1c-0.2-0.2-0.3-0.5-0.1-0.8c0.2-0.3,0.5-0.4,0.8-0.3h0c0.1,0,0.1,0,0.2,0.1
			h0c2.5,1.4,4.2,3.8,4.6,6.6c0.4,2.8-0.5,5.7-2.5,7.7C-25.8,40.5-28.1,41.5-30.5,41.5L-30.5,41.5z M-30.5,41.5"/>
	</g>
</g>
<line class="st9" x1="24.8" y1="41.6" x2="40.6" y2="41.6"/>
<line class="st9" x1="24.8" y1="35.6" x2="40.6" y2="35.6"/>
<line class="st9" x1="24.8" y1="29.6" x2="40.6" y2="29.6"/>
<path class="st10" d="M5.6,42.6c0-10,8-18.1,18-18.1"/>
<ellipse class="st11" cx="23.6" cy="13.5" rx="10.9" ry="11"/>
<g>
	<line class="st12" x1="18.1" y1="59.6" x2="23.1" y2="59.6"/>
	<g>
		<g>
			<defs>
				<rect id="SVGID_1_" x="3.1" y="50.1" width="40" height="40"/>
			</defs>
			<clipPath id="SVGID_2_">
				<use xlink:href="#SVGID_1_"  style="overflow:visible;"/>
			</clipPath>
			<path class="st13" d="M41.7,87.3h-1.8V65.5c0-1.8-1.4-3.2-3.2-3.2h-8.4v-8.9c0-1.8-1.5-3.3-3.3-3.3H9.3c-1.8,0-3.3,1.5-3.3,3.3
				v33.9H4.4c-0.8,0-1.4,0.6-1.4,1.4c0,0.8,0.6,1.4,1.4,1.4h37.2c0.8,0,1.4-0.6,1.4-1.4C43.1,87.9,42.5,87.3,41.7,87.3L41.7,87.3z
				 M25.4,87.3H8.7V53.9c0-0.6,0.5-1.1,1.1-1.1h14.5c0.6,0,1.1,0.5,1.1,1.1V87.3z M37.1,87.3h-8.9V65h7.6c0.7,0,1.3,0.6,1.3,1.3
				V87.3z M37.1,87.3"/>
		</g>
	</g>
	<line class="st12" x1="11.1" y1="76.6" x2="16.1" y2="76.6"/>
	<line class="st12" x1="30.1" y1="80.6" x2="35.1" y2="80.6"/>
	<line class="st12" x1="30.1" y1="72.6" x2="35.1" y2="72.6"/>
	<line class="st12" x1="18.1" y1="76.6" x2="23.1" y2="76.6"/>
	<line class="st12" x1="11.1" y1="59.6" x2="16.1" y2="59.6"/>
	<line class="st12" x1="11.1" y1="68.6" x2="16.1" y2="68.6"/>
	<line class="st12" x1="18.1" y1="68.6" x2="23.1" y2="68.6"/>
</g>
</svg>
